<svg xmlns="http://www.w3.org/2000/svg" viewBox="0 0 456.07 610.26"><defs><style>.cls-1{fill:#231f20;}.cls-2{fill:#77321b;}.cls-3{fill:#cdb551;}.cls-4{fill:#662819;}.cls-5{fill:#f8a28a;}.cls-6{fill:#f36e36;}.cls-7{fill:#fff;}.cls-8{fill:#e42a29;}.cls-9{fill:#ef3938;}</style></defs><title>Asset 2</title><g id="Layer_2" data-name="Layer 2"><g id="skiss_2" data-name="skiss 2"><path class="cls-1" d="M43.28,207.1q-2.64,4.38-5.56,9.22c-.73,1-1.34,1.81-1.82,2.47l-1.4,1.88,1.26-2,3.64-5.64Z"/><path class="cls-1" d="M456.06,426.56c0,2.81,0,5.63,0,8.45,0,8.72,0,17.44-.05,26s-.09,17-.12,25.2c-.11,16.35-.27,31.61-.46,44.68s-.44,24-.57,31.61c0,.38,0,.74,0,1.1l-.53,0,0-1.08c-.13-7.63-.4-18.53-.57-31.61q-.06-3.49-.1-7.18c-.15-11.35-.27-24.06-.36-37.5,0-8.17-.12-16.62-.12-25.2s0-17.3-.05-26c0-2.8,0-5.59,0-8.38l2.43-.07Z"/><path class="cls-1" d="M456.06,426.56h-.54a2.17,2.17,0,0,1,0-.26l-2.42-.07c0-5.78,0-11.54,0-17.24,0-8.58.09-17,.13-25.2s.14-16.07.2-23.57.18-14.57.26-21.11c.1-7.95.24-15.09.36-21.18l1,0c.12,6.1.26,13.24.36,21.2.08,6.54.17,13.62.26,21.11s.13,15.4.2,23.57.09,16.62.13,25.2C456,414.8,456.05,420.67,456.06,426.56Z"/><path class="cls-1" d="M455.51,426.3a2.17,2.17,0,0,0,0,.26l-2.43.07v-.4Z"/><path class="cls-1" d="M455.05,317c0,.32,0,.64,0,1l-1,0c0-.34,0-.67,0-1Z"/><path class="cls-1" d="M454.84,563.62c0,.27,0,.53,0,.78h-.5c0-.26,0-.53,0-.81Z"/><path class="cls-1" d="M454.31,563.6c0,.28,0,.55,0,.81-5.41.14-12.2.33-20,.46-10.13.19-21.94.35-34.6.46-6.32,0-12.86.12-19.51.12l-20.14,0-20.14,0-19.51-.13-18.25-.2-16.35-.26c-10.12-.17-18.56-.44-24.46-.56l-4.59-.15c0-.1,0-.2,0-.3l4.58-.14c5.9-.12,14.34-.39,24.46-.56l16.35-.26,18.25-.2,19.51-.13,20.14-.05,20.14.05c6.65,0,13.19.09,19.51.12,12.66.11,24.47.27,34.6.46C442.12,563.27,448.91,563.46,454.31,563.6Z"/><path class="cls-2" d="M454.28,562.52l0,1.08c-5.4-.14-12.19-.33-20-.46-10.13-.19-21.94-.35-34.6-.46-6.32,0-12.86-.12-19.51-.12l-20.14-.05-20.14.05-19.51.13-18.25.2-16.35.26c-10.12.17-18.56.44-24.46.56l-4.58.14c0-.59.06-1.24.09-1.93.13-4.29.4-10.41.57-17.76s.35-15.93.46-25.11c0-4.6.12-9.34.12-14.16s0-9.72.05-14.62c0-2.7,0-5.41,0-8.09q0-3.29,0-6.54c0-4.82-.09-9.56-.13-14.16s-.14-9-.2-13.24-.18-8.2-.26-11.87c-.06-2.21-.11-4.31-.17-6.28v0c0-.69.07-1.47.11-2.32,0-.13,0-.26,0-.4h0c0-.21,0-.43,0-.66l1.72.05c5.39.13,13.09.4,22.32.57l12.28.21,1.88,0,.75,0,16.64.2,17.8.13,18.37.05,18.37-.05c6.06,0,12-.09,17.8-.13,11-.1,21.34-.25,30.29-.43l1.26,0h.82c12.87-.18,23.61-.43,31.21-.56l4.17-.09c0,2.79,0,5.58,0,8.38,0,8.72,0,17.44.05,26s.09,17,.12,25.2c.09,13.44.21,26.15.36,37.5q0,3.69.1,7.18C453.88,544,454.15,554.89,454.28,562.52ZM442.5,503.76c0-1.79,0-3.58-.05-5.34s-.09-3.5-.13-5.18c-.1-3.36-.26-6.5-.46-9.19-.09-1.51-.22-2.87-.33-4.06,0-.16,0-.31,0-.46l-1,0-.94,0c-5.14-.13-12.48-.4-21.3-.57s-19.09-.35-30.1-.46c-5.51,0-11.2-.12-17-.13l-17.53-.05-17.53.06-17,.13-15.88.2-14.22.26c-7.5.14-13.93.35-18.85.5l-1.06,0-.06.64c-.1,1-.19,2.11-.27,3.31s-.16,2.8-.26,4.34-.13,3.16-.2,4.84-.08,3.42-.13,5.18,0,3.56-.05,5.35,0,3.58.05,5.34.09,3.5.13,5.18c.1,3.36.26,6.5.46,9.19,0,.23,0,.45.05.67s0,.38,0,.56h.3l1.24,0c5.12.14,12.1.38,20.35.54l14.44.26,16.1.2,17.22.13,17.79,0,17.78,0c5.86,0,11.64-.09,17.22-.13,11.17-.1,21.6-.26,30.54-.46,7.21-.13,13.44-.34,18.32-.48l1.62,0c0-.2,0-.42,0-.63v0c.08-1.33.17-2.77.26-4.3s.13-3.16.2-4.84.09-3.42.13-5.18S442.48,505.55,442.5,503.76Z"/><path class="cls-1" d="M454.1,316.93c0,.33,0,.66,0,1l-9.11.23,0-1.08c0-.13,0-.26,0-.38C448.26,316.77,451.33,316.86,454.1,316.93Z"/><path class="cls-2" d="M454.08,317.93c-.12,6.09-.26,13.23-.36,21.18-.08,6.54-.17,13.62-.26,21.11s-.13,15.4-.2,23.57-.09,16.62-.13,25.2c0,5.7,0,11.46,0,17.24l-4.17-.09c-7.58-.13-18.32-.38-31.17-.56,0,.57,0,1.14,0,1.7l0-1.7c.1-6.5.19-13.5.25-20.8,0-5.8.13-11.79.13-17.88s0-12.28.05-18.47,0-12.38-.05-18.47-.09-12.08-.13-17.88c-.06-4.62-.11-9.12-.16-13.45,7.48-.09,14.49-.21,20.81-.34l4.53-.09,1.8,0Z"/><path class="cls-1" d="M453.09,426.23v.4l-4.17.09c-7.6.13-18.34.38-31.21.56,0-.56,0-1.13,0-1.7,12.85.18,23.59.43,31.17.56Zm-5.42.2-2.21-.08-1,0-.66,0a2.17,2.17,0,0,0,0,.26h.64l1.06,0Z"/><path class="cls-1" d="M445.46,426.35l2.21.08-2.21.08-1.06,0a1.69,1.69,0,0,0,0-.23Z"/><path class="cls-1" d="M444.94,317.08l0,1.08-1.8,0c0-.38,0-.75,0-1.12,0-.14,0-.28,0-.42l1.71,0C444.93,316.82,444.94,317,444.94,317.08Z"/><path class="cls-1" d="M444.41,426.32a1.69,1.69,0,0,1,0,.23h-.64a2.17,2.17,0,0,1,0-.26Z"/><path class="cls-1" d="M443.22,316.66c0,.14,0,.28,0,.42,0,.37,0,.74,0,1.12l-4.53.09c-6.32.13-13.33.25-20.81.34q0-1.22,0-2.4c7.49.09,14.51.21,20.84.34Z"/><path class="cls-1" d="M442.45,498.42c0,1.76,0,3.55.05,5.34s0,3.59-.05,5.35-.09,3.5-.13,5.18-.14,3.3-.2,4.84-.18,3-.26,4.3l-1.72,0c-.07-1.31-.16-2.74-.25-4.25s-.13-3.16-.2-4.84-.09-3.42-.13-5.18,0-3.56-.06-5.35,0-3.58.05-5.34.09-3.5.13-5.18c.11-3.36.27-6.5.46-9.19.09-1.49.22-2.85.34-4l1,0c.11,1.19.24,2.55.33,4.06.2,2.69.36,5.83.46,9.19C442.36,494.92,442.45,496.65,442.45,498.42Z"/><path class="cls-1" d="M441.86,523.43v0c0,.21,0,.43,0,.63l-1.62,0c0-.22,0-.44-.05-.67a.28.28,0,0,0,0-.09Z"/><path class="cls-1" d="M441.48,479.53c0,.15,0,.3,0,.46l-1,0c0-.18,0-.35,0-.52Z"/><path class="cls-1" d="M440.53,479.5c0,.17,0,.34,0,.52l-.89,0c-5.14.12-12.48.4-21.3.56s-19.09.36-30.1.46c-5.51,0-11.2.13-17,.13l-17.53.05-17.53-.05-17-.13-15.88-.2-14.22-.26c-7.47-.14-13.87-.36-18.78-.51,0-.24,0-.47-.07-.7,4.92-.15,11.35-.36,18.85-.5l14.22-.26,15.88-.2,17-.13,17.53-.06,17.53.05c5.79,0,11.48.09,17,.13,11,.11,21.29.27,30.1.46s16.16.44,21.3.57Z"/><path class="cls-3" d="M439.59,480.06l.89,0c-.12,1.18-.25,2.54-.34,4-.19,2.69-.35,5.83-.46,9.19,0,1.68-.12,3.41-.13,5.18s0,3.55-.05,5.34,0,3.59.06,5.35.08,3.5.13,5.18.13,3.3.2,4.84.18,2.94.25,4.25c-4.87-.14-11.08-.34-18.26-.48-8.94-.19-19.37-.35-30.54-.46-5.58,0-11.36-.12-17.22-.13l-17.78-.05-17.79.06-17.22.13-16.1.2-14.44.26c-8.22.15-15.19.39-20.31.53,0-.21,0-.42,0-.63.2-2.69.36-5.83.46-9.19,0-1.68.13-3.41.13-5.18s0-3.55.05-5.34,0-3.59-.05-5.35-.09-3.5-.13-5.18-.14-3.3-.2-4.84-.18-3-.26-4.34c-.08-1.19-.17-2.29-.26-3.28,4.91.15,11.31.37,18.78.51l14.22.26,15.88.2,17,.13,17.53.05,17.53-.05c5.79,0,11.48-.09,17-.13,11-.1,21.29-.26,30.1-.46S434.45,480.18,439.59,480.06Zm-4.17,36.58v-6.72h-1.13l-3.16-5.51.45-.82,2.43-4.36h1.1v-6.4h-5.27v6.4h1.29l-1.71,3.16-2.11-3.16h1.4v-6.4h-6v6.4l-1.51.08a12.61,12.61,0,0,0-.92-5.05c-.64-1.17-1.93-1.76-3.85-1.76s-3.22.57-3.85,1.71-.95,3.44-.95,6.89v7.72q0,8.1,4.73,8.1c3.24,0,4.85-2.17,4.85-6.53v-.49l1.49,0v6.72H428v-6.72h-1.41l2.13-3.38,2,3.38h-1.33v6.72Zm-25.83-9.09q0-4.17-.73-5.45c-.48-.85-1.65-1.53-3.49-2.05a4.36,4.36,0,0,0,3.18-1.82c.5-.9.76-2.62.76-5.16,0-3.46-.47-5.72-1.42-6.8s-2.92-1.62-5.92-1.62h-6v8.18h1.57v15.26h-1.57v8.55h6.51q4.32,0,5.73-1.8T409.59,507.55Zm-29.34,8.81v-6.61a1.23,1.23,0,0,1-.57.24c-.65,0-1-1-1-2.86v-8.7q0-5.93-4.52-5.93-4.87,0-4.88,5.75a16.63,16.63,0,0,0,.35,3.6h3.21l.35.85a6.81,6.81,0,0,0-3.84,6.3q0,7.95,3.33,8c1.23,0,2.12-.75,2.65-2.25A3.06,3.06,0,0,0,378.3,517,3.83,3.83,0,0,0,380.25,516.36Zm-26.56.28v-6.72h-1.34V497.45q0-4.95-2.88-4.95-2.16,0-3.42,3.24v-2.91h-4.48v6.4h1.27v10.69h-1.27v6.72h12.12Zm-13.26,0v-6.72H339V492.83h-4.61v6.4h1.26v10.69h-1.26v6.72ZM338.83,490v-5.37h-3.35V490Zm-19.94,26.62v-6.72h-1.25V484.65h-4.71V490h1.36v4.8c-.67-1.54-1.64-2.32-2.9-2.32q-3.37,0-3.38,9.33v6.77q0,8.35,3.42,8.35a2.91,2.91,0,0,0,2.6-1.6,2.87,2.87,0,0,1,.85-.91v2.2Zm-12.52-12.47c.17-1.67.26-3.71.26-6.14,0-3.68-.81-5.53-2.42-5.53-1,0-1.82,1.07-2.32,3.21v-2.88H297.3v6.4h1.24v10.69H297.3v6.72h6v-6.72h-1.41v-8c0-2,.28-3.05.82-3.05.75,0,1.13,1.12,1.13,3.35a15.22,15.22,0,0,1-.19,1.92Zm-10.22,12.47v-6.72h-1.38V492.83h-4.62v6.4h1.27v10.69h-1.27v6.72ZM294.56,490v-5.37h-3.35V490Zm-6.12,17.53q0-4.17-.73-5.45c-.48-.85-1.64-1.53-3.49-2.05a4.36,4.36,0,0,0,3.18-1.82c.51-.9.76-2.62.76-5.16,0-3.46-.47-5.72-1.42-6.8s-2.92-1.62-5.92-1.62h-6v8.18h1.57v15.26h-1.57v8.55h6.51q4.32,0,5.73-1.8T288.44,507.55Z"/><path class="cls-1" d="M440.15,523.47c0,.23,0,.45.05.67-4.88.14-11.11.35-18.32.48-8.94.2-19.37.36-30.54.46-5.58,0-11.36.13-17.22.13l-17.78,0-17.79,0-17.22-.13-16.1-.2-14.44-.26c-8.25-.16-15.23-.4-20.35-.54,0-.21,0-.42,0-.64,5.12-.14,12.09-.38,20.31-.53l14.44-.26,16.1-.2,17.22-.13,17.79-.06,17.78.05c5.86,0,11.64.09,17.22.13,11.17.11,21.6.27,30.54.46,7.18.14,13.39.34,18.26.48A.28.28,0,0,1,440.15,523.47Z"/><polygon class="cls-1" points="435.42 509.92 435.42 516.64 429.42 516.64 429.42 509.92 430.75 509.92 428.71 506.54 426.58 509.92 424.47 508.75 426.89 504.41 424.73 500.76 427.31 499.23 429.42 502.39 431.58 503.59 431.13 504.41 434.29 509.92 435.42 509.92"/><polygon class="cls-1" points="435.11 492.83 435.11 499.23 434.01 499.23 431.58 503.59 429.42 502.39 431.13 499.23 429.84 499.23 429.84 492.83 435.11 492.83"/><polygon class="cls-1" points="428.71 492.83 428.71 499.23 427.31 499.23 424.73 500.76 423.82 499.23 422.71 499.23 422.71 492.83 428.71 492.83"/><polygon class="cls-1" points="427.99 509.92 427.99 516.64 422.71 516.64 422.71 509.92 423.82 509.92 424.47 508.75 426.58 509.92 427.99 509.92"/><path class="cls-3" d="M424.73,500.76l2.16,3.65-2.42,4.34-.65,1.17h-1.11l-1.49,0,0-1.39v-7.17c0-.73,0-1.41,0-2l1.51-.08h1.11Z"/><path class="cls-1" d="M421.24,501.34v7.17l0,1.39v.49c0,4.36-1.61,6.53-4.85,6.53s-4.73-2.7-4.73-8.1V501.1c0-3.45.31-5.75.95-6.89s1.92-1.71,3.85-1.71,3.21.59,3.85,1.76a12.61,12.61,0,0,1,.92,5.05C421.23,499.93,421.24,500.61,421.24,501.34Zm-3.35,4.45v-2.9l0-1.06v-1c0-1.31-.47-2-1.4-2s-1.48,1.39-1.48,4.17v3.05c0,2.56.48,3.84,1.43,3.84S417.89,508.57,417.89,505.79Z"/><path class="cls-1" d="M418.94,54.11l2.93,1.48-3-1.33c-2-.89-5-2.3-8.82-3.83a329.19,329.19,0,0,0-32.2-11.63A361.14,361.14,0,0,0,330.75,28c-8.73-1.39-17.81-2.39-27.06-3.21s-18.67-1.07-28.1-1.09-18.85.4-28.1,1.12S229.17,26.64,220.44,28s-17.14,3-25,4.93c-4,.87-7.77,1.93-11.46,2.88s-7.21,2.08-10.62,3c-5.41,1.67-10.42,3.34-15,5,1.49-1,3.06-2.07,4.7-3.13q4.62-1.74,9.76-3.46c3.4-1.06,6.91-2.24,10.6-3.31s7.5-2.2,11.46-3.15c7.9-2.07,16.35-3.78,25.12-5.36s17.92-2.65,27.24-3.52,18.83-1.18,28.34-1.24,19,.46,28.34,1.21,18.46,2,27.25,3.49a324.18,324.18,0,0,1,47.19,11.77A299.09,299.09,0,0,1,410.29,49.9C414.07,51.6,417,53.14,418.94,54.11Z"/><path class="cls-1" d="M418.12,350c0,6.09,0,12.28.05,18.47s0,12.38-.05,18.47S418,399,418,404.78c-.06,7.3-.15,14.3-.25,20.8h-.85l-1.29,0c-.1-6.49-.19-13.47-.25-20.76,0-5.8-.13-11.79-.13-17.88s0-12.28-.05-18.47,0-12.38.05-18.47.09-12.08.13-17.88c.06-4.61.11-9.11.16-13.43l2.32,0c.05,4.33.1,8.83.16,13.45C418,337.88,418.07,343.87,418.12,350Z"/><path class="cls-3" d="M417.89,502.89v2.9c0,2.78-.5,4.17-1.48,4.17s-1.43-1.28-1.43-3.84v-3.05c0-2.78.49-4.17,1.48-4.17s1.4.66,1.4,2v1Z"/><path class="cls-1" d="M417.8,316.23q0,1.18,0,2.4l-2.32,0c0-.82,0-1.64,0-2.44Z"/><path class="cls-1" d="M417.74,425.58l0,1.7h-.82l-1.26,0,0-1.78,1.29,0Z"/><path class="cls-1" d="M415.6,425.54l0,1.78c-8.95.18-19.27.33-30.29.43-5.77,0-11.74.13-17.8.13l-18.37.05-18.37-.05-17.8-.13-16.64-.2-.75,0c0-.73,0-1.46,0-2.21h.72l16.64-.2,17.8-.13,18.37-.05,18.37.05c6.06,0,12,.09,17.8.13C396.35,425.21,406.66,425.36,415.6,425.54Z"/><path class="cls-1" d="M415.54,316.21c0,.8,0,1.62,0,2.44l-9.7.1c-6,0-12.22.13-18.52.13l-19.12.05-19.12-.05-18.52-.13-2.67,0c-.69-.85-1.39-1.7-2.08-2.56l4.75-.05,18.52-.13,19.12-.05,19.12.05c6.3,0,12.51.09,18.52.13Z"/><path class="cls-4" d="M415.51,318.65c-.05,4.32-.1,8.82-.16,13.43,0,5.8-.08,11.79-.13,17.88s0,12.28-.05,18.47,0,12.38.05,18.47.09,12.08.13,17.88c.06,7.29.15,14.27.25,20.76-8.94-.18-19.25-.33-30.26-.43-5.77,0-11.74-.13-17.8-.13l-18.37-.05L330.8,425l-17.8.13-16.64.2h-.72c.05-3.14.1-6.41.15-9.77.06-6.12.13-12.58.2-19.26s.08-13.58.13-20.6,0-14.14.05-21.26v-.19l2.91,2.8,7,6.61c2.3,2.19,4.62,4.28,6.84,6.34s4.28,3.92,6.3,5.74c-.1.12-.19.24-.28.37a14.28,14.28,0,0,0-2.14,4.45,12.71,12.71,0,0,0-.29,5.87c.69,4.2,3.54,8.48,7.78,11.48s9.85,4.66,15.67,5.18a85.39,85.39,0,0,0,8.95.24c3-.05,6.15-.16,9.32-.48a51.21,51.21,0,0,0,19-5.31,32.58,32.58,0,0,0,8.2-6.32,28.06,28.06,0,0,0,5.71-8.83,25.42,25.42,0,0,0,1.37-5.17,20.91,20.91,0,0,0,0-5.36,21.69,21.69,0,0,0-3.76-9.84,26,26,0,0,0-7.33-7.17,28.79,28.79,0,0,0-9.14-4,33.34,33.34,0,0,0-16.21.59c-6.81-7.38-14.43-16.17-22.46-25.65-1.91-2.32-3.86-4.68-5.81-7.07l2.67,0,18.52.13,19.12.05,19.12-.05c6.3,0,12.51-.09,18.52-.13Z"/><path class="cls-1" d="M408.86,502.1q.74,1.27.73,5.45,0,5.49-1.42,7.29t-5.73,1.8h-6.51v-8.55h1.57V492.83h-1.57v-8.18h6q4.5,0,5.92,1.62c.95,1.08,1.42,3.34,1.42,6.8,0,2.54-.26,4.26-.76,5.16a4.36,4.36,0,0,1-3.18,1.82C407.21,500.57,408.38,501.25,408.86,502.1Zm-6.16,6c1.5,0,2.25-1.13,2.25-3.38,0-1.87-.76-2.81-2.27-2.81H402v6.19Zm.12-9.7c1.23,0,1.85-.94,1.85-2.82s-.66-2.74-2-2.74H402v5.56Z"/><path class="cls-3" d="M405,504.71c0,2.25-.75,3.38-2.25,3.38H402V501.9h.71C404.19,501.9,405,502.84,405,504.71Z"/><path class="cls-3" d="M404.67,495.57c0,1.88-.62,2.82-1.85,2.82H402v-5.56h.73C404,492.83,404.67,493.75,404.67,495.57Z"/><path class="cls-1" d="M392.57,371.85a20.91,20.91,0,0,1,0,5.36,25.42,25.42,0,0,1-1.37,5.17,28.06,28.06,0,0,1-5.71,8.83,32.58,32.58,0,0,1-8.2,6.32,51.21,51.21,0,0,1-19,5.31c-3.17.32-6.29.43-9.32.48a85.39,85.39,0,0,1-8.95-.24c-5.82-.52-11.44-2.08-15.67-5.18s-7.09-7.28-7.78-11.48a12.71,12.71,0,0,1,.29-5.87A14.28,14.28,0,0,1,319,376.1c.09-.13.18-.25.28-.37l.42.37c-.08.11-.15.22-.22.33a13.15,13.15,0,0,0-1.82,4.32,11.82,11.82,0,0,0-.08,5.07c0,.12.05.25.08.37.84,3.85,3.64,7.64,7.66,10.3s9.27,4,14.87,4.37a87,87,0,0,0,8.71,0c3-.11,6-.29,9.1-.67A48.59,48.59,0,0,0,375.87,395a27.86,27.86,0,0,0,12.5-13.7,22.18,22.18,0,0,0,1.21-4.5,18.24,18.24,0,0,0,.07-4.61,18.72,18.72,0,0,0-3.24-8.54,24.11,24.11,0,0,0-6.49-6.48,26.11,26.11,0,0,0-8.2-3.75,31.25,31.25,0,0,0-13.81,0c-.39-.44-.8-.88-1.21-1.33-.19-.21-.39-.42-.57-.63a33.34,33.34,0,0,1,16.21-.59,28.79,28.79,0,0,1,9.14,4,26,26,0,0,1,7.33,7.17A21.69,21.69,0,0,1,392.57,371.85Z"/><path class="cls-5" d="M380,376.61c-.26-.29-.77-.82-1.49-1.56l-4.84-5c-1-1.07-2.22-2.23-3.46-3.54l-4-4.24-4.55-4.82c-1.2-1.31-2.45-2.68-3.75-4.08a31.25,31.25,0,0,1,13.81,0,26.11,26.11,0,0,1,8.2,3.75,24.11,24.11,0,0,1,6.49,6.48,18.72,18.72,0,0,1,3.24,8.54,18.24,18.24,0,0,1-.07,4.61,22.18,22.18,0,0,1-1.21,4.5,27.86,27.86,0,0,1-12.5,13.7A48.59,48.59,0,0,1,358,400.22c-3.06.38-6.1.56-9.1.67a87,87,0,0,1-8.71,0c-5.6-.33-10.86-1.63-14.87-4.37s-6.82-6.45-7.66-10.3c0-.12-.06-.25-.08-.37a11.82,11.82,0,0,1,.08-5.07,13.15,13.15,0,0,1,1.82-4.32c.07-.11.14-.22.22-.33,1.05.95,2.07,1.87,3.06,2.74.13.13.27.24.4.36l2.1,1.86c3.62,3.22,6.73,5.81,8.86,7.66l2.52,2.11.88.73-.77-.85-2.23-2.41c-2-2-4.68-5-8.07-8.48l-2.07-2.13-.45-.46-2.81-2.86-.29-.29c-1.91-1.92-3.93-3.93-6-6s-4.36-4.34-6.66-6.53l-6.94-6.68-5-4.71-2-1.9-1-.89c-.44-.41-.87-.82-1.3-1.21l1.31.16q1.51.17,3,.27c1.67.12,3.26.18,4.77.19a73.66,73.66,0,0,0,10.71-.7c1.29-.17,2.28-.36,3-.49l1-.19-1.06,0c-.69,0-1.7.08-3,.07a95.59,95.59,0,0,1-10.59-.44c-1.54-.14-3.17-.33-4.86-.58-1-.14-1.95-.3-3-.48-1.52-.27-3.07-.58-4.66-.94-.72-.16-1.44-.34-2.17-.52-1-.24-2-.51-3-.8-1.67-.48-3.35-1-5-1.62a60.64,60.64,0,0,1-7.9-3.29,27.63,27.63,0,0,1-6.87-4.66,16.4,16.4,0,0,1-4.32-6.47,18.79,18.79,0,0,1-1.08-4.62q0-2.18-.09-4.26a29.37,29.37,0,0,1,.79-5.31c.51-2.08,1.1-4,1.68-5.63h0c.37-1,.74-2,1.08-2.83.21-.54.42-1.05.62-1.52l1.14-2.77c.2-.49.33-.8.37-.92-.08.12-.25.41-.51.85-.35.6-.87,1.47-1.52,2.59-.17.31-.35.65-.55,1q-1.6-2.75-3.3-5.6c-2.16-3.63-4.36-7.41-6.67-11.21l-.38-.64c-.17-.26-.33-.53-.48-.8-2-3.33-4.05-6.72-6.1-10.09l-7-11.48-6.89-11.07c-2.26-3.58-4.44-7-6.52-10.32l-5.34-8.32-.56-.88-1.63-2.52c-2.53-3.88-4.75-7.21-6.48-9.85l2.23-.13.94-.06c3.38,0,7-.2,10.94-.58,1.25-.12,2.54-.26,3.84-.43q3.38-.43,6.93-1.11a112.89,112.89,0,0,0,19.47-5.52c.61,1.21,1.26,2.53,2,4l2.69,5.18,3.08,5.88c1.11,2.06,2.32,4.2,3.56,6.44s2.54,4.58,3.94,7,2.85,4.85,4.35,7.38l2.29,3.83,2.42,3.89c1.65,2.61,3.29,5.3,5,8,3.32,5,6.68,10.19,10.28,15.35l.75,1.07c.37.54.73,1.07,1.11,1.6,3.48,5,7.17,10,10.8,15,4.19,5.42,8.3,10.89,12.57,16.11,1,1.32,2.08,2.62,3.13,3.9.69.83,1.37,1.65,2.06,2.46,2.51,3,5,5.93,7.48,8.83,8,9.12,15.64,17.5,22.56,24.52l1.23,1.23.59.6c1.59,1.62,3.11,3.17,4.59,4.63l4.78,4.61,4.21,4,3.63,3.36,5.14,4.68Z"/><path class="cls-1" d="M387.38,64.3l2.79,1.18-2.85-1-8.17-3c-1.77-.64-3.69-1.42-5.83-2.12l-7-2.2-7.92-2.5c-2.81-.81-5.79-1.55-8.89-2.39L344.79,51c-1.61-.41-3.24-.92-4.94-1.25L329.4,47.45c-1.8-.38-3.61-.82-5.46-1.17l-5.64-1c-3.8-.63-7.67-1.37-11.63-1.94-7.95-1-16.14-2.13-24.54-2.63-8.37-.84-16.91-.87-25.44-1.18-7.14.13-14.28.07-21.33.46-.73-.74-1.38-1.4-1.88-2l-.64-.75c7.87-.58,15.88-.52,23.87-.7,8.6.34,17.22.41,25.65,1.29,8.47.51,16.71,1.86,24.7,2.91,4,.63,7.87,1.43,11.69,2.12L324.41,44c1.86.38,3.67.86,5.47,1.28l10.46,2.53c1.7.37,3.32.93,4.93,1.39L350,50.58c3.09.93,6.06,1.77,8.85,2.68l7.85,2.81,6.9,2.48c2.12.8,4,1.65,5.75,2.36Z"/><path class="cls-1" d="M380.25,509.75v6.61a3.83,3.83,0,0,1-1.95.59,3.06,3.06,0,0,1-2.95-2.25c-.53,1.5-1.42,2.25-2.65,2.25q-3.33,0-3.33-8a6.81,6.81,0,0,1,3.84-6.3q1.95-1.05,2-2.28c0-1-.39-1.52-1.17-1.52s-1.24.61-1.24,1.83a7.44,7.44,0,0,0,.11,1.12h-3.21a16.63,16.63,0,0,1-.35-3.6q0-5.75,4.88-5.75,4.51,0,4.52,5.93v8.7c0,1.9.33,2.86,1,2.86A1.23,1.23,0,0,0,380.25,509.75Zm-4.9-2.65V505q-2.87,1.41-2.86,3.31c0,1.09.46,1.64,1.38,1.64S375.35,509,375.35,507.1Z"/><path class="cls-1" d="M378.5,375.05c.72.74,1.23,1.27,1.49,1.56l-1.6-1.44-5.14-4.68-3.63-3.36-4.21-4-4.78-4.61c-1.48-1.46-3-3-4.59-4.63.61-.17,1.24-.32,1.87-.45,1.3,1.4,2.55,2.77,3.75,4.08l4.55,4.82,4,4.24c1.24,1.31,2.42,2.47,3.46,3.54Z"/><path class="cls-3" d="M375.35,505v2.06c0,1.93-.5,2.89-1.48,2.89s-1.38-.55-1.38-1.64Q372.49,506.45,375.35,505Z"/><path class="cls-1" d="M374.24,17.42l2.47,1.09-2.53-.94c-1.78-.64-4.33-1.71-7.69-2.77a213.9,213.9,0,0,0-28.08-7.59,239.75,239.75,0,0,0-40.77-4.44c-7.5-.18-15.26.11-23.11.62s-15.8,1.62-23.69,3-15.68,3.19-23.27,5.29S212.62,16.24,205.63,19,192,24.59,185.84,27.73c-3.11,1.48-6,3.13-8.89,4.65s-5.51,3.2-8.11,4.7q-3,1.85-5.77,3.65c-1.87.69-3.67,1.39-5.4,2.07v0c3.09-2.3,6.5-4.71,10.24-7.14,2.59-1.58,5.23-3.31,8.06-5s5.74-3.36,8.85-4.93c6.12-3.29,12.82-6.3,19.83-9.23s14.47-5.37,22.12-7.65,15.57-4,23.54-5.46,16-2.32,24-2.91,15.81-.63,23.4-.37a219.63,219.63,0,0,1,41.06,5.4,198.16,198.16,0,0,1,27.91,8.72C370,15.48,372.5,16.69,374.24,17.42Z"/><path class="cls-3" d="M374,498.9c.78,0,1.17.51,1.17,1.52q0,1.23-2,2.28l-.35-.85a7.44,7.44,0,0,1-.11-1.12C372.75,499.51,373.16,498.9,374,498.9Z"/><path class="cls-1" d="M356.7,352.07c.41.45.82.89,1.21,1.33-.63.13-1.26.28-1.87.45l-.59-.6L354.22,352c.62-.21,1.26-.41,1.91-.58C356.31,351.65,356.51,351.86,356.7,352.07Z"/><path class="cls-1" d="M356.13,351.44c-.65.17-1.29.37-1.91.58-6.92-7-14.58-15.4-22.56-24.52-2.44-2.9-5-5.82-7.48-8.83l3.68.05c1.95,2.39,3.9,4.75,5.81,7.07C341.7,335.27,349.32,344.06,356.13,351.44Z"/><path class="cls-1" d="M353.69,509.92v6.72H348v-6.72h1v-7.67l0-1.05c0-1.53-.36-2.3-1.08-2.3q-1.84,0-1.85,4.36v6.66h1.2v6.72h-5.68v-6.72h1.27V499.23h-1.27v-6.4h4.48v2.91q1.26-3.24,3.42-3.24,2.88,0,2.88,4.95v12.47Z"/><path class="cls-3" d="M349,503.1v6.82h-1v6.72h-.77v-6.72h-1.2v-6.66q0-4.36,1.85-4.36c.72,0,1.08.77,1.08,2.3l0,1.05Z"/><polygon class="cls-1" points="340.43 509.92 340.43 516.64 334.43 516.64 334.43 509.92 335.69 509.92 335.69 499.23 334.43 499.23 334.43 492.83 339.04 492.83 339.04 509.92 340.43 509.92"/><rect class="cls-1" x="335.48" y="484.65" width="3.35" height="5.37"/><path class="cls-1" d="M336.7,390.71l.77.85-.88-.73-2.52-2.11c-2.13-1.85-5.24-4.44-8.86-7.66l-2.1-1.86.53-.66.69-.85,2.07,2.13c3.39,3.46,6.12,6.44,8.07,8.48Z"/><path class="cls-1" d="M325.78,316.16c.69.86,1.39,1.71,2.08,2.56l-3.68-.05c-.69-.81-1.37-1.63-2.06-2.46Z"/><path class="cls-1" d="M325.78,316.16l-3.66,0c-1.05-1.28-2.1-2.58-3.13-3.9-4.27-5.22-8.38-10.69-12.57-16.11-3.63-5-7.32-10-10.8-15,0-1.76-.06-3.48-.09-5.15q.66.94,1.35,1.89c3.81,5.52,7.91,11,11.94,16.46s8.21,10.88,12.44,16.09Q323.51,313.37,325.78,316.16Z"/><path class="cls-1" d="M323.88,377.23l.45.46-.69.85-.53.66c-.13-.12-.27-.23-.4-.36l.47-.66Z"/><path class="cls-1" d="M323.88,377.23l-.7.95-.47.66c-1-.87-2-1.79-3.06-2.74a10.84,10.84,0,0,1,1.42-1.73Z"/><path class="cls-1" d="M320.78,374.08l.29.29a10.84,10.84,0,0,0-1.42,1.73l-.42-.37A10.74,10.74,0,0,1,320.78,374.08Z"/><path class="cls-1" d="M320.78,374.08a10.74,10.74,0,0,0-1.55,1.65c-2-1.82-4.13-3.74-6.3-5.74s-4.54-4.15-6.84-6.34l-7-6.61-2.91-2.8c0-1.36,0-2.72,0-4.08l5,4.71,6.94,6.68c2.3,2.19,4.5,4.41,6.66,6.53S318.87,372.16,320.78,374.08Z"/><path class="cls-1" d="M318.89,509.92v6.72h-4v-2.2a2.87,2.87,0,0,0-.85.91,2.91,2.91,0,0,1-2.6,1.6Q308,517,308,508.6v-6.77q0-9.33,3.38-9.33c1.26,0,2.23.78,2.9,2.32V490h-1.36v-5.37h4.71v25.27Zm-4.71-4.17c0-4.5-.43-6.79-1.27-6.85s-1.36,1-1.36,3.05l0,2.81v2.6c0,2.17.46,3.24,1.38,3.19S314.18,508.9,314.18,505.75Z"/><path class="cls-1" d="M314.59,345.43l1.06,0-1,.19c-.68.13-1.67.32-3,.49a73.66,73.66,0,0,1-10.71.7c-1.51,0-3.1-.07-4.77-.19,0-.71,0-1.41,0-2.11,1.69.25,3.32.44,4.86.58a95.59,95.59,0,0,0,10.59.44C312.89,345.51,313.9,345.46,314.59,345.43Z"/><path class="cls-3" d="M312.91,498.9c.84.06,1.27,2.35,1.27,6.85,0,3.15-.43,4.75-1.27,4.8s-1.38-1-1.38-3.19v-2.6l0-2.81C311.55,499.85,312,498.84,312.91,498.9Z"/><path class="cls-1" d="M311.19,124.23a72.71,72.71,0,0,1,.57,14.16,71.18,71.18,0,0,1-2.13,14.12c-.53,2.33-1.33,4.59-2.07,6.86s-1.72,4.45-2.77,6.58a78.92,78.92,0,0,1-7.1,12.23,92.26,92.26,0,0,1-19,19.71,95.42,95.42,0,0,1-10.9,7.25c-.91.56-1.85,1.06-2.79,1.55s-1.86,1-2.79,1.45c-1.9.87-3.75,1.8-5.64,2.54l-1.86.76c-.1-.18-.19-.36-.29-.53l-.79-1.39c.69-.29,1.37-.58,2.06-.89,1.84-.76,3.63-1.69,5.47-2.57.91-.47,1.8-1,2.71-1.46s1.81-1,2.7-1.55a95.31,95.31,0,0,0,10.5-7.23,89.66,89.66,0,0,0,18.24-19.29,76.42,76.42,0,0,0,6.8-11.83c1-2.05,1.81-4.2,2.64-6.34s1.46-4.34,2-6.58a69.19,69.19,0,0,0,2.09-13.55,70.21,70.21,0,0,0-.5-13.61,72.15,72.15,0,0,0-3-13,65.3,65.3,0,0,0-5.42-11.88c-4.35-7.42-10.33-13.38-16.38-18.61s-12.05-9.89-17.58-14.21c-11.12-8.57-20.25-16-26.1-21.75-1.46-1.44-2.77-2.73-3.81-3.93l-1-1.13a2.17,2.17,0,0,1,.36,0l.91.91c1.09,1.15,2.45,2.37,4,3.75,6,5.56,15.42,12.49,26.74,20.8,5.65,4.17,11.79,8.68,18,13.88,1.58,1.27,3.08,2.68,4.65,4,.77.7,1.51,1.45,2.27,2.18s1.54,1.46,2.25,2.27,1.46,1.59,2.19,2.4,1.36,1.7,2.05,2.56l1,1.31.93,1.38c.6.93,1.27,1.83,1.83,2.8A69.18,69.18,0,0,1,308,110.66,70.27,70.27,0,0,1,311.19,124.23Z"/><path class="cls-5" d="M308.32,124.62a70.21,70.21,0,0,1,.5,13.61,69.19,69.19,0,0,1-2.09,13.55c-.51,2.24-1.27,4.4-2,6.58s-1.63,4.29-2.64,6.34a76.42,76.42,0,0,1-6.8,11.83,89.66,89.66,0,0,1-18.24,19.29,95.31,95.31,0,0,1-10.5,7.23c-.89.55-1.79,1.06-2.7,1.55s-1.8,1-2.71,1.46c-1.84.88-3.63,1.81-5.47,2.57-.69.31-1.37.6-2.06.89l-.44.18a109.12,109.12,0,0,1-18.85,5.79,132.6,132.6,0,0,1-25.25,2.93h-.69l-2.8,0a158.29,158.29,0,0,1-15.8-22.52c-3.18-5.34-6.19-11-9.21-16.83s-6-11.79-8.95-17.75l-9-17.76-8.78-17.16-8.28-16-7.5-14.31c-2.65-5.06-5.09-9.61-7.2-13.55l5.49-8.25c5.43-8.18,9.86-15.09,13-19.91l5.3-1.57c2.82-.76,5.82-1.45,8.93-2.24l4.76-1.19c1.62-.39,3.25-.87,5-1.17l10.5-2.08c1.8-.35,3.61-.76,5.47-1.07l5.65-.86c3.82-.56,7.7-1.22,11.67-1.72,8-.81,16.18-1.88,24.58-2.19,1.26-.1,2.52-.19,3.78-.25l1,1.13c1,1.2,2.35,2.49,3.81,3.93,5.85,5.78,15,13.18,26.1,21.75,5.53,4.32,11.55,9,17.58,14.21s12,11.19,16.38,18.61a65.3,65.3,0,0,1,5.42,11.88A72.15,72.15,0,0,1,308.32,124.62Zm-23.77,3.14a37.89,37.89,0,0,0,.66-7.41,39.7,39.7,0,0,0-1-7.1A37,37,0,0,0,282,107a38.56,38.56,0,0,0-2.93-5.17,31.09,31.09,0,0,0-6-6.42c-.81-.69-1.53-1.12-2-1.45l-.7-.47.6.6c.39.4,1,.94,1.68,1.74a34.83,34.83,0,0,1,4.95,6.91,36.22,36.22,0,0,1,2.33,5.12,33.43,33.43,0,0,1,1.69,6,35.46,35.46,0,0,1,.64,6.58,35.08,35.08,0,0,1-.69,6.76,34.29,34.29,0,0,1-2.08,6.46A36.89,36.89,0,0,1,268.17,148a34.7,34.7,0,0,1-7.31,4.34,23.62,23.62,0,0,1-2.24.92l-.81.32.85-.16a22.75,22.75,0,0,0,2.39-.53,30.7,30.7,0,0,0,8.09-3.47,34.89,34.89,0,0,0,9.31-8.43,36,36,0,0,0,3.73-6.13A37.46,37.46,0,0,0,284.55,127.76ZM259.34,117a30,30,0,0,0-.18-4.84,31.1,31.1,0,0,0-1-4.55,25.84,25.84,0,0,0-3.7-7.28,23,23,0,0,0-3.93-4.15c-.52-.44-1-.73-1.26-1l-.46-.32.35.44c.22.28.57.68,1,1.23a30.64,30.64,0,0,1,2.9,4.65,29.15,29.15,0,0,1,1.45,3.3,27.27,27.27,0,0,1,1.17,3.8,29.12,29.12,0,0,1,.69,4.16,28.29,28.29,0,0,1,.06,4.32,27.88,27.88,0,0,1-.61,4.29,34.4,34.4,0,0,1-1.2,4,33.64,33.64,0,0,1-3.49,6.71,29.62,29.62,0,0,1-3.45,4.25c-.44.51-.84.85-1.1,1.11l-.37.37.47-.24c.31-.18.8-.41,1.37-.79a23.08,23.08,0,0,0,4.42-3.62,25.38,25.38,0,0,0,4.58-6.76,25.68,25.68,0,0,0,1.59-4.39A31.56,31.56,0,0,0,259.34,117Zm-23.55,6.72c0-1.2,0-2.41-.2-3.59s-.38-2.33-.59-3.43-.58-2.15-1-3.11a26.31,26.31,0,0,0-1.18-2.64c-.21-.4-.4-.78-.61-1.13l-.64-1c-.4-.6-.77-1.11-1.1-1.51l-.77-.91-.28-.32.14.4c.09.26.23.64.41,1.12a13.23,13.23,0,0,1,.6,1.71c.1.34.21.69.33,1.06l.32,1.18a24.34,24.34,0,0,1,.64,2.64c.24.93.35,2,.52,3s.28,2.1.3,3.19.07,2.19.08,3.3,0,2.21-.19,3.29-.24,2.14-.4,3.18a46.7,46.7,0,0,1-1.33,5.57q-.19.6-.36,1.17l-.37,1a12.49,12.49,0,0,1-.65,1.7l-.44,1.1-.15.4.29-.31.8-.89c.34-.39.73-.89,1.15-1.48l.67-.94c.22-.34.42-.72.64-1.11a25,25,0,0,0,2.33-5.68,26,26,0,0,0,.7-3.41C235.67,126.1,235.71,124.89,235.79,123.68Zm-48.19,9.58a13.64,13.64,0,0,0,.82-9.38,13,13,0,0,0-5-7.15,13.36,13.36,0,0,0-7.32-2.44,12.58,12.58,0,0,0-5.87,1.22l.15-.11,2.13-1.73,2-1.74,1.84-1.69c.57-.56,1.1-1.09,1.6-1.57,1-1,1.73-1.91,2.28-2.5l.61-.74.21-.27-.31.14-.87.41c-.71.39-1.78.89-3,1.6L175,108.48l-2.09,1.37-2.18,1.54-2.2,1.65-2.13,1.73c-.72.56-1.37,1.18-2,1.74-1.29,1.14-2.46,2.26-3.43,3.26s-1.73,1.91-2.29,2.5l-.6.74-.22.27.32-.14.86-.41c.72-.39,1.79-.88,3-1.6s2.57-1.56,4-2.54l.35-.25a13.29,13.29,0,0,0-3.65,6.41,12.69,12.69,0,0,0,1,8.68,13.8,13.8,0,0,0,6.89,6.44,13.55,13.55,0,0,0,9.79,0A13,13,0,0,0,187.6,133.26Z"/><path class="cls-1" d="M306.63,498c0,2.43-.09,4.47-.26,6.14h-2.72a15.22,15.22,0,0,0,.19-1.92c0-2.23-.38-3.35-1.13-3.35-.54,0-.82,1-.82,3.05v8h1.41v6.72h-6v-6.72h1.24V499.23H297.3v-6.4h4.59v2.88c.5-2.14,1.28-3.21,2.32-3.21C305.82,492.5,306.63,494.35,306.63,498Z"/><path class="cls-1" d="M296.17,354.24v.19c0,7.12,0,14.25-.05,21.26s-.09,13.92-.13,20.6-.14,13.14-.2,19.26c-.05,3.36-.1,6.63-.15,9.77l-1.94,0c-.05-3.15-.09-6.43-.15-9.81-.06-6.12-.13-12.58-.2-19.26s-.08-13.58-.13-20.6,0-14.14-.05-21.26c0-1,0-2.05,0-3.08Z"/><path class="cls-1" d="M296.16,350.16c0,1.36,0,2.72,0,4.08l-3-2.89v-4l1,.89Z"/><path class="cls-1" d="M296.15,344.48c0,.7,0,1.4,0,2.11q-1.46-.11-3-.27V344C294.2,344.18,295.18,344.34,296.15,344.48Z"/><polygon class="cls-1" points="296.15 509.92 296.15 516.64 290.15 516.64 290.15 509.92 291.42 509.92 291.42 499.23 290.15 499.23 290.15 492.83 294.77 492.83 294.77 509.92 296.15 509.92"/><path class="cls-1" d="M295.64,425.32c0,.75,0,1.48,0,2.21l-1.88,0c0-.7,0-1.42,0-2.14Z"/><path class="cls-1" d="M295.53,276.06c0,1.67.06,3.39.09,5.15-.38-.53-.74-1.06-1.11-1.6l-.75-1.07c0-.84,0-1.67.05-2.49s0-1.59,0-2.37C294.4,274.47,295,275.27,295.53,276.06Z"/><rect class="cls-1" x="291.21" y="484.65" width="3.35" height="5.37"/><path class="cls-1" d="M293.85,273.68c0,.78,0,1.57,0,2.37s0,1.65-.05,2.49c-3.6-5.16-7-10.36-10.28-15.35-1.73-2.71-3.37-5.4-5-8L276,251.29l-2.29-3.83c-1.5-2.53-2.95-5-4.35-7.38s-2.67-4.74-3.94-7-2.45-4.38-3.56-6.44l-3.08-5.88-2.69-5.18c-.71-1.42-1.36-2.74-2-4l.56-.22c.65,1.16,1.35,2.44,2.13,3.78l2.95,5,3.35,5.72,3.8,6.28c1.33,2.18,2.67,4.49,4.14,6.82l4.55,7.22,2.37,3.77,2.5,3.82c1.7,2.56,3.4,5.21,5.18,7.86C288.35,265.64,291,269.66,293.85,273.68Z"/><path class="cls-1" d="M293.7,425.36c0,.72,0,1.44,0,2.14l-12.28-.21c-9.23-.17-16.93-.44-22.32-.57l-1.72-.05c0-.15,0-.31,0-.48l1.71-.05c5.39-.13,13.09-.4,22.32-.57Z"/><path class="cls-2" d="M293.55,415.55c.06,3.38.1,6.66.15,9.81l-12.25.21c-9.23.17-16.93.44-22.32.57l-1.71.05c.15-3.84.37-8.95.52-14.93.08-3.42.17-7.11.26-11s.13-8,.2-12.3.09-8.67.13-13.16,0-9,.05-13.57,0-9.11-.05-13.58-.09-8.89-.12-13.16c0-1.49,0-3-.07-4.41a19.73,19.73,0,0,0,3.23,4.18,30.59,30.59,0,0,0,7.53,5.27,65.28,65.28,0,0,0,8.33,3.35,69.83,69.83,0,0,0,8.34,2.25l1.29.26,5.09,5,1,1c0,1,0,2,0,3.08,0,7.12,0,14.25.05,21.26s.09,13.92.13,20.6S293.49,409.43,293.55,415.55Z"/><path class="cls-1" d="M293.19,344v2.32l-1.31-.16-3.35-3.1C290.12,343.42,291.67,343.73,293.19,344Z"/><path class="cls-1" d="M293.18,347.37v4l-1-1-5.09-5c1.64.32,3.25.58,4.82.79C292.31,346.55,292.74,347,293.18,347.37Z"/><path class="cls-1" d="M288.53,343.06l3.35,3.1c-1.57-.21-3.18-.47-4.82-.79l-1.57-1.54-2.09-2.09c1,.29,2,.56,3,.8C287.09,342.72,287.81,342.9,288.53,343.06Z"/><path class="cls-1" d="M287.71,502.1q.74,1.27.73,5.45,0,5.49-1.42,7.29t-5.73,1.8h-6.51v-8.55h1.57V492.83h-1.57v-8.18h6c3,0,5,.54,5.92,1.62s1.42,3.34,1.42,6.8c0,2.54-.25,4.26-.76,5.16a4.36,4.36,0,0,1-3.18,1.82C286.07,500.57,287.23,501.25,287.71,502.1Zm-6.16,6c1.5,0,2.25-1.13,2.25-3.38,0-1.87-.76-2.81-2.27-2.81h-.71v6.19Zm.12-9.7c1.23,0,1.85-.94,1.85-2.82s-.66-2.74-2-2.74h-.73v5.56Z"/><path class="cls-1" d="M287.06,345.37l-1.29-.26a69.83,69.83,0,0,1-8.34-2.25,65.28,65.28,0,0,1-8.33-3.35,30.59,30.59,0,0,1-7.53-5.27,19.73,19.73,0,0,1-3.23-4.18c0-3.09-.09-6.1-.15-9a18.79,18.79,0,0,0,1.08,4.62,16.4,16.4,0,0,0,4.32,6.47,27.63,27.63,0,0,0,6.87,4.66,60.64,60.64,0,0,0,7.9,3.29c1.69.58,3.37,1.14,5,1.62l2.09,2.09Z"/><path class="cls-1" d="M285.21,120.35a37.89,37.89,0,0,1-.66,7.41,37.46,37.46,0,0,1-2.37,7,36,36,0,0,1-3.73,6.13,34.89,34.89,0,0,1-9.31,8.43,30.7,30.7,0,0,1-8.09,3.47,22.75,22.75,0,0,1-2.39.53l-.85.16.81-.32a23.62,23.62,0,0,0,2.24-.92,34.7,34.7,0,0,0,7.31-4.34,36.89,36.89,0,0,0,11.37-14.34,34.29,34.29,0,0,0,2.08-6.46,35.08,35.08,0,0,0,.69-6.76,35.46,35.46,0,0,0-.64-6.58,33.43,33.43,0,0,0-1.69-6,36.22,36.22,0,0,0-2.33-5.12,34.83,34.83,0,0,0-4.95-6.91C272,95,271.41,94.44,271,94l-.6-.6.7.47c.45.33,1.17.76,2,1.45a31.09,31.09,0,0,1,6,6.42A38.56,38.56,0,0,1,282,107a37,37,0,0,1,2.21,6.3A39.7,39.7,0,0,1,285.21,120.35Z"/><path class="cls-3" d="M283.8,504.71c0,2.25-.75,3.38-2.25,3.38h-.73V501.9h.71C283,501.9,283.8,502.84,283.8,504.71Z"/><path class="cls-3" d="M283.52,495.57c0,1.88-.62,2.82-1.85,2.82h-.85v-5.56h.73C282.86,492.83,283.52,493.75,283.52,495.57Z"/><path class="cls-1" d="M271.17,503.1c0,1.79,0,3.58-.05,5.34s-.09,3.5-.13,5.18c-.1,3.36-.26,6.5-.46,9.19,0,.21,0,.42,0,.63l-1.28,0h-.34c0-.22,0-.44-.05-.67-.2-2.69-.36-5.83-.46-9.19,0-1.68-.13-3.41-.13-5.18s0-3.55-.05-5.34,0-3.59.05-5.35.09-3.5.13-5.18.14-3.3.2-4.84.18-3,.26-4.34.17-2.31.27-3.31l1.19,0c.09,1,.18,2.09.26,3.28.08,1.34.16,2.8.26,4.34s.13,3.16.2,4.84.08,3.42.13,5.18S271.15,501.31,271.17,503.1Z"/><path class="cls-1" d="M270.48,523.44c0,.22,0,.43,0,.64l-1.24,0h-.3c0-.18,0-.37,0-.56h.34Z"/><path class="cls-1" d="M270.2,479.41c0,.23,0,.46.07.7l-1.19,0,.06-.64Z"/><path class="cls-1" d="M263.78,297.83c0,.12-.17.43-.37.92l-1.14,2.77c-.2.47-.41,1-.62,1.52l-.45-.77c.2-.35.38-.69.55-1,.65-1.12,1.17-2,1.52-2.59C263.53,298.24,263.7,298,263.78,297.83Z"/><path class="cls-1" d="M261.2,302.27l.45.77c-.34.85-.71,1.8-1.08,2.83l-.7-1.1C260.34,303.85,260.79,303,261.2,302.27Z"/><path class="cls-1" d="M260.57,305.87h0c-.58,1.67-1.17,3.55-1.68,5.63a29.37,29.37,0,0,0-.79,5.31c-.05-2-.1-3.86-.15-5.67,0-.66,0-1.32-.05-2,.63-1.65,1.32-3.12,2-4.42Z"/><path class="cls-1" d="M261.2,302.27c-.41.75-.86,1.58-1.33,2.5l-2.24-3.57c0-.62-.05-1.21-.07-1.79-.3-.46-.6-.91-.89-1.37,0,.5,0,1-.06,1.55-.31-.52-.64-1-1-1.55-1.5-2.4-3-4.85-4.59-7.34q-.1-2.83-.18-5,0-.44,0-.84l.38.64c2.31,3.8,4.51,7.58,6.67,11.21Q259.59,299.52,261.2,302.27Z"/><path class="cls-1" d="M259.16,112.12a30,30,0,0,1,.18,4.84,31.56,31.56,0,0,1-.78,4.78,25.68,25.68,0,0,1-1.59,4.39,25.38,25.38,0,0,1-4.58,6.76,23.08,23.08,0,0,1-4.42,3.62c-.57.38-1.06.61-1.37.79l-.47.24.37-.37c.26-.26.66-.6,1.1-1.11a29.62,29.62,0,0,0,3.45-4.25,33.64,33.64,0,0,0,3.49-6.71,34.4,34.4,0,0,0,1.2-4,27.88,27.88,0,0,0,.61-4.29,28.29,28.29,0,0,0-.06-4.32,29.12,29.12,0,0,0-.69-4.16,27.27,27.27,0,0,0-1.17-3.8,29.15,29.15,0,0,0-1.45-3.3,30.64,30.64,0,0,0-2.9-4.65c-.38-.55-.73-1-1-1.23l-.35-.44.46.32c.29.22.74.51,1.26,1a23,23,0,0,1,3.93,4.15,25.84,25.84,0,0,1,3.7,7.28A31.1,31.1,0,0,1,259.16,112.12Z"/><path class="cls-1" d="M258.53,347.63c0,4.47,0,9,.05,13.58s0,9.09-.05,13.57-.09,8.89-.13,13.16-.14,8.39-.2,12.3-.18,7.6-.26,11c-.15,6-.37,11.09-.52,14.93h-.68c-.13-3.85-.36-9-.51-14.95-.08-3.42-.17-7.11-.26-11s-.13-8-.2-12.3-.09-8.67-.13-13.16,0-9,0-13.57,0-9.11,0-13.58.09-8.89.12-13.16c.05-4.07.11-8,.19-11.75a20.59,20.59,0,0,0,.82,3.84,17.07,17.07,0,0,0,1.57,3.5c0,1.45.05,2.92.07,4.41C258.44,338.74,258.53,343.14,258.53,347.63Z"/><path class="cls-1" d="M258.19,321.08c.06,2.88.11,5.89.15,9a17.07,17.07,0,0,1-1.57-3.5,20.59,20.59,0,0,1-.82-3.84q.07-3.57.15-6.89a32.19,32.19,0,0,1,1.14-4.78q.31-1,.66-1.86c0,.64,0,1.3.05,2,.05,1.81.1,3.71.15,5.67,0,.5-.05,1-.05,1.51A23.35,23.35,0,0,0,258.19,321.08Z"/><path class="cls-1" d="M258.1,316.82q0,2.08.09,4.26a23.35,23.35,0,0,1-.14-2.75C258.05,317.82,258.06,317.32,258.1,316.82Z"/><path class="cls-1" d="M258.06,482.18c0,2.68,0,5.39,0,8.09,0,4.9,0,9.79-.05,14.62s-.09,9.56-.12,14.16c-.11,9.18-.27,17.76-.46,25.11s-.44,13.47-.57,17.76c0,.69-.06,1.34-.09,1.93h-.42c0-.6-.05-1.25-.08-2-.13-4.29-.4-10.41-.57-17.76s-.35-15.93-.46-25.11c0-4.6-.12-9.34-.12-14.16s0-9.72,0-14.62,0-9.81,0-14.63.09-9.56.13-14.16.14-9,.2-13.24.18-8.2.26-11.87.19-6.84.29-9.75l.74,0c0,.38,0,.75,0,1.1.1,2,.17,3.55.21,4.63s.09,1.63.09,1.63,0-.57.08-1.63c0-.61.06-1.38.1-2.29.06,2,.11,4.07.17,6.28.08,3.67.17,7.65.26,11.87s.13,8.65.2,13.24.09,9.34.13,14.16Q258,478.9,258.06,482.18Z"/><path class="cls-1" d="M257.63,301.2c.09,2.4.19,5.08.27,8q-.34.9-.66,1.86a32.19,32.19,0,0,0-1.14,4.78q.06-2.41.12-4.68c.11-4.36.26-8.27.39-11.56C257,300.13,257.29,300.67,257.63,301.2Z"/><path class="cls-1" d="M257.56,299.41c0,.58.05,1.17.07,1.79-.34-.53-.67-1.07-1-1.61,0-.53,0-1.05.06-1.55C257,298.5,257.26,299,257.56,299.41Z"/><path class="cls-1" d="M257.13,426.2h.29c0,.17,0,.33,0,.48h-.26C257.15,426.5,257.14,426.35,257.13,426.2Z"/><path class="cls-1" d="M257.41,426.67c0,.23,0,.45,0,.66h-.22c0-.23,0-.46,0-.68Z"/><path class="cls-1" d="M257.39,427.35c0,.14,0,.27,0,.4,0,.85-.08,1.63-.11,2.32,0-.94-.06-1.85-.1-2.73Z"/><path class="cls-1" d="M257.27,430.07v0c0,.91-.08,1.68-.1,2.29-.06,1.06-.08,1.63-.08,1.63s0-.57-.09-1.63-.11-2.64-.21-4.63c0-.35,0-.72,0-1.1h.39c0,.22,0,.45,0,.68C257.21,428.22,257.24,429.13,257.27,430.07Z"/><path class="cls-1" d="M257.13,426.2c0,.15,0,.3,0,.46h-.39c0-.15,0-.29,0-.44Z"/><path class="cls-1" d="M256.59,563.86h.2c0,.1,0,.2,0,.3h-.4a2.44,2.44,0,0,0,0-.27Z"/><path class="cls-1" d="M256.74,426.21c0,.15,0,.29,0,.44l-.74,0c0-.13,0-.26,0-.38Z"/><path class="cls-1" d="M256.78,564.15c0,1.11-.09,2-.11,2.74-.06,1.15-.08,1.76-.08,1.76s0-.61-.09-1.76c0-.72-.07-1.64-.12-2.75Z"/><path class="cls-1" d="M256.37,563.87a2.44,2.44,0,0,1,0,.27l-1.87,0-2.42-.09,2.42-.08Z"/><path class="cls-1" d="M256.1,315.83q-.08,3.32-.15,6.89a24,24,0,0,1-.13-4.46C255.88,317.43,256,316.62,256.1,315.83Z"/><path class="cls-1" d="M254.43,210.91c.1.17.19.35.29.53l-.56.22-.24-.48-.72-1.48.44-.18Z"/><path class="cls-1" d="M253.92,211.18l.24.48a112.89,112.89,0,0,1-19.47,5.52q-3.56.67-6.93,1.11H220l-7.95.24-2.77.08a2.14,2.14,0,0,1-.13-.19,132.6,132.6,0,0,0,25.25-2.93,109.12,109.12,0,0,0,18.85-5.79Z"/><path class="cls-1" d="M251.06,290.7c-.3-.48-.6-1-.89-1.45.05-1.31.09-2.51.12-3.59,0-.58.05-1.13.08-1.64.15.27.31.54.48.8q0,.41,0,.84Q251,287.87,251.06,290.7Z"/><path class="cls-1" d="M250.89,426.42v0h0Z"/><path class="cls-1" d="M250.37,284c0,.51-.06,1.06-.08,1.64,0,1.08-.07,2.28-.12,3.59-.48-.76-.94-1.52-1.41-2.28l-7-11.48-7-11.53-6.67-11.21-6.17-10.53-5.46-9.47c-.56-1-1.11-1.93-1.63-2.85q1.86,1.53,3.65,2.84l5.34,8.32c2.08,3.28,4.26,6.74,6.52,10.32l6.89,11.07,7,11.48C246.32,277.3,248.35,280.69,250.37,284Z"/><path class="cls-1" d="M235.59,120.09c.16,1.18.15,2.39.2,3.59s-.12,2.42-.31,3.59a26,26,0,0,1-.7,3.41,25,25,0,0,1-2.33,5.68c-.22.39-.42.77-.64,1.11l-.67.94c-.42.59-.81,1.09-1.15,1.48l-.8.89-.29.31.15-.4.44-1.1a12.49,12.49,0,0,0,.65-1.7l.37-1q.17-.57.36-1.17a46.7,46.7,0,0,0,1.33-5.57c.16-1,.31-2.1.4-3.18s.14-2.19.19-3.29,0-2.22-.08-3.3-.18-2.15-.3-3.19-.28-2-.52-3a24.34,24.34,0,0,0-.64-2.64l-.32-1.18c-.12-.37-.23-.72-.33-1.06a13.23,13.23,0,0,0-.6-1.71c-.18-.48-.32-.86-.41-1.12l-.14-.4.28.32.77.91c.33.4.7.91,1.1,1.51l.64,1c.21.35.4.73.61,1.13a26.31,26.31,0,0,1,1.18,2.64c.39,1,.65,2,1,3.11S235.48,118.9,235.59,120.09Z"/><path class="cls-1" d="M235.36,40a2.17,2.17,0,0,0-.36,0,23.68,23.68,0,0,1-1.64-1.93l-.66-.84h.14l.64.75C234,38.64,234.63,39.3,235.36,40Z"/><path class="cls-1" d="M233.36,38.13A23.68,23.68,0,0,0,235,40.06c-1.26.06-2.52.15-3.78.25-8.4.31-16.61,1.38-24.58,2.19-4,.5-7.85,1.16-11.67,1.72l-5.65.86c-1.86.31-3.67.72-5.47,1.07l-10.5,2.08c-1.71.3-3.34.78-5,1.17l-4.76,1.19c-3.11.79-6.11,1.48-8.93,2.24l-5.3,1.57.09-.13,1-1.52,3.83-1.3c2.8-.86,5.79-1.64,8.89-2.52L168,47.62c1.62-.43,3.25-1,5-1.3L183.41,44c1.8-.38,3.63-.83,5.49-1.17l5.67-1c3.83-.62,7.73-1.36,11.73-1.93,8-.91,16.27-2.06,24.74-2.47l1.66-.13Z"/><path class="cls-1" d="M220,218.29h7.81c-1.3.17-2.59.31-3.84.43l-3.95.15-7,.43c-1.14,0-2.24,0-3.3,0l-.45-.69,2.77-.08Z"/><path class="cls-1" d="M220,218.87l3.95-.15c-3.9.38-7.56.55-10.94.58Z"/><path class="cls-1" d="M217.92,231.86l.56.88q-1.78-1.31-3.65-2.84l-2.26-4c1.25,1.22,2.5,2.38,3.72,3.45Z"/><path class="cls-1" d="M216.29,229.34c-1.22-1.07-2.47-2.23-3.72-3.45-1.35-2.41-2.53-4.55-3.54-6.35l.78,0C211.54,222.13,213.76,225.46,216.29,229.34Z"/><path class="cls-1" d="M213,219.3l-.94.06-2.23.13a2.14,2.14,0,0,1-.13-.19C210.74,219.31,211.84,219.32,213,219.3Z"/><path class="cls-1" d="M209.68,219.3a2.14,2.14,0,0,0,.13.19l-.78,0a2.15,2.15,0,0,0-.14-.26Z"/><path class="cls-1" d="M209.23,218.61l.45.69-.79,0c-.13-.22-.25-.44-.36-.65Z"/><path class="cls-1" d="M209.1,218.42a2.14,2.14,0,0,0,.13.19l-.7,0-.09-.15,0-.05h.69Z"/><path class="cls-1" d="M208.89,219.28a2.15,2.15,0,0,1,.14.26l-1.5.09c-.28,0-.57,0-.85.06l-.42-.48C207.11,219.25,208,219.27,208.89,219.28Z"/><path class="cls-1" d="M208.53,218.63c.11.21.23.43.36.65-.9,0-1.78,0-2.63-.07l-.42-.49,1.64,0Z"/><path class="cls-1" d="M208.44,218.48l.09.15-1.05,0-1.64,0-.23-.27,2.8,0Z"/><path class="cls-1" d="M206.26,219.21l.42.48c-.79,0-1.59.1-2.41.18l-.71-.78Q204.87,219.17,206.26,219.21Z"/><path class="cls-1" d="M205.84,218.72l.42.49q-1.39,0-2.7-.12l-.23-.25Z"/><path class="cls-1" d="M205.61,218.45l.23.27-2.51.12-.38-.43C203.8,218.43,204.69,218.45,205.61,218.45Z"/><path class="cls-1" d="M203.56,219.09l.71.78c-.52,0-1,.08-1.57.13l-10.61.93c-3.11.28-6.35.68-9.7,1.05l2.44-1.55.64-.41c2.22-.2,4.39-.39,6.51-.52l9.28-.54C202,219,202.77,219.06,203.56,219.09Z"/><path class="cls-1" d="M205.61,218.45c-.92,0-1.81,0-2.66,0a150,150,0,0,1-15.4-21.11c-3.29-5.37-6.48-11-9.52-16.86s-6-11.8-9.06-17.75l-8.9-17.8-8.55-17.27-7.93-16.2-7-14.54c-2.37-4.91-4.49-9.4-6.33-13.32l.66-1c2.11,3.94,4.55,8.49,7.2,13.55l7.5,14.31,8.28,16,8.78,17.16,9,17.76c3,6,5.94,11.94,8.95,17.75s6,11.49,9.21,16.83A158.29,158.29,0,0,0,205.61,218.45Z"/><path class="cls-1" d="M203.33,218.84l.23.25c-.79,0-1.56-.08-2.3-.13l1.37-.08Z"/><path class="cls-6" d="M203,218.41l.38.43-.7,0-1.37.08-9.28.54c-2.12.13-4.29.32-6.51.52l-.3,0c-1.63.15-3.29.31-5,.45-7.83.72-16.27,1.69-25.14,3-9.75,1.37-20,3.1-30.6,5.25l-1.28.26-.87.17h0c-1.82.36-3.65.74-5.49,1.12-2.56.56-5.13,1.17-7.72,1.76l-1.44.34.37-.42-2.32.59c-3,.77-6,1.47-8.9,2.31l-8.91,2.51c-6,1.6-11.86,3.55-17.8,5.36l-4.43,1.4-4.4,1.5-8.78,3c-5.83,2-11.55,4.26-17.29,6.35-5.37,2.12-10.72,4.32-16.08,6.47l-7.94,3.45-2,.86-.9.4-.1.05-.48.22.07-.1.25-.45,2.21-3.49,4.45-7,8.58-13.51,15.65-24.77c1.28-2,2.52-4,3.75-6-.83,1.07-1.52,2-2.06,2.69L39,215.91c.12-.17.6-.9,1.43-2.15,1-1.42,2.34-3.51,4.12-6.16l4.38-6.5L49,201c5.07-8.12,9.44-15.1,12.89-20.64l1.48.38,1.06.26a38,38,0,0,0,5.93,1,23.74,23.74,0,0,0,6.58-.33,15.73,15.73,0,0,0,6.47-2.82,12.21,12.21,0,0,0,4.12-5.92,15.37,15.37,0,0,0,.44-6.8,19,19,0,0,0-2-5.89,25.25,25.25,0,0,0-3.18-4.41c-.36-.4-.72-.79-1.08-1.13.92-1.31,1.83-2.63,2.75-4l11.23-16.21,11.14-16.26,10.73-15.8,10-14.82,2.72-4.07c1.84,3.92,4,8.41,6.33,13.32l7,14.54,7.93,16.2,8.55,17.27,8.9,17.8c3,6,6,11.91,9.06,17.75s6.23,11.49,9.52,16.86A150,150,0,0,0,203,218.41Z"/><path class="cls-1" d="M188.74,609.47c0,.27,0,.53,0,.78h-.58c0-.26,0-.53,0-.8Z"/><path class="cls-1" d="M188.42,123.88a13.64,13.64,0,0,1-.82,9.38,13,13,0,0,1-7.21,6.63,13.55,13.55,0,0,1-9.79,0,13.8,13.8,0,0,1-6.89-6.44,12.69,12.69,0,0,1-1-8.68,13.29,13.29,0,0,1,3.65-6.41l.11-.07q-.23.22-.42.45a13,13,0,0,0-1.7,2.58,6.54,6.54,0,0,0-.32.74l-.1.23a2.48,2.48,0,0,0,.13-.22c.1-.15.23-.38.43-.67a13.14,13.14,0,0,1,2-2.25,12.27,12.27,0,0,1,3.86-2.4,11.86,11.86,0,0,1,3.69-.79,10.88,10.88,0,0,0-1.39.35,11.32,11.32,0,0,0-7.73,8.92,10.26,10.26,0,0,0,1.18,7,11,11,0,0,0,5.63,5,10.63,10.63,0,0,0,7.65-.09A10.1,10.1,0,0,0,185,132a11.35,11.35,0,0,0,.87-7.47,11,11,0,0,0-3.82-6A11.93,11.93,0,0,0,176,116a14.44,14.44,0,0,0-2-.07,12.15,12.15,0,0,1,3.1-.19,11.21,11.21,0,0,1,2.94.55c.58.18.92.32,1,.35a9.86,9.86,0,0,0-.93-.5,11.32,11.32,0,0,0-2.93-1,13.46,13.46,0,0,0-4.86,0,11.72,11.72,0,0,0-3.2,1.13l1.1-.83a12.58,12.58,0,0,1,5.87-1.22,13.36,13.36,0,0,1,7.32,2.44A13,13,0,0,1,188.42,123.88Z"/><path class="cls-7" d="M185.86,124.54A11.35,11.35,0,0,1,185,132a10.1,10.1,0,0,1-5.67,5.08,10.63,10.63,0,0,1-7.65.09,11,11,0,0,1-5.63-5,10.26,10.26,0,0,1-1.18-7,11.32,11.32,0,0,1,7.73-8.92,10.88,10.88,0,0,1,1.39-.35h0a14.44,14.44,0,0,1,2,.07,11.93,11.93,0,0,1,6.08,2.51A11,11,0,0,1,185.86,124.54Zm-7.18,6.21a6.81,6.81,0,0,0-.47-4.17,5.54,5.54,0,0,0-2.79-2.83,5.71,5.71,0,0,0-3.38-.35,5.81,5.81,0,0,0-3.46,2,5.54,5.54,0,0,0-1.14,1.25,5.83,5.83,0,0,0-1,3.27,5.61,5.61,0,0,0,1.63,3.65,7.12,7.12,0,0,0,3.75,1.9,7.34,7.34,0,0,0,2.24,0,5.54,5.54,0,0,0,3.78-2.64A7.36,7.36,0,0,0,178.68,130.75Z"/><path class="cls-1" d="M185.17,220l.3,0-.64.41L182.39,222l-.68.07,3-1.76Z"/><path class="cls-1" d="M185.17,220l-.42.25-3,1.76-1.34.15c-7.89.93-16.42,2.08-25.38,3.51l1.63-1.47-1.45,0-.12-.84c8.87-1.27,17.31-2.24,25.14-3C181.88,220.35,183.54,220.19,185.17,220Z"/><path class="cls-1" d="M181.71,222.05l.68-.07-6.59,4.17L143.44,246.4l-21.68,13.43L97.51,274.74l-26,15.87L44.69,306.93l-29.4,17.74L1.81,332.81,24.54,309C38.18,294.68,51,281.41,62,270.07L88.6,242.74l3.05-3.1.31-.09-.34.4-3.6,4.3c-6.18,6.71-14.7,16-24.81,27C52.49,282.86,40,296.36,26.46,310.77l-7.54,8-.19.21,0,0-.06.08-.09.11-.1.14.33-.22,24.36-14.8,26.91-16.23,26.1-15.65,24.45-14.57,22-13,32.94-19.28Z"/><path class="cls-6" d="M180.37,222.2l1.34-.15-6.22,3.6-32.94,19.28-22,13L96.15,272.49l-26.1,15.65L43.14,304.37l-24.36,14.8-.33.22.1-.14.09-.11.06-.08,0,0,.19-.21,7.54-8c13.49-14.41,26-27.91,36.75-39.52,10.11-11,18.63-20.29,24.81-27l1-1.11q1.84-2,3.39-3.72h0l5.27-1.5.93-.27-1,1-1.07,1.1L86.2,251.38,71.07,268.46c-5.14,5.81-10.36,11.72-15.6,17.63L50,292.27l0,.05,3-1.82,6.93-3,8.11-3.78c8.45-4.05,16.59-8.45,24.37-12.86s15.07-9.08,21.92-13.61c3.38-2.36,6.72-4.55,9.83-6.85l4.63-3.35c1.48-1.13,3-2.23,4.37-3.33,8.75-6.64,16.05-12.89,21.74-18C164,224.28,172.48,223.13,180.37,222.2Z"/><path class="cls-1" d="M181.05,105.16l-.21.27-.61.74c-.55.59-1.3,1.51-2.28,2.5-.5.48-1,1-1.6,1.57l-1.84,1.69-2,1.74-2.13,1.73-.15.11-.39.2a13.22,13.22,0,0,0-3,2.19l-.07.06-.17.14-.25.24-.35.25c-1.43,1-2.8,1.84-4,2.54s-2.27,1.21-3,1.6l-.86.41-.32.14L158,123l.6-.74c.56-.59,1.3-1.52,2.29-2.5s2.14-2.12,3.43-3.26c.66-.56,1.31-1.18,2-1.74l2.13-1.73,2.2-1.65,2.18-1.54,2.09-1.37,1.91-1.17c1.2-.71,2.27-1.21,3-1.6l.87-.41Z"/><path class="cls-1" d="M180.1,116.15a9.86,9.86,0,0,1,.93.5c-.07,0-.41-.17-1-.35a11.21,11.21,0,0,0-2.94-.55,12.15,12.15,0,0,0-3.1.19h0a11.86,11.86,0,0,0-3.69.79,12.27,12.27,0,0,0-3.86,2.4,13.14,13.14,0,0,0-2,2.25c-.2.29-.33.52-.43.67a2.48,2.48,0,0,1-.13.22l.1-.23a6.54,6.54,0,0,1,.32-.74,13,13,0,0,1,1.7-2.58q.19-.22.42-.45c.57-.39,1.16-.78,1.72-1.22l1-.71a11.72,11.72,0,0,1,3.2-1.13,13.46,13.46,0,0,1,4.86,0A11.32,11.32,0,0,1,180.1,116.15Z"/><path class="cls-1" d="M178.21,126.58a6.81,6.81,0,0,1,.47,4.17,7.36,7.36,0,0,1-.81,2.09,5.54,5.54,0,0,1-3.78,2.64,7.34,7.34,0,0,1-2.24,0,7.12,7.12,0,0,1-3.75-1.9,5.61,5.61,0,0,1-1.63-3.65,5.83,5.83,0,0,1,1-3.27,5.54,5.54,0,0,1,1.14-1.25,4.34,4.34,0,0,0-.4.53,4.63,4.63,0,0,0-.49,1.16c-.06.28-.1.43-.1.43l.24-.36a4.54,4.54,0,0,1,.8-.85,4.68,4.68,0,0,1,1.94-1,5.64,5.64,0,0,0-1.63,2.2,3.88,3.88,0,0,0-.25,2.23,3.18,3.18,0,0,0,1.21,1.93,4.3,4.3,0,0,0,2.34,1,4,4,0,0,0,1.25-.06,3.29,3.29,0,0,0,1.06-.47,3.85,3.85,0,0,0,.82-.84,4.43,4.43,0,0,0,.48-1.16,4.75,4.75,0,0,0-.08-2.54,3.44,3.44,0,0,0-1.38-1.83,4.29,4.29,0,0,0-2.18-.64,6.06,6.06,0,0,0-1.63.22,3.89,3.89,0,0,1,.93-.56,4.12,4.12,0,0,1,1.11-.35l.43-.06-.42-.1a4,4,0,0,0-1.27,0,5.57,5.57,0,0,0-2.78,1.24,5.81,5.81,0,0,1,3.46-2,5.71,5.71,0,0,1,3.38.35A5.54,5.54,0,0,1,178.21,126.58Z"/><path class="cls-8" d="M175.77,127.58a4.75,4.75,0,0,1,.08,2.54,4.43,4.43,0,0,1-.48,1.16,3.85,3.85,0,0,1-.82.84,3.29,3.29,0,0,1-1.06.47,4,4,0,0,1-1.25.06,4.3,4.3,0,0,1-2.34-1,3.18,3.18,0,0,1-1.21-1.93,3.88,3.88,0,0,1,.25-2.23,5.64,5.64,0,0,1,1.63-2.2h0a6.06,6.06,0,0,1,1.63-.22,4.29,4.29,0,0,1,2.18.64A3.44,3.44,0,0,1,175.77,127.58Z"/><path class="cls-1" d="M172.63,124.26l.42.1-.43.06a4.12,4.12,0,0,0-1.11.35,3.89,3.89,0,0,0-.93.56h0a4.68,4.68,0,0,0-1.94,1,4.54,4.54,0,0,0-.8.85l-.24.36s0-.15.1-.43a4.63,4.63,0,0,1,.49-1.16,4.34,4.34,0,0,1,.4-.53,5.57,5.57,0,0,1,2.78-1.24A4,4,0,0,1,172.63,124.26Z"/><path class="cls-1" d="M170.21,115.51l-1.1.83a10.68,10.68,0,0,0-2.29,1.56,13.22,13.22,0,0,1,3-2.19Z"/><path class="cls-1" d="M169.11,116.34l-1,.71c-.56.44-1.15.83-1.72,1.22.1-.1.2-.21.31-.31l.07-.06A10.68,10.68,0,0,1,169.11,116.34Z"/><path class="cls-1" d="M166.75,118c-.11.1-.21.21-.31.31l-.11.07.25-.24Z"/><path class="cls-1" d="M163.07,40.73c-1.64,1.06-3.21,2.11-4.7,3.13l-1.75.62,1-1.68C159.4,42.12,161.2,41.42,163.07,40.73Z"/><path class="cls-1" d="M158,42.27l-.32.5-.06,0-.05,0Z"/><path class="cls-1" d="M157.62,42.82l.06,0v0Z"/><path class="cls-1" d="M157.62,42.82l0,0-1,1.68-.31.12,1.25-1.73h0Z"/><path class="cls-1" d="M157.56,42.87l-1.25,1.73-2,.72C155.36,44.51,156.44,43.7,157.56,42.87Z"/><path class="cls-1" d="M155.17,224.29l1.45,0L155,225.71l-2,.31Z"/><path class="cls-1" d="M156.62,44.48l-.6,1-4.17,6.64-1.21.42c2.18-3,3.94-5.48,5.16-7.22l.51-.69Z"/><path class="cls-1" d="M155.05,223.45l.12.84L153,226c-9,1.46-18.39,3.2-28.06,5.26l-4.39.94c.78-1,1.49-1.88,2.16-2.73l.42-.53,1.28-.26C135,226.55,145.3,224.82,155.05,223.45Z"/><path class="cls-1" d="M153,226l2-.31c-5.69,5.09-13,11.34-21.74,18-1.42,1.1-2.89,2.2-4.37,3.33l-4.63,3.35c-3.11,2.3-6.45,4.49-9.83,6.85-6.85,4.53-14.16,9.16-21.92,13.61s-15.92,8.81-24.37,12.86L60,287.47l-6.93,3,3.26-2L58.74,287l4.38-5,3.57-1.64c8.37-4,16.54-8.17,24.3-12.47s15.1-8.76,22-13.09c3.4-2.25,6.76-4.34,9.92-6.55,1.6-1.07,3.15-2.13,4.69-3.17l4.45-3.17C140.27,236.06,147.34,230.62,153,226Z"/><path class="cls-1" d="M149.7,53l.77-.26-1,1.52-.09.13-.91.27.53-.73Z"/><path class="cls-1" d="M148.49,54.67l.91-.27c-3.16,4.82-7.59,11.73-13,19.91l-5.49,8.25-1.07-2L135,73.34C140.43,65.68,145.13,59.31,148.49,54.67Z"/><path class="cls-9" d="M153,226c-5.7,4.6-12.77,10-21,15.91l-4.45,3.17c-1.54,1-3.09,2.1-4.69,3.17-3.16,2.21-6.52,4.3-9.92,6.55-6.9,4.33-14.25,8.8-22,13.09s-15.93,8.46-24.3,12.47L63.12,282l10.14-11.57L85.85,255.9l0-.05,1-1.29c1.15-1.45,2.83-3.59,5-6.29l8.91-11.22,3.22-.81.13-.13,5.59-1.36c2.57-.62,5.11-1.26,7.65-1.84l2-.44,1.17-.25,4.39-.94C134.65,229.22,144.06,227.48,153,226Z"/><path class="cls-1" d="M130.89,82.56l-.66,1-1-2.15c.2-.28.4-.57.61-.85Z"/><path class="cls-1" d="M129.21,81.41l1,2.15-2.72,4.07-10,14.82-10.73,15.8L95.68,134.51,84.45,150.72c-.92,1.33-1.83,2.65-2.75,4-.73-.75-1.45-1.4-2.12-2,.82-1.2,1.65-2.42,2.49-3.63l11.14-16.27c3.76-5.43,7.52-10.86,11.23-16.2L115.38,101l10.29-14.59Z"/><path class="cls-1" d="M123.17,229l-.42.53c-.67.85-1.38,1.76-2.16,2.73l-1.17.25q1.56-1.78,2.88-3.33h0Z"/><path class="cls-1" d="M122.3,229.14q-1.32,1.54-2.88,3.33l-2,.44c-2.54.58-5.08,1.22-7.65,1.84l-5.59,1.36,1.5-1.48,2-2.27,1.44-.34c2.59-.59,5.16-1.2,7.72-1.76C118.65,229.88,120.48,229.5,122.3,229.14Z"/><path class="cls-1" d="M108,231.94l-.37.42-6.36,1.48-1.93.51-.47.13-2,.52-.6.16-.3.08-.46.12-2.1,2.47L92,239.3l-.33.34-2.81.8c-5.93,1.61-11.78,3.55-17.69,5.38l-4.41,1.37-4.37,1.49-8.74,2.95c-5.82,2-11.52,4.2-17.23,6.28-5.36,2.06-10.7,4.21-16,6.32L0,272.89l1.13-1.72c6.93-10.6,13.63-20.85,20-30.56,5.73-8.67,11.14-16.89,16.14-24.46,9.88-14.81,18.13-27.21,24-36l.66.18C58.46,185.88,54.09,192.86,49,201l-.08.12-4.38,6.5c-1.78,2.65-3.17,4.74-4.12,6.16-.83,1.25-1.31,2-1.43,2.15l1.59-2.06c.54-.72,1.23-1.62,2.06-2.69-1.23,1.94-2.47,3.93-3.75,6L23.26,241.9l-8.58,13.51-4.45,7L8,265.87l-.25.45-.07.1.48-.22.1-.05.9-.4,2-.86,7.94-3.45c5.36-2.15,10.71-4.35,16.08-6.47,5.74-2.09,11.46-4.33,17.29-6.35l8.78-3,4.4-1.5,4.43-1.4c5.94-1.81,11.83-3.76,17.8-5.36l8.91-2.51c3-.84,6-1.54,8.9-2.31Z"/><path class="cls-1" d="M107.65,232.36l-2,2.27-1.5,1.48-2.16.52-1.09.29,2.07-2.61-1.43.33-2.76,2.84-2.44.65q1.47-1.83,3-3.78l1.93-.51Z"/><path class="cls-1" d="M104.15,236.11l-.13.13-3.22.81.1-.13,1.09-.29Z"/><path class="cls-1" d="M101.54,234.64l1.43-.33-2.07,2.61-2.12.56Z"/><path class="cls-1" d="M100.9,236.92l-.1.13-2.17.59.15-.16Z"/><path class="cls-1" d="M98.89,234.48l.47-.13q-1.55,2-3,3.78l-.5.14Q97.39,236.34,98.89,234.48Z"/><path class="cls-1" d="M98.63,237.64l2.17-.59-8.91,11.22c-2.15,2.7-3.83,4.84-5,6.29l-1,1.29,0,.05L73.26,270.45,63.12,282l-1.39.64c-.46.41-.93.81-1.41,1.22l-8,6.88,0,.07.76-.33-3,1.82,0-.05,5.45-6.18c5.24-5.91,10.46-11.82,15.6-17.63L86.2,251.38l10.38-11.63,1.07-1.1Z"/><path class="cls-1" d="M96.88,235l2-.52q-1.5,1.86-3,3.79l-1.62.43-.12,0Z"/><path class="cls-1" d="M96.34,238.13l2.44-.65-.15.16-.93.27-5.27,1.5.27-.3,1.4-.38.12,0,1.62-.43Z"/><path class="cls-1" d="M96.28,235.16l.6-.16-2.78,3.73-1.4.38,3.52-3.88Z"/><path class="cls-1" d="M96.28,235.16l-.06.07-3.52,3.88-.45.11,1.17-1.39c1-1,1.84-1.86,2.56-2.59Z"/><path class="cls-1" d="M95.52,235.36l.46-.12c-.72.73-1.57,1.6-2.56,2.59Z"/><path class="cls-1" d="M93.42,237.83l-1.17,1.39h0l-.25.07Z"/><path class="cls-1" d="M92.7,239.11l-.27.3h0l-.46.13.27-.32h0Z"/><path class="cls-1" d="M92,239.55l.46-.13q-1.55,1.68-3.39,3.72l-1,1.11,3.6-4.3Z"/><path class="cls-1" d="M92.23,239.23l-.27.32-.31.09.33-.34Z"/><path class="cls-1" d="M88,166.11a15.37,15.37,0,0,1-.44,6.8,12.21,12.21,0,0,1-4.12,5.92A15.73,15.73,0,0,1,77,181.65a23.74,23.74,0,0,1-6.58.33,38,38,0,0,1-5.93-1l-1.06-.26,1.39-2h.09a43.09,43.09,0,0,0,5.64.57,25.08,25.08,0,0,0,5.85-.52,12.79,12.79,0,0,0,5.23-2.36A9.19,9.19,0,0,0,84.8,172a12.57,12.57,0,0,0,.58-5.55A16.91,16.91,0,0,0,84,161.22a24.22,24.22,0,0,0-2.52-4.34c-.22-.31-.44-.6-.66-.89l.91-1.31c.36.34.72.73,1.08,1.13A25.25,25.25,0,0,1,86,160.22,19,19,0,0,1,88,166.11Z"/><path class="cls-7" d="M85.38,166.45A12.57,12.57,0,0,1,84.8,172a9.19,9.19,0,0,1-3.21,4.46,12.79,12.79,0,0,1-5.23,2.36,25.08,25.08,0,0,1-5.85.52,43.09,43.09,0,0,1-5.64-.57h-.09c2.81-4,5.74-8.11,8.74-12.39,2.37-3.4,4.81-6.86,7.27-10.38.22.29.44.58.66.89A24.22,24.22,0,0,1,84,161.22,16.91,16.91,0,0,1,85.38,166.45Z"/><path class="cls-1" d="M81.7,154.68,80.79,156c-.64-.85-1.27-1.62-1.86-2.32l.65-1C80.25,153.28,81,153.93,81.7,154.68Z"/><path class="cls-1" d="M78.93,153.67c.59.7,1.22,1.47,1.86,2.32-2.46,3.52-4.9,7-7.27,10.38-3,4.28-5.93,8.42-8.74,12.39l-1.71-.27,4.47-7.21-.28-.07-4.83,7.18-.17,0c2.89-4.32,5.93-8.84,9.08-13.49C73.82,161.22,76.35,157.46,78.93,153.67Z"/><path class="cls-1" d="M67.26,171.21l.28.07-4.47,7.21-.64-.1Z"/><path class="cls-1" d="M64.78,178.76l-1.39,2-1.48-.38c.09-.13.17-.26.25-.39.31-.5.61-1,.91-1.46Z"/><path class="cls-1" d="M61.73,282.66l1.39-.64-4.38,5-2.39,1.51-3.26,2-.76.33,0-.07,8-6.88C60.8,283.47,61.27,283.07,61.73,282.66Z"/><path class="cls-1" d="M62.43,178.39l.64.1c-.3.47-.6,1-.91,1.46-.08.13-.16.26-.25.39l-.66-.18.36-.54Z"/><path class="cls-1" d="M62.43,178.39l-.82,1.23-.36.54-.17,0,1.18-1.76Z"/></g></g></svg>