<svg xmlns="http://www.w3.org/2000/svg" viewBox="0 0 368.32 189"><defs><style>.cls-1{fill:#15733a;stroke:#323233;stroke-width:5px;}.cls-1,.cls-2,.cls-4{stroke-miterlimit:10;}.cls-2{fill:#a03c3d;stroke:#231f20;}.cls-3{fill:#29272a;}.cls-4{fill:none;stroke:#cccccb;stroke-width:3px;}.cls-5{fill:#786f3b;}.cls-6{fill:#919191;}</style></defs><title>Asset 1</title><g id="Layer_2" data-name="Layer 2"><g id="Layer_1-2" data-name="Layer 1"><rect class="cls-1" x="2.5" y="4.57" width="363.32" height="181.19"/><polygon class="cls-2" points="58.42 26.59 58.23 26.59 12.14 26.59 34.82 54.95 58.42 26.59"/><polygon class="cls-2" points="49.65 16.24 19.94 16.24 12.14 26.59 58.42 26.59 49.65 16.24"/><polyline class="cls-2" points="20.02 16.58 19.86 16.4 27.11 26.52 34.27 16.37 42.02 26.33 49.45 16.46"/><polygon class="cls-2" points="34.82 54.78 27.11 26.52 42.02 26.52 34.82 54.78"/><polygon class="cls-2" points="357.42 147.59 357.23 147.59 311.14 147.59 333.82 175.95 357.42 147.59"/><polygon class="cls-2" points="348.65 137.24 318.94 137.24 311.14 147.59 357.42 147.59 348.65 137.24"/><polyline class="cls-2" points="319.02 137.58 318.86 137.4 326.11 147.52 333.27 137.37 341.01 147.33 348.45 137.46"/><polygon class="cls-2" points="333.82 175.78 326.11 147.52 341.01 147.52 333.82 175.78"/><path class="cls-3" d="M246.42,73.5a23.46,23.46,0,1,1,0,46.92h-3.54a58.2,58.2,0,0,0,3.12-9.21h.42a14.25,14.25,0,1,0,0-28.5h-35V73.5h35Z"/><path class="cls-3" d="M246.42,82.72a14.25,14.25,0,1,1,0,28.5H246a59.08,59.08,0,0,0-.06-28.5Z"/><path class="cls-3" d="M247.71,97.07A58.94,58.94,0,0,1,246,111.21a58.2,58.2,0,0,1-3.12,9.21,60,60,0,0,1-31.45,31.19V141.42a50.68,50.68,0,0,0,21.23-21,48.7,48.7,0,0,0,3.79-9.21,49.61,49.61,0,0,0-.07-28.5h9.56A58.72,58.72,0,0,1,247.71,97.07Z"/><path class="cls-3" d="M242.79,73.5H232.54a50.72,50.72,0,0,0-21.11-20.78A50.08,50.08,0,0,0,202.21,49a51.22,51.22,0,0,0-28.5-.07V39.41a60.58,60.58,0,0,1,28.5.06,59.25,59.25,0,0,1,9.21,3.07A60,60,0,0,1,242.79,73.5Z"/><path class="cls-3" d="M238.5,97.07a49.22,49.22,0,0,1-2.06,14.14h-25V82.72h25A49.32,49.32,0,0,1,238.5,97.07Z"/><path class="cls-3" d="M211.43,111.21h25a48.7,48.7,0,0,1-3.79,9.21H173.71v-9.21h37.71Z"/><path class="cls-3" d="M211.43,120.42h21.23a50.68,50.68,0,0,1-21.23,21Z"/><path class="cls-3" d="M232.54,73.5H211.43V52.72A50.72,50.72,0,0,1,232.54,73.5Z"/><path class="cls-3" d="M211.43,151.61v4.91a23.46,23.46,0,0,1-46.92,0v-4.81a59.58,59.58,0,0,0,9.21,3v1.78a14.25,14.25,0,0,0,28.5,0v-36.1h9.21v31.19Z"/><path class="cls-3" d="M211.43,73.5v37.71h-9.21V49a50.08,50.08,0,0,1,9.21,3.72Z"/><path class="cls-3" d="M211.43,37v5.56a59.25,59.25,0,0,0-9.21-3.07V37a14.25,14.25,0,0,0-28.5,0V73.5H164.5V37a23.46,23.46,0,0,1,46.92,0Z"/><path class="cls-3" d="M202.21,154.68v1.84a14.25,14.25,0,0,1-28.5,0v-1.78a60.58,60.58,0,0,0,28.5-.06Z"/><path class="cls-3" d="M202.21,145.14v9.54a60.58,60.58,0,0,1-28.5.06,59.94,59.94,0,0,1-40.9-34.32H143a50.66,50.66,0,0,0,21.47,21.13,50,50,0,0,0,9.21,3.66,51.22,51.22,0,0,0,28.5-.07Z"/><path class="cls-3" d="M202.21,120.42v24.72a51.22,51.22,0,0,1-28.5.07V120.42Z"/><path class="cls-3" d="M202.21,73.5v9.21h-62.9a48.88,48.88,0,0,1,3.84-9.21h59.06Z"/><rect class="cls-3" x="173.71" y="82.72" width="28.5" height="28.5"/><path class="cls-3" d="M202.21,49V73.5h-28.5V48.94a51.22,51.22,0,0,1,28.5.07Z"/><path class="cls-3" d="M202.21,37v2.49a60.58,60.58,0,0,0-28.5-.06V37a14.25,14.25,0,0,1,28.5,0Z"/><path class="cls-3" d="M173.71,111.21v34a50,50,0,0,1-9.21-3.66V82.72h9.21Z"/><path class="cls-3" d="M164.5,111.21v9.21H126.88a23.46,23.46,0,0,1,0-46.92h6a58.76,58.76,0,0,0-3.15,9.21h-2.88a14.25,14.25,0,1,0,0,28.5H164.5Z"/><path class="cls-3" d="M164.5,120.42v21.13A50.66,50.66,0,0,1,143,120.42Z"/><path class="cls-3" d="M164.5,82.72v28.5H139.25a49.61,49.61,0,0,1,.07-28.5Z"/><path class="cls-3" d="M164.5,52.6V73.5H143.15A50.68,50.68,0,0,1,164.5,52.6Z"/><path class="cls-3" d="M164.5,42.44V52.6a50.68,50.68,0,0,0-21.35,20.9,49.58,49.58,0,0,0-3.9,37.71H129.7a58.76,58.76,0,0,1,3.21-37.71A60,60,0,0,1,164.5,42.44Z"/><path class="cls-3" d="M126.88,82.72h2.88a59.08,59.08,0,0,0-.06,28.5h-2.82a14.25,14.25,0,1,1,0-28.5Z"/><line class="cls-4" x1="211.43" y1="111.21" x2="236.44" y2="111.21"/><line class="cls-4" x1="173.71" y1="111.21" x2="202.21" y2="111.21"/><line class="cls-4" x1="202.21" y1="120.42" x2="173.71" y2="120.42"/><line class="cls-4" x1="232.66" y1="120.42" x2="211.43" y2="120.42"/><line class="cls-4" x1="173.71" y1="73.5" x2="202.21" y2="73.5"/><line class="cls-4" x1="143.15" y1="73.5" x2="164.5" y2="73.5"/><line class="cls-4" x1="164.5" y1="82.72" x2="139.32" y2="82.72"/><line class="cls-4" x1="202.21" y1="82.72" x2="173.71" y2="82.72"/><line class="cls-4" x1="139.25" y1="111.21" x2="164.5" y2="111.21"/><path class="cls-4" d="M129.75,82.72h-2.88a14.25,14.25,0,1,0,0,28.5h2.82"/><path class="cls-4" d="M132.81,120.42h-5.94a23.46,23.46,0,0,1,0-46.92h6"/><line class="cls-4" x1="164.5" y1="120.42" x2="143.04" y2="120.42"/><line class="cls-4" x1="211.43" y1="73.5" x2="232.54" y2="73.5"/><line class="cls-4" x1="236.38" y1="82.72" x2="211.43" y2="82.72"/><path class="cls-4" d="M246,111.21h.42a14.25,14.25,0,1,0,0-28.5h-.48"/><path class="cls-4" d="M242.79,73.5h3.63a23.46,23.46,0,1,1,0,46.92h-3.54"/><polyline class="cls-4" points="164.5 141.55 164.5 120.42 164.5 111.21 164.5 82.72 173.72 82.72 173.72 111.21 173.72 120.42 173.72 145.21"/><polyline class="cls-4" points="211.43 52.72 211.43 73.5 211.43 82.72 211.43 111.21 202.21 111.21 202.21 82.72 202.21 73.5 202.21 49.01"/><polyline class="cls-4" points="202.21 145.14 202.21 120.42 211.43 120.42 211.43 141.43"/><path class="cls-4" d="M173.71,154.74v1.78a14.25,14.25,0,0,0,28.5,0v-1.84"/><path class="cls-4" d="M211.43,151.61v4.91a23.46,23.46,0,0,1-46.92,0v-4.81"/><polyline class="cls-4" points="173.72 48.94 173.72 73.5 164.5 73.5 164.5 52.6"/><path class="cls-4" d="M202.21,39.47V37a14.25,14.25,0,0,0-28.5,0v2.43"/><path class="cls-4" d="M164.5,42.44V37a23.46,23.46,0,0,1,46.92,0v5.56"/><path class="cls-4" d="M164.5,42.44V52.6a50.68,50.68,0,0,0-21.35,20.9,49.58,49.58,0,0,0-3.9,37.71H129.7a58.76,58.76,0,0,1,3.21-37.71A60,60,0,0,1,164.5,42.44Z"/><path class="cls-4" d="M202.21,145.14v9.54a60.58,60.58,0,0,1-28.5.06,59.94,59.94,0,0,1-40.9-34.32H143a50.66,50.66,0,0,0,21.47,21.13,50,50,0,0,0,9.21,3.66,51.22,51.22,0,0,0,28.5-.07Z"/><path class="cls-4" d="M245.94,82.72a58.64,58.64,0,0,1-3.06,37.71,60,60,0,0,1-31.45,31.19V141.42a50.68,50.68,0,0,0,21.23-21,48.7,48.7,0,0,0,3.79-9.21,49.61,49.61,0,0,0-.07-28.5Z"/><path class="cls-4" d="M242.79,73.5H232.54a50.72,50.72,0,0,0-21.11-20.78A50.08,50.08,0,0,0,202.21,49a51.22,51.22,0,0,0-28.5-.07V39.41a60.58,60.58,0,0,1,28.5.06,59.25,59.25,0,0,1,9.21,3.07A60,60,0,0,1,242.79,73.5Z"/><rect class="cls-5" x="144.16" y="1" width="88" height="188"/><rect class="cls-6" x="161.5" width="53" height="189"/></g></g></svg>