<svg xmlns="http://www.w3.org/2000/svg" viewBox="0 0 368.32 186.19"><defs><style>.cls-1{fill:#15733a;stroke:#323233;stroke-width:5px;}.cls-1,.cls-2,.cls-4{stroke-miterlimit:10;}.cls-2{fill:#a03c3d;stroke:#231f20;}.cls-3{fill:#29272a;}.cls-4{fill:none;stroke:#cccccb;stroke-width:3px;}</style></defs><title>Asset 1</title><g id="Layer_2" data-name="Layer 2"><g id="Layer_1-2" data-name="Layer 1"><rect class="cls-1" x="2.5" y="2.5" width="363.32" height="181.19"/><polygon class="cls-2" points="59.42 22.52 59.23 22.52 13.14 22.52 35.82 50.88 59.42 22.52"/><polygon class="cls-2" points="50.65 12.18 20.94 12.18 13.14 22.52 59.42 22.52 50.65 12.18"/><polyline class="cls-2" points="21.02 12.52 20.86 12.33 28.11 22.45 35.27 12.3 43.02 22.27 50.45 12.39"/><polygon class="cls-2" points="35.82 50.72 28.11 22.45 43.02 22.45 35.82 50.72"/><polygon class="cls-2" points="356.23 146.53 340 146.53 332.82 174.72 325.13 146.53 310.14 146.53 332.82 174.88 356.42 146.53 356.23 146.53"/><polygon class="cls-2" points="325.11 146.45 317.86 136.33 318.02 136.51 332.16 136.46 332.27 136.3 332.39 136.46 347.45 136.39 340.01 146.27 332.39 136.46 332.16 136.46 325.11 146.45 340.01 146.45 340 146.53 356.23 146.53 356.42 146.53 347.65 136.18 317.94 136.18 310.14 146.53 325.13 146.53 325.11 146.45"/><polygon class="cls-2" points="332.27 136.3 332.16 136.46 332.39 136.46 332.27 136.3"/><polygon class="cls-2" points="318.02 136.51 317.86 136.33 325.11 146.45 332.16 136.46 318.02 136.51"/><polygon class="cls-2" points="347.45 136.39 332.39 136.46 340.01 146.27 347.45 136.39"/><polygon class="cls-2" points="332.82 174.72 340 146.53 325.13 146.53 332.82 174.72"/><polygon class="cls-2" points="325.11 146.45 325.13 146.53 340 146.53 340.01 146.45 325.11 146.45"/><path class="cls-3" d="M246.42,69.44a23.46,23.46,0,1,1,0,46.92h-3.54a58.2,58.2,0,0,0,3.12-9.21h.42a14.25,14.25,0,1,0,0-28.5h-35V69.44h35Z"/><path class="cls-3" d="M246.42,78.65a14.25,14.25,0,1,1,0,28.5H246a59.08,59.08,0,0,0-.06-28.5Z"/><path class="cls-3" d="M247.71,93A58.94,58.94,0,0,1,246,107.14a58.2,58.2,0,0,1-3.12,9.21,60,60,0,0,1-31.45,31.19V137.36a50.68,50.68,0,0,0,21.23-21,48.7,48.7,0,0,0,3.79-9.21,49.61,49.61,0,0,0-.07-28.5h9.56A58.72,58.72,0,0,1,247.71,93Z"/><path class="cls-3" d="M242.79,69.44H232.54a50.72,50.72,0,0,0-21.11-20.78,50.08,50.08,0,0,0-9.21-3.72,51.22,51.22,0,0,0-28.5-.07V35.35a60.58,60.58,0,0,1,28.5.06,59.25,59.25,0,0,1,9.21,3.07A60,60,0,0,1,242.79,69.44Z"/><path class="cls-3" d="M238.5,93a49.22,49.22,0,0,1-2.06,14.14h-25V78.65h25A49.32,49.32,0,0,1,238.5,93Z"/><path class="cls-3" d="M211.43,107.14h25a48.7,48.7,0,0,1-3.79,9.21H173.71v-9.21h37.71Z"/><path class="cls-3" d="M211.43,116.36h21.23a50.68,50.68,0,0,1-21.23,21Z"/><path class="cls-3" d="M232.54,69.44H211.43V48.66A50.72,50.72,0,0,1,232.54,69.44Z"/><path class="cls-3" d="M211.43,147.54v4.91a23.46,23.46,0,0,1-46.92,0v-4.81a59.58,59.58,0,0,0,9.21,3v1.78a14.25,14.25,0,0,0,28.5,0v-36.1h9.21v31.19Z"/><path class="cls-3" d="M211.43,69.44v37.71h-9.21V44.94a50.08,50.08,0,0,1,9.21,3.72Z"/><path class="cls-3" d="M211.43,32.91v5.56a59.25,59.25,0,0,0-9.21-3.07V32.91a14.25,14.25,0,0,0-28.5,0V69.44H164.5V32.91a23.46,23.46,0,0,1,46.92,0Z"/><path class="cls-3" d="M202.21,150.62v1.84a14.25,14.25,0,0,1-28.5,0v-1.78a60.58,60.58,0,0,0,28.5-.06Z"/><path class="cls-3" d="M202.21,141.07v9.54a60.58,60.58,0,0,1-28.5.06,59.94,59.94,0,0,1-40.9-34.32H143a50.66,50.66,0,0,0,21.47,21.13,50,50,0,0,0,9.21,3.66,51.22,51.22,0,0,0,28.5-.07Z"/><path class="cls-3" d="M202.21,116.36v24.72a51.22,51.22,0,0,1-28.5.07V116.36Z"/><path class="cls-3" d="M202.21,69.44v9.21h-62.9a48.88,48.88,0,0,1,3.84-9.21h59.06Z"/><rect class="cls-3" x="173.71" y="78.65" width="28.5" height="28.5"/><path class="cls-3" d="M202.21,44.94V69.44h-28.5V44.87a51.22,51.22,0,0,1,28.5.07Z"/><path class="cls-3" d="M202.21,32.91V35.4a60.58,60.58,0,0,0-28.5-.06V32.91a14.25,14.25,0,0,1,28.5,0Z"/><path class="cls-3" d="M173.71,107.14v34a50,50,0,0,1-9.21-3.66V78.65h9.21Z"/><path class="cls-3" d="M164.5,107.14v9.21H126.88a23.46,23.46,0,0,1,0-46.92h6a58.76,58.76,0,0,0-3.15,9.21h-2.88a14.25,14.25,0,1,0,0,28.5H164.5Z"/><path class="cls-3" d="M164.5,116.36v21.13A50.66,50.66,0,0,1,143,116.36Z"/><path class="cls-3" d="M164.5,78.65v28.5H139.25a49.61,49.61,0,0,1,.07-28.5Z"/><path class="cls-3" d="M164.5,48.54v20.9H143.15A50.68,50.68,0,0,1,164.5,48.54Z"/><path class="cls-3" d="M164.5,38.37V48.54a50.68,50.68,0,0,0-21.35,20.9,49.58,49.58,0,0,0-3.9,37.71H129.7a58.76,58.76,0,0,1,3.21-37.71A60,60,0,0,1,164.5,38.37Z"/><path class="cls-3" d="M126.88,78.65h2.88a59.08,59.08,0,0,0-.06,28.5h-2.82a14.25,14.25,0,1,1,0-28.5Z"/><line class="cls-4" x1="211.43" y1="107.14" x2="236.44" y2="107.14"/><line class="cls-4" x1="173.71" y1="107.14" x2="202.21" y2="107.14"/><line class="cls-4" x1="202.21" y1="116.36" x2="173.71" y2="116.36"/><line class="cls-4" x1="232.66" y1="116.36" x2="211.43" y2="116.36"/><line class="cls-4" x1="173.71" y1="69.44" x2="202.21" y2="69.44"/><line class="cls-4" x1="143.15" y1="69.44" x2="164.5" y2="69.44"/><line class="cls-4" x1="164.5" y1="78.65" x2="139.32" y2="78.65"/><line class="cls-4" x1="202.21" y1="78.65" x2="173.71" y2="78.65"/><line class="cls-4" x1="139.25" y1="107.14" x2="164.5" y2="107.14"/><path class="cls-4" d="M129.75,78.65h-2.88a14.25,14.25,0,1,0,0,28.5h2.82"/><path class="cls-4" d="M132.81,116.36h-5.94a23.46,23.46,0,0,1,0-46.92h6"/><line class="cls-4" x1="164.5" y1="116.36" x2="143.04" y2="116.36"/><line class="cls-4" x1="211.43" y1="69.44" x2="232.54" y2="69.44"/><line class="cls-4" x1="236.38" y1="78.65" x2="211.43" y2="78.65"/><path class="cls-4" d="M246,107.14h.42a14.25,14.25,0,1,0,0-28.5h-.48"/><path class="cls-4" d="M242.79,69.44h3.63a23.46,23.46,0,1,1,0,46.92h-3.54"/><polyline class="cls-4" points="164.5 137.48 164.5 116.36 164.5 107.14 164.5 78.65 173.72 78.65 173.72 107.14 173.72 116.36 173.72 141.15"/><polyline class="cls-4" points="211.43 48.66 211.43 69.44 211.43 78.65 211.43 107.14 202.21 107.14 202.21 78.65 202.21 69.44 202.21 44.94"/><polyline class="cls-4" points="202.21 141.07 202.21 116.36 211.43 116.36 211.43 137.36"/><path class="cls-4" d="M173.71,150.67v1.78a14.25,14.25,0,0,0,28.5,0v-1.84"/><path class="cls-4" d="M211.43,147.54v4.91a23.46,23.46,0,0,1-46.92,0v-4.81"/><polyline class="cls-4" points="173.72 44.87 173.72 69.44 164.5 69.44 164.5 48.54"/><path class="cls-4" d="M202.21,35.4V32.91a14.25,14.25,0,0,0-28.5,0v2.43"/><path class="cls-4" d="M164.5,38.37V32.91a23.46,23.46,0,0,1,46.92,0v5.56"/><path class="cls-4" d="M164.5,38.37V48.54a50.68,50.68,0,0,0-21.35,20.9,49.58,49.58,0,0,0-3.9,37.71H129.7a58.76,58.76,0,0,1,3.21-37.71A60,60,0,0,1,164.5,38.37Z"/><path class="cls-4" d="M202.21,141.07v9.54a60.58,60.58,0,0,1-28.5.06,59.94,59.94,0,0,1-40.9-34.32H143a50.66,50.66,0,0,0,21.47,21.13,50,50,0,0,0,9.21,3.66,51.22,51.22,0,0,0,28.5-.07Z"/><path class="cls-4" d="M245.94,78.65a58.64,58.64,0,0,1-3.06,37.71,60,60,0,0,1-31.45,31.19V137.36a50.68,50.68,0,0,0,21.23-21,48.7,48.7,0,0,0,3.79-9.21,49.61,49.61,0,0,0-.07-28.5Z"/><path class="cls-4" d="M242.79,69.44H232.54a50.72,50.72,0,0,0-21.11-20.78,50.08,50.08,0,0,0-9.21-3.72,51.22,51.22,0,0,0-28.5-.07V35.35a60.58,60.58,0,0,1,28.5.06,59.25,59.25,0,0,1,9.21,3.07A60,60,0,0,1,242.79,69.44Z"/></g></g></svg>