<?xml version="1.0" encoding="utf-8"?>
<!-- Generator: Adobe Illustrator 20.0.0, SVG Export Plug-In . SVG Version: 6.00 Build 0)  -->
<svg version="1.1" id="Layer_1" xmlns="http://www.w3.org/2000/svg" xmlns:xlink="http://www.w3.org/1999/xlink" x="0px" y="0px"
	 viewBox="0 0 425.5 357.3" style="enable-background:new 0 0 425.5 357.3;" xml:space="preserve">
<style type="text/css">
	.st0{fill:#1A576D;stroke:#000000;stroke-width:3;stroke-miterlimit:10;}
	.st1{fill:#C8932C;}
	.st2{fill:#1A576D;}
	.st3{fill:#29272A;}
	.st4{fill:#B72025;}
	.st5{fill:none;}
	.st6{fill:#CD7729;}
	.st7{fill:#3BA15F;stroke:#000000;stroke-width:3;stroke-miterlimit:10;}
	.st8{fill:#42306D;stroke:#000000;stroke-width:3;stroke-miterlimit:10;}
	.st9{fill:#29272A;stroke:#CCCCCB;stroke-width:3;stroke-miterlimit:10;}
</style>
<path class="st0" d="M1790.5,963.3l-97,56c-5.7,3.3-13.1,1.3-16.4-4.4l-76.5-132.5c-3.3-5.7-1.3-13.1,4.4-16.4l97-56
	c5.7-3.3,13.1-1.3,16.4,4.4l76.5,132.5C1798.2,952.6,1796.2,960,1790.5,963.3z"/>
<g>
	<path class="st1" d="M1631.5,864.8c0.7,1.5,0.6,3.2-0.3,5.2c-0.5,1.2-1.5,2.8-2.9,4.6c1.4,0.9,2.4,1.9,2.9,3c1.1,2.2,0.5,4.5-1.8,7
		c-1.7,1.8-3.9,3.3-6.6,4.7l-7.7,3.8l-2.2-17.9l5.3-2.7l1.8,15.1l0.8-0.4c1.7-0.9,3.1-1.8,4.1-2.8c1.5-1.5,1.9-2.9,1.2-4.3
		c-0.2-0.4-0.7-0.9-1.4-1.3c-0.7-0.4-1.1-0.8-1.3-1c-0.1-0.1-0.1-0.2-0.1-0.3c0-0.5,0.3-1.2,1-2.1c0.9-1.2,1.6-2.2,1.9-2.9
		c0.5-1.3,0.5-2.5,0-3.6c-0.8-1.5-2.3-1.7-4.6-0.6l-17.4,8.6l0.4-4.9l17.3-8.6c2.3-1.1,4.1-1.7,5.6-1.6
		C1629.3,862.1,1630.6,863,1631.5,864.8z"/>
</g>
<ellipse class="st2" cx="852.5" cy="181.5" rx="186.8" ry="179.8"/>
<circle class="st3" cx="58" cy="773.6" r="206.5"/>
<g>
	<path class="st4" d="M249.9,619c-0.2,13.5-7.6,26-22,37.6c-8.7,6.9-21.8,14.5-39.4,22.8c6.9,12.3,10.2,23.5,10.1,33.4
		c-0.3,20.5-13.8,35.5-40.5,44.8c-19.1,6.7-41.2,9.8-66.4,9.4L20,765.8l52.2-140.7l49.7,0.8L77.5,744.7l7,0.1
		c16.1,0.3,29.7-1.3,40.9-4.8c16.6-5.3,24.9-14.3,25.1-27c0.1-4-1.7-8.9-5.3-14.6c-3.6-5.7-5.4-9.9-5.3-12.4c0-1.3,0.1-2.2,0.3-2.8
		c1.9-4,7-7.9,15.2-11.6c11.4-5.2,19.8-10.1,25.1-14.6c9-7.5,13.5-16.2,13.7-26.3c0.2-14.2-10.5-21.4-32.1-21.8L0.9,606.2l21.8-34.4
		l160.9,2.7c21.1,0.4,37,3.5,47.4,9.3C243.9,591,250.2,602.8,249.9,619z"/>
</g>
<g>
	<path class="st4" d="M133.1,794.2c0,13.5-7.1,26.2-21.4,37.9c-8.6,7.1-21.6,14.9-39,23.4c7.1,12.2,10.6,23.3,10.6,33.2
		c0,20.5-13.2,35.7-39.7,45.5c-18.9,7-41,10.5-66.2,10.5h-71.7l49.8-141.5H5.1l-42.3,119.5h7c16.1,0,29.7-1.8,40.8-5.5
		c16.5-5.6,24.7-14.8,24.7-27.4c0-4-1.8-8.9-5.5-14.6c-3.7-5.7-5.5-9.8-5.5-12.3c0-1.3,0.1-2.2,0.3-2.8c1.8-4,6.8-8,15-11.9
		c11.3-5.4,19.6-10.4,24.8-15c8.8-7.6,13.2-16.5,13.2-26.5c0-14.2-10.8-21.2-32.4-21.2h-161.4l-75.1-34.8H66c21.1,0,37,2.9,47.6,8.6
		C126.6,766.3,133.1,778,133.1,794.2z"/>
</g>
<circle class="st3" cx="61.7" cy="1243.3" r="206.5"/>
<g>
	<path class="st4" d="M137.6,1264.8c-0.2,13.5-7.6,26-22,37.6c-8.7,6.9-21.8,14.5-39.4,22.8c6.9,12.3,10.2,23.5,10.1,33.4
		c-0.3,20.5-13.8,35.5-40.5,44.8c-19.1,6.7-41.2,9.8-66.4,9.4l-71.7-1.2l52.2-140.7l49.7,0.8l-44.3,118.7l7,0.1
		c16.1,0.3,29.7-1.3,40.9-4.8c16.6-5.3,24.9-14.3,25.1-27c0.1-4-1.7-8.9-5.3-14.6c-3.6-5.7-5.4-9.9-5.3-12.4c0-1.3,0.1-2.2,0.3-2.8
		c1.9-4,7-7.9,15.2-11.6c11.4-5.2,19.8-10.1,25.1-14.6c9-7.5,13.5-16.2,13.7-26.3c0.2-14.2-10.5-21.4-32.1-21.8l-161.4-2.7
		l21.8-34.4l160.9,2.7c21.1,0.4,37,3.5,47.4,9.3C131.6,1236.7,137.9,1248.5,137.6,1264.8z"/>
</g>
<g>
	<path class="st4" d="M248.9,1084.2c0,13.5-7.1,26.2-21.4,37.9c-8.6,7.1-21.6,14.9-39,23.4c7.1,12.2,10.6,23.3,10.6,33.2
		c0,20.5-13.2,35.7-39.7,45.5c-18.9,7-41,10.5-66.2,10.5H21.4l49.8-141.5h49.7l-42.3,119.5h7c16.1,0,29.7-1.8,40.8-5.5
		c16.5-5.6,24.7-14.8,24.7-27.4c0-4-1.8-8.9-5.5-14.6c-3.7-5.7-5.5-9.8-5.5-12.3c0-1.3,0.1-2.2,0.3-2.8c1.8-4,6.8-8,15-11.9
		c11.3-5.4,19.6-10.4,24.8-15c8.8-7.6,13.2-16.5,13.2-26.5c0-14.2-10.8-21.2-32.4-21.2H-0.4l-75.1-34.8h257.3
		c21.1,0,37,2.9,47.6,8.6C242.4,1056.3,248.9,1068,248.9,1084.2z"/>
</g>
<g>
	<path class="st2" d="M239.2,0c-26.9,0-52.5,5.5-75.6,15.4h93.7c21.1,0,37,2.9,47.6,8.6c13,7,19.4,18.6,19.4,34.9
		c0,13.5-7.1,26.2-21.4,37.9c-8.6,7.1-21.6,14.9-39,23.4c3.3,5.8,5.9,11.3,7.6,16.5c23.3-0.8,55.2-1.3,55.2-0.4
		c21.1,0,37,2.9,47.6,8.6c13,7,19.4,18.6,19.4,34.9c0,13.5-7.1,26.2-21.4,37.9c-8.6,7.1-21.6,14.9-39,23.4
		c7.1,12.2,10.6,23.3,10.6,33.2c0,20.5-13.2,35.7-39.7,45.5c-18.9,7-41,10.5-66.2,10.5h-71.7l43.9-124.7
		c-12.8,2.5-26.6,3.7-41.6,3.7H96.9l49.8-141.5h49.7L154,187.4h7c16.1,0,29.7-1.8,40.8-5.5c16.5-5.6,24.7-14.8,24.7-27.4
		c0-4-1.8-8.9-5.5-14.6c-3.7-5.7-5.5-9.8-5.5-12.3c0-1.3,0.1-2.2,0.3-2.8c1.8-4,6.8-8,15-11.9c11.3-5.4,19.6-10.4,24.8-15
		c8.8-7.6,13.2-16.5,13.2-26.5c0-14.2-10.8-21.2-32.4-21.2H109.9C74.8,82.6,53,128.2,53,178.6c0,98.7,83.4,178.6,186.2,178.6
		s186.2-80,186.2-178.6S342.1,0,239.2,0z"/>
	<path class="st2" d="M265.3,171c0.3,0.4,0.5,1,0.5,1.6l-3,9.5l-39.4,126.2h7c16.1,0,29.7-1.8,40.8-5.5
		c16.5-5.6,24.7-14.8,24.7-27.4c0-4-1.8-8.9-5.5-14.6c-3.7-5.7-5.5-9.8-5.5-12.3c0-1.3,0.1-2.2,0.3-2.8c1.8-4,6.8-8,15-11.9
		c11.3-5.4,19.6-10.4,24.8-15c8.8-7.6,13.2-16.5,13.2-26.5c0-14.2-10.8-21.2-32.4-21.2c0,0.8-5.8,0.1-35.2,0
		C269,171.1,267.2,171,265.3,171z"/>
	<path class="st1" d="M268.9,71.4c0,10-4.4,18.9-13.2,26.5c-5.2,4.6-13.5,9.6-24.8,15c-8.2,3.9-13.2,7.8-15,11.9
		c-0.2,0.6-0.3,1.5-0.3,2.8c0,2.6,1.8,6.7,5.5,12.3c3.7,5.7,5.5,10.5,5.5,14.6c0,12.7-8.2,21.8-24.7,27.4
		c-11.1,3.7-24.7,5.5-40.8,5.5h-7l42.3-119.5h-49.7L96.9,209.4h71.7c15,0,28.8-1.2,41.6-3.7l-43.9,124.7h71.7
		c25.2,0,47.3-3.5,66.2-10.5c26.5-9.8,39.7-25,39.7-45.5c0-9.9-3.5-21-10.6-33.2c17.5-8.6,30.5-16.4,39-23.4
		c14.3-11.8,21.4-24.4,21.4-37.9c0-16.3-6.5-27.9-19.4-34.9c-10.6-5.7-26.4-8.6-47.6-8.6c0-0.9-31.9-0.4-55.2,0.4
		c-1.8-5.3-4.3-10.8-7.6-16.5c17.5-8.6,30.5-16.4,39-23.4c14.3-11.8,21.4-24.4,21.4-37.9c0-16.3-6.5-27.9-19.4-34.9
		c-10.6-5.7-26.4-8.6-47.6-8.6h-93.7H0l75.1,34.8h34.8h126.6C258.1,50.1,268.9,57.2,268.9,71.4z M305.9,171.1
		c21.6,0,32.4,7.1,32.4,21.2c0,10-4.4,18.9-13.2,26.5c-5.2,4.6-13.5,9.6-24.8,15c-8.2,3.9-13.2,7.8-15,11.9
		c-0.2,0.6-0.3,1.5-0.3,2.8c0,2.6,1.8,6.7,5.5,12.3c3.7,5.7,5.5,10.5,5.5,14.6c0,12.7-8.2,21.8-24.7,27.4
		c-11.1,3.7-24.7,5.5-40.8,5.5h-7l39.4-126.2l3-9.5c0-0.6-0.2-1.1-0.5-1.6c1.9,0,3.7,0,5.4,0C300.1,171.2,305.9,171.8,305.9,171.1z"
		/>
</g>
<path class="st5" d="M912.3,218.3c-0.4,0-0.8,0-1.2,0.1c-1,0.3-6.7-0.1-26.9-0.2c-1.3,0-2.7,0-4.1,0c0.2,0.3,0.4,0.7,0.4,1.2
	l-2.3,7.1l-28.6,89.8c-0.8,2.4,1,4.9,3.6,4.9h0.2c12.3,0,22.8-1.4,31.3-4.1c12.6-4.2,18.9-11.1,18.9-20.6c0-3-1.4-6.7-4.2-10.9
	c-2.8-4.2-4.2-7.3-4.2-9.3c0-0.5,0-0.9,0-1.2c0-0.5,0.2-0.9,0.4-1.3c1.6-2.9,5.3-5.7,11.3-8.4c8.7-4.1,15-7.8,19.1-11.3
	c6.8-5.7,10.2-12.4,10.2-19.9C936.2,223.8,928.2,218.5,912.3,218.3z"/>
<path class="st6" d="M894.7,83.8c0,10-4.4,18.9-13.2,26.5c-5.2,4.6-13.5,9.6-24.8,15c-8.2,3.9-13.2,7.8-15,11.9
	c-0.2,0.6-0.3,1.5-0.3,2.8c0,2.6,1.8,6.7,5.5,12.3c3.7,5.7,5.5,10.5,5.5,14.6c0,12.7-8.2,21.8-24.7,27.4
	c-11.1,3.7-24.7,5.5-40.8,5.5h-7l42.3-119.5h-49.7l-49.8,141.5h71.7c15,0,28.8-1.2,41.6-3.7l-43.9,124.7h71.7
	c25.2,0,47.3-3.5,66.2-10.5c26.5-9.8,39.7-25,39.7-45.5c0-9.9-3.5-21-10.6-33.2c17.5-8.6,30.5-16.4,39-23.4
	c14.3-11.8,21.4-24.4,21.4-37.9c0-16.3-6.5-27.9-19.4-34.9c-10.6-5.7-26.4-8.6-47.6-8.6c0-0.9-31.9-0.4-55.2,0.4
	c-1.8-5.3-4.3-10.8-7.6-16.5c17.5-8.6,30.5-16.4,39-23.4c14.3-11.8,21.4-24.4,21.4-37.9c0-16.3-6.5-27.9-19.4-34.9
	c-10.6-5.7-26.4-8.6-47.6-8.6h-93.7H625.9l75.1,34.8h34.8h126.6C883.9,62.5,894.7,69.6,894.7,83.8z M931.8,183.5
	c21.6,0,32.4,7.1,32.4,21.2c0,10-4.4,18.9-13.2,26.5c-5.2,4.6-13.5,9.6-24.8,15c-8.2,3.9-13.2,7.8-15,11.9c-0.2,0.6-0.3,1.5-0.3,2.8
	c0,2.6,1.8,6.7,5.5,12.3c3.7,5.7,5.5,10.5,5.5,14.6c0,12.7-8.2,21.8-24.7,27.4c-11.1,3.7-24.7,5.5-40.8,5.5h-7l39.4-126.2l3-9.5
	c0-0.6-0.2-1.1-0.5-1.6c1.9,0,3.7,0,5.4,0C926,183.6,931.8,184.3,931.8,183.5z"/>
<path class="st0" d="M1813.9,959.4L1714,1010c-5.9,3-13.1,0.6-16.1-5.3l-69.1-136.5c-3-5.9-0.6-13.1,5.3-16.1l99.9-50.6
	c5.9-3,13.1-0.6,16.1,5.3l69.1,136.5C1822.1,949.2,1819.8,956.4,1813.9,959.4z"/>
<g>
	<path class="st1" d="M1660.8,850c0.7,1.5,0.5,3.2-0.4,5.2c-0.6,1.2-1.6,2.7-3.1,4.5c1.4,1,2.3,2,2.8,3.1c1,2.2,0.4,4.6-2,7
		c-1.7,1.7-3.9,3.2-6.7,4.5l-7.8,3.6l-1.7-17.9l5.4-2.5l1.4,15.2l0.8-0.4c1.8-0.8,3.1-1.7,4.2-2.7c1.5-1.4,1.9-2.9,1.3-4.2
		c-0.2-0.4-0.6-0.9-1.3-1.3c-0.7-0.4-1.1-0.8-1.2-1.1c-0.1-0.1-0.1-0.2-0.1-0.3c0-0.5,0.3-1.2,1-2.1c1-1.2,1.6-2.1,1.9-2.9
		c0.6-1.3,0.6-2.5,0.1-3.6c-0.7-1.5-2.2-1.8-4.6-0.7l-17.6,8.1l0.6-4.9l17.6-8.1c2.3-1.1,4.2-1.6,5.6-1.5
		C1658.7,847.2,1660,848.2,1660.8,850z"/>
</g>
<path class="st0" d="M1828.7,963l-103.8,42.2c-6.1,2.5-13.2-0.5-15.6-6.6l-57.6-141.7c-2.5-6.1,0.5-13.2,6.6-15.6l103.8-42.2
	c6.1-2.5,13.2,0.5,15.6,6.6l57.6,141.7C1837.8,953.5,1834.8,960.5,1828.7,963z"/>
<path class="st0" d="M1822.2,997.1h-112c-6.6,0-12-5.4-12-12v-153c0-6.6,5.4-12,12-12h112c6.6,0,12,5.4,12,12v153
	C1834.2,991.7,1828.8,997.1,1822.2,997.1z"/>
<g>
	<path class="st1" d="M1830.2,973.8c0,1.6-0.9,3.1-2.6,4.5c-1,0.8-2.6,1.7-4.7,2.7c0.8,1.5,1.2,2.8,1.2,4c0,2.5-1.7,4.3-4.9,5.4
		c-2.3,0.8-4.9,1.2-8,1.1l-8.6-0.1l6.3-16.9l6,0.1l-5.3,14.3l0.8,0c1.9,0,3.6-0.2,4.9-0.6c2-0.6,3-1.7,3-3.2c0-0.5-0.2-1.1-0.6-1.8
		c-0.4-0.7-0.6-1.2-0.6-1.5c0-0.2,0-0.3,0-0.3c0.2-0.5,0.8-0.9,1.8-1.4c1.4-0.6,2.4-1.2,3-1.8c1.1-0.9,1.6-2,1.6-3.2
		c0-1.7-1.3-2.6-3.9-2.6l-19.4-0.3l2.6-4.1l19.3,0.3c2.5,0,4.4,0.4,5.7,1.1C1829.5,970.4,1830.2,971.8,1830.2,973.8z"/>
</g>
<g>
	<path class="st1" d="M1734.2,832.8c0,1.6-0.9,3.1-2.6,4.5c-1,0.8-2.6,1.7-4.7,2.7c0.8,1.5,1.2,2.8,1.2,4c0,2.5-1.7,4.3-4.9,5.4
		c-2.3,0.8-4.9,1.2-8,1.1l-8.6-0.1l6.3-16.9l6,0.1l-5.3,14.3l0.8,0c1.9,0,3.6-0.2,4.9-0.6c2-0.6,3-1.7,3-3.2c0-0.5-0.2-1.1-0.6-1.8
		c-0.4-0.7-0.6-1.2-0.6-1.5c0-0.2,0-0.3,0-0.3c0.2-0.5,0.8-0.9,1.8-1.4c1.4-0.6,2.4-1.2,3-1.8c1.1-0.9,1.6-2,1.6-3.2
		c0-1.7-1.3-2.6-3.9-2.6l-19.4-0.3l2.6-4.1l19.3,0.3c2.5,0,4.4,0.4,5.7,1.1C1733.5,829.4,1734.2,830.8,1734.2,832.8z"/>
</g>
<g>
	<path class="st1" d="M1687,843.5c0.4,1.6,0,3.3-1.3,5.1c-0.8,1.1-2,2.4-3.8,3.9c1.2,1.2,2,2.4,2.3,3.5c0.6,2.4-0.4,4.6-3.2,6.5
		c-2,1.4-4.4,2.5-7.4,3.3l-8.3,2.2l1.4-18l5.8-1.5l-1.2,15.2l0.8-0.2c1.9-0.5,3.4-1.1,4.6-1.9c1.7-1.2,2.4-2.5,2-3.9
		c-0.1-0.5-0.5-1-1.1-1.5c-0.6-0.5-0.9-1-1-1.3c0-0.1-0.1-0.3-0.1-0.3c0.1-0.5,0.5-1.1,1.4-1.8c1.1-1,2-1.8,2.4-2.5
		c0.8-1.2,1-2.3,0.7-3.5c-0.4-1.6-1.9-2.1-4.4-1.5l-18.7,5l1.4-4.7l18.7-5c2.5-0.7,4.4-0.8,5.8-0.5
		C1685.3,840.4,1686.5,841.6,1687,843.5z"/>
</g>
<g>
	<g>
		<polygon class="st7" points="2180.2,564.4 2179.2,564.4 1929.5,564.4 2052.3,718 		"/>
		<polygon class="st7" points="2132.7,508.3 1971.7,508.3 1929.5,564.4 2180.2,564.4 		"/>
	</g>
</g>
<polyline class="st7" points="1972.2,510.1 1971.3,509.1 2010.6,564 2049.4,509 2091.4,563 2131.7,509.5 "/>
<polygon class="st7" points="2052.4,714.4 2010.6,564 2091.4,564 "/>
<g>
	<g>
		<polygon class="st8" points="1844.2,565 1843.2,565 1593.5,565 1716.3,718.7 		"/>
		<polygon class="st8" points="1796.7,509 1635.7,509 1593.5,565 1844.2,565 		"/>
	</g>
</g>
<polyline class="st8" points="1636.2,510.8 1635.3,509.8 1674.6,564.6 1713.4,509.6 1755.4,563.6 1795.7,510.1 "/>
<polygon class="st8" points="1716.4,715 1674.6,564.6 1755.4,564.6 "/>
<g>
	<g>
		<g>
			<polygon class="st8" points="1820.7,889.9 1820.3,889.9 1714.6,889.9 1766.6,953.7 			"/>
			<polygon class="st8" points="1800.6,866.6 1732.5,866.6 1714.6,889.9 1820.7,889.9 			"/>
		</g>
	</g>
	<polyline class="st8" points="1732.7,867.4 1732.3,867 1749,889.7 1765.4,866.9 1783.1,889.3 1800.2,867.1 	"/>
	<polygon class="st8" points="1766.6,949.8 1749,889.7 1783.1,889.7 	"/>
</g>
<path class="st9" d="M2141.1,928l-97,56c-5.7,3.3-13.1,1.3-16.4-4.4l-76.5-132.5c-3.3-5.7-1.3-13.1,4.4-16.4l97-56
	c5.7-3.3,13.1-1.3,16.4,4.4l76.5,132.5C2148.8,917.3,2146.8,924.7,2141.1,928z"/>
<g>
	<path class="st4" d="M1982.1,829.4c0.7,1.5,0.6,3.2-0.3,5.2c-0.5,1.2-1.5,2.8-2.9,4.6c1.4,0.9,2.4,1.9,2.9,3c1.1,2.2,0.5,4.5-1.8,7
		c-1.7,1.8-3.9,3.3-6.6,4.7l-7.7,3.8l-2.2-17.9l5.3-2.7l1.8,15.1l0.8-0.4c1.7-0.9,3.1-1.8,4.1-2.8c1.5-1.5,1.9-2.9,1.2-4.3
		c-0.2-0.4-0.7-0.9-1.4-1.3c-0.7-0.4-1.1-0.8-1.3-1c-0.1-0.1-0.1-0.2-0.1-0.3c0-0.5,0.3-1.2,1-2.1c0.9-1.2,1.6-2.2,1.9-2.9
		c0.5-1.3,0.5-2.5,0-3.6c-0.8-1.5-2.3-1.7-4.6-0.6l-17.4,8.6l0.4-4.9l17.3-8.6c2.3-1.1,4.1-1.7,5.6-1.6
		C1980,826.8,1981.3,827.7,1982.1,829.4z"/>
</g>
<path class="st9" d="M2164.5,924.1l-99.9,50.6c-5.9,3-13.1,0.6-16.1-5.3l-69.1-136.5c-3-5.9-0.6-13.1,5.3-16.1l99.9-50.6
	c5.9-3,13.1-0.6,16.1,5.3l69.1,136.5C2172.8,913.8,2170.4,921.1,2164.5,924.1z"/>
<g>
	<path class="st4" d="M2011.5,814.6c0.7,1.5,0.5,3.2-0.4,5.2c-0.6,1.2-1.6,2.7-3.1,4.5c1.4,1,2.3,2,2.8,3.1c1,2.2,0.4,4.6-2,7
		c-1.7,1.7-3.9,3.2-6.7,4.5l-7.8,3.6l-1.7-17.9l5.4-2.5l1.4,15.2l0.8-0.4c1.8-0.8,3.1-1.7,4.2-2.7c1.5-1.4,1.9-2.9,1.3-4.2
		c-0.2-0.4-0.6-0.9-1.3-1.3c-0.7-0.4-1.1-0.8-1.2-1.1c-0.1-0.1-0.1-0.2-0.1-0.3c0-0.5,0.3-1.2,1-2.1c1-1.2,1.6-2.1,1.9-2.9
		c0.6-1.3,0.6-2.5,0.1-3.6c-0.7-1.5-2.2-1.8-4.6-0.7l-17.6,8.1l0.6-4.9l17.6-8.1c2.3-1.1,4.2-1.6,5.6-1.5
		C2009.4,811.9,2010.7,812.8,2011.5,814.6z"/>
</g>
<path class="st9" d="M2179.4,927.6l-103.8,42.2c-6.1,2.5-13.1-0.5-15.6-6.6l-57.6-141.7c-2.5-6.1,0.5-13.2,6.6-15.6l103.8-42.2
	c6.1-2.5,13.2,0.5,15.6,6.6L2186,912C2188.5,918.1,2185.5,925.2,2179.4,927.6z"/>
<path class="st9" d="M2172.9,961.8h-112c-6.6,0-12-5.4-12-12v-153c0-6.6,5.4-12,12-12h112c6.6,0,12,5.4,12,12v153
	C2184.9,956.4,2179.5,961.8,2172.9,961.8z"/>
<g>
	<path class="st4" d="M2180.9,938.5c0,1.6-0.9,3.1-2.6,4.5c-1,0.8-2.6,1.7-4.7,2.7c0.8,1.5,1.2,2.8,1.2,4c0,2.5-1.7,4.3-4.9,5.4
		c-2.3,0.8-4.9,1.2-8,1.1l-8.6-0.1l6.3-16.9l6,0.1l-5.3,14.3l0.8,0c1.9,0,3.6-0.2,4.9-0.6c2-0.6,3-1.7,3-3.2c0-0.5-0.2-1.1-0.6-1.8
		c-0.4-0.7-0.6-1.2-0.6-1.5c0-0.2,0-0.3,0-0.3c0.2-0.5,0.8-0.9,1.8-1.4c1.4-0.6,2.4-1.2,3-1.8c1.1-0.9,1.6-2,1.6-3.2
		c0-1.7-1.3-2.6-3.9-2.6l-19.4-0.3l2.6-4.1l19.3,0.3c2.5,0,4.4,0.4,5.7,1.1C2180.1,935.1,2180.9,936.5,2180.9,938.5z"/>
</g>
<g>
	<path class="st4" d="M2084.9,797.5c0,1.6-0.9,3.1-2.6,4.5c-1,0.8-2.6,1.7-4.7,2.7c0.8,1.5,1.2,2.8,1.2,4c0,2.5-1.7,4.3-4.9,5.4
		c-2.3,0.8-4.9,1.2-8,1.1l-8.6-0.1l6.3-16.9l6,0.1l-5.3,14.3l0.8,0c1.9,0,3.6-0.2,4.9-0.6c2-0.6,3-1.7,3-3.2c0-0.5-0.2-1.1-0.6-1.8
		c-0.4-0.7-0.6-1.2-0.6-1.5c0-0.2,0-0.3,0-0.3c0.2-0.5,0.8-0.9,1.8-1.4c1.4-0.6,2.4-1.2,3-1.8c1.1-0.9,1.6-2,1.6-3.2
		c0-1.7-1.3-2.6-3.9-2.6l-19.4-0.3l2.6-4.1l19.3,0.3c2.5,0,4.4,0.4,5.7,1.1C2084.1,794.1,2084.9,795.5,2084.9,797.5z"/>
</g>
<g>
	<path class="st4" d="M2037.6,808.1c0.4,1.6,0,3.3-1.3,5.1c-0.8,1.1-2,2.4-3.8,3.9c1.2,1.2,2,2.4,2.3,3.5c0.6,2.4-0.4,4.6-3.2,6.5
		c-2,1.4-4.4,2.5-7.4,3.3l-8.3,2.2l1.4-18l5.8-1.5l-1.2,15.2l0.8-0.2c1.9-0.5,3.4-1.1,4.6-1.9c1.7-1.2,2.4-2.5,2-3.9
		c-0.1-0.5-0.5-1-1.1-1.5c-0.6-0.5-0.9-1-1-1.3c0-0.1-0.1-0.3-0.1-0.3c0.1-0.5,0.5-1.1,1.4-1.8c1.1-1,2-1.8,2.4-2.5
		c0.8-1.2,1-2.3,0.7-3.5c-0.4-1.6-1.9-2.1-4.4-1.5l-18.7,5l1.4-4.7l18.7-5c2.5-0.7,4.4-0.8,5.8-0.5
		C2036,805.1,2037.1,806.2,2037.6,808.1z"/>
</g>
<g>
	<g>
		<g>
			<polygon class="st7" points="2171.4,854.6 2171,854.6 2065.3,854.6 2117.3,918.4 			"/>
			<polygon class="st7" points="2151.3,831.3 2083.2,831.3 2065.3,854.6 2171.4,854.6 			"/>
		</g>
	</g>
	<polyline class="st7" points="2083.4,832 2083,831.6 2099.6,854.4 2116.1,831.6 2133.8,854 2150.9,831.8 	"/>
	<polygon class="st7" points="2117.3,914.5 2099.6,854.4 2133.8,854.4 	"/>
</g>
</svg>
