<svg xmlns="http://www.w3.org/2000/svg" viewBox="0 0 413.45 359.5"><defs><style>.cls-1{fill:#29272a;}.cls-2{fill:none;}.cls-3{fill:#b72025;}</style></defs><title>Asset 3</title><g id="Layer_2" data-name="Layer 2"><g id="Layer_1-2" data-name="Layer 1"><ellipse class="cls-1" cx="226.62" cy="179.75" rx="186.83" ry="179.75"/><path class="cls-2" d="M286.46,216.5a3.76,3.76,0,0,0-1.19.14c-1,.32-6.7-.08-26.88-.17h-4.12a2,2,0,0,1,.36,1.19l-2.27,7.12-28.65,89.84a3.79,3.79,0,0,0,3.61,4.94h.22q18.52,0,31.33-4.14,18.95-6.32,18.95-20.61,0-4.56-4.23-10.93t-4.23-9.27q0-.69,0-1.2a3.44,3.44,0,0,1,.4-1.33q2.36-4.32,11.3-8.45,13-6.11,19.05-11.29,10.16-8.6,10.16-19.88Q310.31,216.83,286.46,216.5Z"/><path class="cls-3" d="M268.89,82q0,15-13.24,26.48-7.86,6.9-24.83,15-12.28,5.79-15,11.86a9.62,9.62,0,0,0-.28,2.76q0,3.86,5.52,12.35T226.54,165q0,19-24.69,27.45Q185.16,198,161,198h-7L196.33,78.55H146.68L96.88,220.07h71.73a219.23,219.23,0,0,0,41.59-3.71L166.33,341h71.73q37.79,0,66.21-10.48Q344,315.81,344,285q0-14.9-10.62-33.24,26.21-12.83,39-23.45,21.38-17.65,21.38-37.93,0-24.41-19.45-34.9Q358.48,147,326.75,147c0-.88-31.86-.41-55.18.4a91.11,91.11,0,0,0-7.65-16.54q26.21-12.83,39-23.45,21.38-17.65,21.38-37.93,0-24.41-19.45-34.9Q289,26,257.3,26H0L75.09,60.76H236.47Q268.89,60.76,268.89,82Zm37,99.73q32.41,0,32.42,21.24,0,15-13.24,26.48-7.86,6.9-24.83,15-12.28,5.79-15,11.86a9.62,9.62,0,0,0-.28,2.76q0,3.86,5.52,12.35T296,286q0,19-24.69,27.45Q254.61,319,230.47,319h-7l39.39-126.22,3-9.49a2.74,2.74,0,0,0-.47-1.58l5.36,0C300.12,181.83,305.92,182.49,305.92,181.73Z"/></g></g></svg>