<svg xmlns="http://www.w3.org/2000/svg" viewBox="0 0 571.08 594.2"><defs><style>.cls-1{fill:#491b2a;}.cls-1,.cls-2{stroke:#9b9a9a;stroke-miterlimit:10;stroke-width:3px;}.cls-2{fill:#562332;}</style></defs><title>Asset 1</title><g id="Layer_2" data-name="Layer 2"><g id="Layer_1-2" data-name="Layer 1"><polygon class="cls-1" points="341.46 198.57 398.35 297.1 341.46 395.63 227.68 395.63 170.79 297.1 227.68 198.57 341.46 198.57"/><polygon class="cls-2" points="172.4 100.03 229.28 198.57 172.4 297.1 58.62 297.1 1.73 198.57 58.62 100.03 172.4 100.03"/><polygon class="cls-2" points="512.46 100.03 569.34 198.57 512.46 297.1 398.68 297.1 341.79 198.57 398.68 100.03 512.46 100.03"/><polygon class="cls-2" points="512.46 296.69 569.34 395.23 512.46 493.76 398.68 493.76 341.79 395.23 398.68 296.69 512.46 296.69"/><polygon class="cls-2" points="343.39 1.5 400.28 100.03 343.39 198.57 229.62 198.57 172.73 100.03 229.62 1.5 343.39 1.5"/><polygon class="cls-2" points="172.4 297.1 229.28 395.63 172.4 494.17 58.62 494.17 1.73 395.63 58.62 297.1 172.4 297.1"/><polygon class="cls-2" points="341.46 395.63 398.35 494.17 341.46 592.7 227.68 592.7 170.79 494.17 227.68 395.63 341.46 395.63"/></g></g></svg>