<svg xmlns="http://www.w3.org/2000/svg" viewBox="0 0 1434.26 1196.63"><defs><style>.cls-1{fill:#562332;stroke:#9b9a9a;stroke-miterlimit:10;stroke-width:3px;}</style></defs><title>Asset 2</title><g id="Layer_2" data-name="Layer 2"><g id="Layer_1-2" data-name="Layer 1"><polygon class="cls-1" points="684.43 400.47 742.02 498.6 685.83 597.54 572.06 598.34 514.47 500.21 570.66 401.28 684.43 400.47"/><polygon class="cls-1" points="514.68 303.14 572.26 401.27 516.07 500.2 402.3 501.01 344.72 402.88 400.9 303.95 514.68 303.14"/><polygon class="cls-1" points="344.29 599.96 401.87 698.08 345.68 797.02 231.91 797.83 174.32 699.7 230.51 600.76 344.29 599.96"/><polygon class="cls-1" points="349.55 797.4 407.13 895.52 350.95 994.46 237.17 995.26 179.59 897.14 235.78 798.2 349.55 797.4"/><polygon class="cls-1" points="178.35 898.91 235.93 997.04 179.74 1095.97 65.97 1096.78 8.38 998.65 64.57 899.72 178.35 898.91"/><polygon class="cls-1" points="1365.17 1.51 1422.75 99.63 1366.57 198.57 1252.79 199.37 1195.21 101.25 1251.39 2.31 1365.17 1.51"/><polygon class="cls-1" points="350.97 997.25 408.55 1095.38 352.36 1194.31 238.59 1195.12 181 1096.99 237.19 998.06 350.97 997.25"/><polygon class="cls-1" points="1028.77 989.65 1086.35 1087.78 1030.17 1186.71 916.39 1187.52 858.81 1089.39 915 990.46 1028.77 989.65"/><polygon class="cls-1" points="1374.95 986.8 1432.53 1084.93 1376.34 1183.86 1262.57 1184.67 1204.98 1086.54 1261.17 987.6 1374.95 986.8"/><polygon class="cls-1" points="688.63 992.06 746.21 1090.19 690.02 1189.13 576.25 1189.93 518.66 1091.8 574.85 992.87 688.63 992.06"/><polygon class="cls-1" points="178.35 700.07 235.94 798.2 179.75 897.13 65.98 897.94 8.39 799.81 64.58 700.88 178.35 700.07"/><polygon class="cls-1" points="173.09 502.84 230.68 600.96 174.49 699.9 60.72 700.71 3.13 602.58 59.32 503.64 173.09 502.84"/><polygon class="cls-1" points="171.69 305.57 229.28 403.7 173.09 502.63 59.32 503.44 1.73 405.31 57.92 306.38 171.69 305.57"/><polygon class="cls-1" points="171.84 106.77 229.42 204.89 173.23 303.83 59.46 304.63 1.87 206.5 58.06 107.57 171.84 106.77"/><polygon class="cls-1" points="343.96 8.74 401.55 106.87 345.36 205.81 231.58 206.61 174 108.48 230.19 9.55 343.96 8.74"/><polygon class="cls-1" points="1369.36 198.55 1426.94 296.68 1370.76 395.61 1256.98 396.42 1199.4 298.29 1255.59 199.35 1369.36 198.55"/><polygon class="cls-1" points="1370.76 395.81 1428.34 493.94 1372.15 592.87 1258.38 593.68 1200.8 495.55 1256.98 396.62 1370.76 395.81"/><polygon class="cls-1" points="1372.15 592.67 1429.74 690.8 1373.55 789.73 1259.78 790.54 1202.19 692.41 1258.38 593.48 1372.15 592.67"/><polygon class="cls-1" points="1199.97 890.31 1257.56 988.44 1201.37 1087.37 1087.6 1088.18 1030.01 990.05 1086.2 891.12 1199.97 890.31"/><polygon class="cls-1" points="1373.54 788.92 1431.13 887.05 1374.94 985.98 1261.17 986.79 1203.58 888.66 1259.77 789.73 1373.54 788.92"/><polygon class="cls-1" points="342.89 402.89 400.47 501.02 344.29 599.96 230.51 600.76 172.93 502.63 229.12 403.7 342.89 402.89"/><polygon class="cls-1" points="854.73 300.73 912.31 398.86 856.12 497.79 742.35 498.6 684.76 400.47 740.95 301.54 854.73 300.73"/><polygon class="cls-1" points="1024.58 200.99 1082.17 299.12 1025.98 398.05 912.21 398.86 854.62 300.73 910.81 201.8 1024.58 200.99"/><polygon class="cls-1" points="1195.78 298.31 1253.36 396.44 1197.17 495.38 1083.4 496.18 1025.82 398.06 1082 299.12 1195.78 298.31"/><polygon class="cls-1" points="853.33 103.67 910.91 201.8 854.73 300.73 740.95 301.54 683.37 203.41 739.56 104.48 853.33 103.67"/><polygon class="cls-1" points="1193.38 101.26 1250.96 199.39 1194.78 298.32 1081 299.13 1023.42 201 1079.61 102.07 1193.38 101.26"/><polygon class="cls-1" points="1023.18 3.93 1080.77 102.06 1024.58 200.99 910.81 201.8 853.22 103.67 909.41 4.74 1023.18 3.93"/><polygon class="cls-1" points="856.12 497.39 913.71 595.52 857.52 694.45 743.74 695.26 686.16 597.13 742.35 498.19 856.12 497.39"/><polygon class="cls-1" points="1025.98 398.05 1083.56 496.18 1027.38 595.12 913.6 595.92 856.02 497.79 912.21 398.86 1025.98 398.05"/><polygon class="cls-1" points="1197.17 494.97 1254.76 593.1 1198.57 692.03 1084.79 692.84 1027.21 594.71 1083.4 495.78 1197.17 494.97"/><polygon class="cls-1" points="684.97 203.4 742.55 301.53 686.37 400.46 572.59 401.27 515.01 303.14 571.2 204.21 684.97 203.4"/><polygon class="cls-1" points="513.28 106.08 570.87 204.21 514.68 303.14 400.9 303.95 343.32 205.82 399.51 106.89 513.28 106.08"/><polygon class="cls-1" points="341.49 205.83 399.08 303.96 342.89 402.89 229.12 403.7 171.53 305.57 227.72 206.64 341.49 205.83"/><polygon class="cls-1" points="681.64 6.35 739.23 104.48 683.04 203.41 569.26 204.22 511.68 106.09 567.87 7.16 681.64 6.35"/><polygon class="cls-1" points="516.07 500.2 573.66 598.33 517.47 697.26 403.7 698.07 346.11 599.94 402.3 501.01 516.07 500.2"/><polygon class="cls-1" points="517.47 697.26 575.06 795.39 518.87 894.33 405.09 895.13 347.51 797 403.7 698.07 517.47 697.26"/><polygon class="cls-1" points="518.87 894.73 576.46 992.86 520.27 1091.79 406.49 1092.6 348.91 994.47 405.1 895.54 518.87 894.73"/><polygon class="cls-1" points="685.83 597.54 743.41 695.66 687.23 794.6 573.45 795.4 515.87 697.28 572.06 598.34 685.83 597.54"/><polygon class="cls-1" points="1027.38 595.12 1084.96 693.24 1028.77 792.18 915 792.98 857.41 694.86 913.6 595.92 1027.38 595.12"/><polygon class="cls-1" points="857.52 694.86 915.11 792.98 858.92 891.92 745.14 892.72 687.56 794.6 743.75 695.66 857.52 694.86"/><polygon class="cls-1" points="1028.77 792.18 1086.36 890.3 1030.17 989.24 916.39 990.04 858.81 891.92 915 792.98 1028.77 792.18"/><polygon class="cls-1" points="1198.57 692.44 1256.15 790.57 1199.97 889.5 1086.19 890.3 1028.61 792.18 1084.8 693.24 1198.57 692.44"/><polygon class="cls-1" points="689.16 794.58 746.75 892.71 690.56 991.64 576.78 992.45 519.2 894.32 575.39 795.39 689.16 794.58"/><polygon class="cls-1" points="858.92 892.32 916.5 990.45 860.32 1089.38 746.54 1090.19 688.96 992.06 745.15 893.13 858.92 892.32"/></g></g></svg>