<svg xmlns="http://www.w3.org/2000/svg" viewBox="0 0 103 103"><defs><style>.cls-1{fill:#29272a;stroke:#fedd37;stroke-miterlimit:10;stroke-width:3px;}.cls-2{fill:#58488c;}.cls-3{fill:#2d2d2d;}.cls-4{fill:#33894d;}.cls-5{fill:#42306d;}.cls-6{fill:#4bb96f;}</style></defs><title>tärningar</title><g id="Layer_2" data-name="Layer 2"><g id="Layer_1-2" data-name="Layer 1"><rect class="cls-1" x="1.5" y="1.5" width="100" height="100"/><path class="cls-2" d="M54.73,58.13,33.52,56.9A2,2,0,0,0,32,56.77L25.58,39.38q2.64-.41,5.3-.57l3.7.24a58.91,58.91,0,0,1,6,.39l5.39.35c1.5.28,3,.63,4.48,1q.26,2.76.77,5.46A59.08,59.08,0,0,0,54.73,58.13ZM48.3,54.06a1.64,1.64,0,0,0,.85-1.29,1.45,1.45,0,0,0,.17-1.14,1.65,1.65,0,0,0-1.95-1.21,4.49,4.49,0,0,0-2.9,2.23,1.62,1.62,0,0,0,2.16,2.27Zm-12.89.24a2.21,2.21,0,0,0,1.23-2,1.74,1.74,0,0,0-.45-1.17,1.86,1.86,0,0,0-.33-.26,1.7,1.7,0,0,0-1.31-.78,2.27,2.27,0,0,0-2.24,1.55A2.17,2.17,0,0,0,33,54.09,2.25,2.25,0,0,0,35.41,54.29Zm4.76-3.72a1.6,1.6,0,0,0,1.46-1.14,2.53,2.53,0,0,0-4.58-2,1.64,1.64,0,0,0,.21,2l1,.88A1.75,1.75,0,0,0,40.16,50.58Zm5-4.33a2.17,2.17,0,0,0,2.13-1.48,1.49,1.49,0,0,0-.13-1.24,1.73,1.73,0,0,0-.74-1.14,2.18,2.18,0,0,0-3.25,2.27A2.12,2.12,0,0,0,45.16,46.24Zm-10.62-.38a2.73,2.73,0,0,0,1.38-2.39,0,0,0,0,1,0,0,1.42,1.42,0,0,0-.13-1.19l-.33-.5a1.58,1.58,0,0,0-2.72-.17,3.59,3.59,0,0,0-1.88,1.48,1.62,1.62,0,0,0,0,1.62A2.79,2.79,0,0,0,34.54,45.86Z"/><path class="cls-3" d="M78,77.26a1.66,1.66,0,0,1-2.88-.2,1.28,1.28,0,0,0,1.18-.56,1.82,1.82,0,0,0,1.28-2.38c-.16-.42-.32-.84-.5-1.26A59.42,59.42,0,0,1,82.6,66.3l.14-.14a58.79,58.79,0,0,1,5.9-5.32q1.27-1,2.6-1.95L92,60.7a1.36,1.36,0,0,0,1,.85A56.36,56.36,0,0,0,78,77.26Z"/><path class="cls-3" d="M76.34,76.5a1.28,1.28,0,0,1-1.18.56,1.38,1.38,0,0,1-.13-.93A1.23,1.23,0,0,0,76.34,76.5Z"/><path class="cls-3" d="M77.61,74.12a1.82,1.82,0,0,1-1.28,2.38,1.81,1.81,0,0,0-.16-2.3c.31-.45.62-.9.94-1.34C77.29,73.27,77.45,73.69,77.61,74.12Z"/><path class="cls-3" d="M75.16,77.06a1.69,1.69,0,0,1-.47-.12A98.37,98.37,0,0,0,53.62,71q.42-1.58,1-3.11A101.71,101.71,0,0,1,73.73,73.1c.35.84.69,1.7,1,2.56a1.51,1.51,0,0,0,.28.47A1.38,1.38,0,0,0,75.16,77.06Z"/><path class="cls-3" d="M76.34,76.5A1.23,1.23,0,0,1,75,76.13a1.53,1.53,0,0,1,.23-.55q.45-.7.92-1.38A1.81,1.81,0,0,1,76.34,76.5Z"/><path class="cls-3" d="M75,76.13a1.51,1.51,0,0,1-.28-.47c-.33-.86-.67-1.71-1-2.56.64.23,1.25.47,1.88.73a1.78,1.78,0,0,1,.57.37q-.46.68-.92,1.38A1.53,1.53,0,0,0,75,76.13Z"/><path class="cls-3" d="M77.11,72.86c-.31.44-.63.89-.94,1.34a1.78,1.78,0,0,0-.57-.37c-.62-.25-1.24-.5-1.88-.73A103.78,103.78,0,0,0,65.4,57a2.5,2.5,0,0,1-.15-.27c.67.43,1.34.86,2,1.28a1.47,1.47,0,0,0,1.83-.14,1.43,1.43,0,0,0,.51-.22A103.68,103.68,0,0,1,77.11,72.86Z"/><path class="cls-3" d="M95.06,59.85a1.77,1.77,0,0,1-2,1.69c.44-.31.9-.63,1.35-.92A1.64,1.64,0,0,0,95.06,59.85Z"/><path class="cls-3" d="M94.42,60.62c-.46.3-.91.61-1.35.92a1.36,1.36,0,0,1-1-.85l-.81-1.81c.54-.39,1.09-.76,1.64-1.13a1.33,1.33,0,0,1,1.34-.15l.7,1.55a1.71,1.71,0,0,1,.16.69,0,0,0,0,1,0,0A1.64,1.64,0,0,1,94.42,60.62Z"/><path class="cls-4" d="M82.6,66.3a59.42,59.42,0,0,0-5.48,6.56,103.68,103.68,0,0,0-7.51-15.17A1.69,1.69,0,0,0,70,57.3C71,56.09,72,54.9,73,53.71l.1-.12,1.12,1-.11.13a1.82,1.82,0,0,0,.52,2.66,1.77,1.77,0,0,0,1.81-.08h0l.59,1a1.66,1.66,0,0,0-.66,2.2l.08.14a1.64,1.64,0,0,0,2.19.66l.24.44A1.52,1.52,0,0,0,78,63.09,1.75,1.75,0,0,0,79,64.63a1.71,1.71,0,0,0,.49.47,1.64,1.64,0,0,0,1.21.2,1.79,1.79,0,0,0,.61-.28Z"/><path class="cls-4" d="M82.73,66.16l-.14.14L81.26,65l.16-.12a1.44,1.44,0,0,0,.26-.33,1.91,1.91,0,0,0,.2-1.21,2.24,2.24,0,0,0-2.18-1.83,1.88,1.88,0,0,0-.83.22l-.24-.44h0a1.66,1.66,0,0,0,.66-2.2L79.21,59A1.64,1.64,0,0,0,77,58.3l-.59-1a1.7,1.7,0,0,0,.83-1.35,1.82,1.82,0,0,0-2.64-1.69,1.72,1.72,0,0,0-.44.34l-1.12-1q5.06-6,10.61-11.5l2.4,5.33L84.7,48l-.22-.43a1.63,1.63,0,0,0-2.2-.66,1.66,1.66,0,0,0-.66,2.2l.22.43a1.67,1.67,0,0,0,2,.75l.53,1.2a1.9,1.9,0,0,0-1.11,2.15,1.65,1.65,0,0,0,1.05,1.17A1.69,1.69,0,0,0,85.7,55l.61,1.2a2.3,2.3,0,0,0-1.34,2,1.66,1.66,0,0,0,1.57,1.68,1.84,1.84,0,0,0,1.06-.36l1,1.3A58.79,58.79,0,0,0,82.73,66.16Z"/><path class="cls-3" d="M95.07,59.84a1.71,1.71,0,0,0-.16-.69l-.7-1.55A1.81,1.81,0,0,1,95.07,59.84Z"/><path class="cls-3" d="M81.26,65a1.79,1.79,0,0,1-.61.28,1.64,1.64,0,0,1-1.21-.2,1.71,1.71,0,0,1-.49-.47,1.4,1.4,0,0,0,.63.14q.25,0-.18,0a.81.81,0,0,1-.34-.18.79.79,0,0,1-.27-.3c-.09-.29-.12-.35-.09-.18a1.17,1.17,0,0,0,.25.55A1.75,1.75,0,0,1,78,63.09a1.52,1.52,0,0,1,.85-1.34,1.88,1.88,0,0,1,.83-.22,2.24,2.24,0,0,1,2.18,1.83,1.91,1.91,0,0,1-.2,1.21,1.44,1.44,0,0,1-.26.33Z"/><path class="cls-4" d="M88.63,60.84l-1-1.3a1.56,1.56,0,0,0,.49-.58,1.71,1.71,0,0,0,.47-.49,1.64,1.64,0,0,0,.2-1.21L88.68,57l1.43-.64,1.12,2.49Q89.9,59.83,88.63,60.84Z"/><path class="cls-3" d="M86.14,39.69l8.08,17.92a1.33,1.33,0,0,0-1.34.15c-.56.37-1.1.75-1.64,1.13L90.11,56.4c-.68-1.52-1.36-3-2-4.55l-2-4.43-2.4-5.33C84.48,41.28,85.3,40.48,86.14,39.69Z"/><path class="cls-3" d="M79.41,64.74q.43,0,.18,0a1.4,1.4,0,0,1-.63-.14,1.17,1.17,0,0,1-.25-.55c0-.17,0-.11.09.18a.79.79,0,0,0,.27.3A.81.81,0,0,0,79.41,64.74Z"/><path class="cls-3" d="M87.6,59.54a1.84,1.84,0,0,1-1.06.36A1.66,1.66,0,0,1,85,58.22a2.3,2.3,0,0,1,1.34-2A1.61,1.61,0,0,1,86.8,56a1.91,1.91,0,0,1,1.21.2,1.54,1.54,0,0,1,.67.81l.07.22a1.64,1.64,0,0,1-.2,1.21,1.71,1.71,0,0,1-.47.49,1.4,1.4,0,0,0,.14-.63q0-.25,0,.18a.81.81,0,0,1-.18.34.79.79,0,0,1-.3.27c-.29.09-.35.12-.18.09a1.17,1.17,0,0,0,.55-.25A1.56,1.56,0,0,1,87.6,59.54Z"/><path class="cls-3" d="M88.09,59a1.17,1.17,0,0,1-.55.25c-.17,0-.11,0,.18-.09a.79.79,0,0,0,.3-.27.81.81,0,0,0,.18-.34q0-.43,0-.18A1.4,1.4,0,0,1,88.09,59Z"/><path class="cls-3" d="M52.14,77.84a1.74,1.74,0,0,1-2.67,0Z"/><path class="cls-3" d="M52.14,77.84l-2.67,0h0l2.82-.2A.89.89,0,0,1,52.14,77.84Z"/><path class="cls-3" d="M52.34,77.52a.61.61,0,0,1-.07.12l-2.82.2a1.26,1.26,0,0,1-.2-.58l1.58.12Z"/><path class="cls-3" d="M52.34,77.52l-1.51-.14,0-.47.29-.81L52.48,76h.13c0,.32-.08.64-.12,1A1.64,1.64,0,0,1,52.34,77.52Z"/><path class="cls-3" d="M67.75,68.85a1.56,1.56,0,0,1-1.67-.09,1.66,1.66,0,0,0,.92.05,1.64,1.64,0,0,0,1.21-1.95l-.35-1-3,1.14.69,1.18a1.82,1.82,0,0,0,.52.55,1.61,1.61,0,0,1-.28-.13,1.81,1.81,0,0,1-.74-1c-.12-.33-.24-.66-.35-1a1.6,1.6,0,0,1,1-1.87,1.63,1.63,0,0,1,2,.73l.69,1.18A1.65,1.65,0,0,1,67.75,68.85Z"/><path class="cls-4" d="M90.11,56.4,88.68,57a1.54,1.54,0,0,0-.67-.81A1.91,1.91,0,0,0,86.8,56a1.61,1.61,0,0,0-.49.13L85.7,55l.21-.08a1.86,1.86,0,0,0,.83-2.44l1.32-.6C88.75,53.37,89.43,54.89,90.11,56.4Z"/><path class="cls-3" d="M68.22,66.86A1.64,1.64,0,0,1,67,68.81a1.66,1.66,0,0,1-.92-.05h0a1.82,1.82,0,0,1-.52-.55L64.86,67l3-1.14Z"/><path class="cls-3" d="M50.87,76.91l0,.47-1.58-.12a1.36,1.36,0,0,1,0-.4c0-.21,0-.42.08-.63L51,76.12C50.92,76.38,50.9,76.65,50.87,76.91Z"/><path class="cls-3" d="M49.47,77.86h-.35l.34,0Z"/><path class="cls-3" d="M49.45,77.84l-.34,0L27.32,78a2.28,2.28,0,0,1,.07-.24l1.4-.15,8.64-.6a117.1,117.1,0,0,1,11.82.22A1.26,1.26,0,0,0,49.45,77.84Z"/><path class="cls-3" d="M52.62,76h-.13l-1.32.09.1-.3,1.35.13S52.62,76,52.62,76Z"/><path class="cls-3" d="M51.17,76.1l-.29.81c0-.27.05-.53.09-.8Z"/><path class="cls-3" d="M49.12,77.86l-12.41.85h-.08q-3.56.13-7.1.48h-.15L27,79.38c.11-.45.23-.89.35-1.34Z"/><path class="cls-3" d="M52.62,75.93l-1.35-.13L53,70.93l.58.1A39.57,39.57,0,0,0,52.62,75.93Z"/><path class="cls-3" d="M78.62,61.3a1.64,1.64,0,0,1-2.19-.66l-.08-.14A1.62,1.62,0,0,1,79.21,59l.08.14a1.66,1.66,0,0,1-.66,2.2Z"/><path class="cls-3" d="M51.27,75.8l-.1.3H51c0-.11,0-.22,0-.33Z"/><path class="cls-3" d="M49.25,76.86a1.36,1.36,0,0,0,0,.4A117.1,117.1,0,0,0,37.43,77l11.9-.82C49.3,76.44,49.27,76.65,49.25,76.86Z"/><path class="cls-3" d="M51,76.12l-1.64.11c0-.18,0-.37.08-.56l1.6.12C51,75.9,51,76,51,76.12Z"/><path class="cls-3" d="M53,70.93,51.27,75.8l-.27,0a39.38,39.38,0,0,1,1-5.28,1.69,1.69,0,0,0,.88.41Z"/><path class="cls-3" d="M49.33,76.23,37.43,77q-4.33.13-8.64.6l-1.39.09c.13-.53.28-1.06.44-1.6a121.72,121.72,0,0,1,21.56-.47C49.37,75.86,49.35,76,49.33,76.23Z"/><path class="cls-3" d="M51,75.79l-1.6-.12A44.69,44.69,0,0,1,51,68.46l.51.16A1.9,1.9,0,0,0,52,70.51,39.38,39.38,0,0,0,51,75.79Z"/><path class="cls-4" d="M65.4,57A103.78,103.78,0,0,1,73.73,73.1a101.71,101.71,0,0,0-19.14-5.19,40,40,0,0,1,2.95-6.4,1.57,1.57,0,0,0,1.28-2.09l.12-.19a1.57,1.57,0,0,0-1.25-2.41,55.11,55.11,0,0,1-2.45-7.24q4.84,3.82,10,7.19A2.5,2.5,0,0,0,65.4,57Zm.68,11.71a1.56,1.56,0,0,0,1.67.09,1.65,1.65,0,0,0,.66-2.2l-.69-1.18a1.63,1.63,0,0,0-2-.73,1.6,1.6,0,0,0-1,1.87c.11.33.23.66.35,1a1.81,1.81,0,0,0,.74,1,1.61,1.61,0,0,0,.28.13Zm-9.45-2a1.65,1.65,0,0,0,2.2.66,1.73,1.73,0,0,0,.83-1.22,1.51,1.51,0,0,0,.09-1,1.86,1.86,0,0,0-.74-1l-.61-.48a1.62,1.62,0,0,0-2,.21,1.66,1.66,0,0,0-.3,1.94Zm8.12-3.88a1.62,1.62,0,0,0,1-.74A1.65,1.65,0,0,0,66,60.9a1.85,1.85,0,0,0-.19-.46,1.26,1.26,0,0,0-.12-.25l-.34-.56a1.65,1.65,0,0,0-2.82-.07,2.13,2.13,0,0,0,0,2.23,2.17,2.17,0,0,0,.83.84A2.37,2.37,0,0,0,64.75,62.85Z"/><path class="cls-3" d="M86.74,52.45a1.86,1.86,0,0,1-.83,2.44L85.7,55a1.69,1.69,0,0,1-1.37-.12,1.45,1.45,0,0,0,.89,0A1.66,1.66,0,0,0,86.44,53l-2,1.5-.59-.61L84.36,52a1.63,1.63,0,0,0-.66,2.2,1.68,1.68,0,0,0,.62.62,1.65,1.65,0,0,1-1.05-1.17,1.9,1.9,0,0,1,1.11-2.15,1.87,1.87,0,0,1,1.26-.08A1.69,1.69,0,0,1,86.74,52.45Z"/><path class="cls-3" d="M86.44,53a1.66,1.66,0,0,1-1.22,1.95,1.45,1.45,0,0,1-.89,0,1.68,1.68,0,0,1-.62-.62,1.63,1.63,0,0,1,.66-2.2l-.55,1.81.59.61Z"/><path class="cls-3" d="M53.62,71l-.58-.1,1.11-3.09.45.07Q54,69.45,53.62,71Z"/><path class="cls-3" d="M54.14,67.84,53,70.93l-.11,0a1.69,1.69,0,0,1-.88-.41q.38-1.43.88-2.85H53Z"/><path class="cls-4" d="M88.06,51.85l-1.32.6a1.69,1.69,0,0,0-1.09-1,1.87,1.87,0,0,0-1.26.08l-.53-1.2.19-.1A1.65,1.65,0,0,0,84.7,48l1.36-.61Z"/><path class="cls-3" d="M58.84,67.39a1.65,1.65,0,0,1-2.2-.66l-.5-.9a1.66,1.66,0,0,1,.3-1.94,1.62,1.62,0,0,1,2-.21l.61.48a1.86,1.86,0,0,1,.74,1,1.51,1.51,0,0,1-.09,1,1.48,1.48,0,0,0-.17-1l-.5-.9-2.27,2.17.61.47a1.6,1.6,0,0,0,1.21.2,1.69,1.69,0,0,0,1-.74,2,2,0,0,0,.1-.22A1.73,1.73,0,0,1,58.84,67.39Z"/><path class="cls-3" d="M59.57,66.39a1.69,1.69,0,0,1-1,.74,1.6,1.6,0,0,1-1.21-.2l-.61-.47L59,64.29l.5.9a1.48,1.48,0,0,1,.17,1A2,2,0,0,1,59.57,66.39Z"/><path class="cls-3" d="M76.4,57.27a1.77,1.77,0,0,1-1.81.08,1.82,1.82,0,0,1-.52-2.66l.11-.13a1.72,1.72,0,0,1,.44-.34,1.82,1.82,0,0,1,2.64,1.69,1.7,1.7,0,0,1-.83,1.35,1.39,1.39,0,0,0,.39-.45,1.65,1.65,0,0,0-.54-2.23l.23.18.41.76c0,.21,0,.42,0,.64l-.42.69-.68.37-.81,0-.54-.33L74,56.08c0-.1,0-.2,0-.29a1.64,1.64,0,0,0,1.57,1.68A1.72,1.72,0,0,0,76.4,57.27Z"/><path class="cls-3" d="M76.47,56.85l0,0,0,0,.42-.69c0-.22,0-.43,0-.64l-.41-.76-.23-.18a1.65,1.65,0,0,1,.54,2.23,1.39,1.39,0,0,1-.39.45h0a1.72,1.72,0,0,1-.81.2A1.64,1.64,0,0,1,74,55.79c0,.09,0,.19,0,.29l.41.76.54.33.81,0,0,0,.06,0h0l.68-.37Z"/><path class="cls-3" d="M36.63,78.72l-7.1.48Q33.07,78.85,36.63,78.72Z"/><path class="cls-3" d="M76.52,56.81l0,0v0Z"/><path class="cls-3" d="M75.82,57.2l-.06,0,0,0Z"/><path class="cls-3" d="M52,70.51a1.9,1.9,0,0,1-.54-1.89,1.25,1.25,0,0,1,1.41-1Q52.42,69.07,52,70.51Z"/><path class="cls-3" d="M65.77,62.11a1.62,1.62,0,0,1-1,.74,2.37,2.37,0,0,1-1.47-.23,2.17,2.17,0,0,1-.83-.84,2.13,2.13,0,0,1,0-2.23,1.65,1.65,0,0,1,2.82.07l.34.56a1.26,1.26,0,0,1,.12.25,1.32,1.32,0,0,0-.54-.56,1.77,1.77,0,0,0-1-.21,1.23,1.23,0,0,1,.85.24.47.47,0,0,1,.2.21l.07.1h0a1.37,1.37,0,0,1,.11.54,1,1,0,0,1-.12.41l0,.07-2.79-.07.34.56a1.65,1.65,0,0,0,2.2.66,1.69,1.69,0,0,0,.77-2,1.85,1.85,0,0,1,.19.46A1.65,1.65,0,0,1,65.77,62.11Z"/><path class="cls-3" d="M65.24,61.29l0,0h0l0-.07a1,1,0,0,0,.12-.41,1.37,1.37,0,0,0-.11-.54s0,0,0,0a.06.06,0,0,1,0,0l-.07-.1a.47.47,0,0,0-.2-.21,1.23,1.23,0,0,0-.85-.24,1.77,1.77,0,0,1,1,.21,1.32,1.32,0,0,1,.54.56,1.69,1.69,0,0,1-.77,2,1.65,1.65,0,0,1-2.2-.66l-.34-.56,2.79.07A.08.08,0,0,0,65.24,61.29Z"/><path class="cls-3" d="M54.59,67.92l-.45-.07,2.3-6.36.82,0h.28A40,40,0,0,0,54.59,67.92Z"/><path class="cls-3" d="M37.43,77l-8.64.6Q33.09,77.18,37.43,77Z"/><path class="cls-3" d="M56.44,61.48l-2.3,6.36L53,67.66h-.11a39.36,39.36,0,0,1,2.77-6.22Z"/><path class="cls-5" d="M49.4,75.67a121.72,121.72,0,0,0-21.56.47,132.59,132.59,0,0,1,5.59-16l20.51,1.19A43,43,0,0,0,51,68.46,44.69,44.69,0,0,0,49.4,75.67Zm-7.68-4.36a3.72,3.72,0,0,0,1.34-.79c.39-.36.66-.85,1.15-1.09a1.64,1.64,0,0,0,.66-2.2,1.56,1.56,0,0,0-1.73-.79,1.29,1.29,0,0,0-1-.4,4.13,4.13,0,0,0-3.2,1.32,2.48,2.48,0,0,0,2.79,3.95Z"/><path class="cls-3" d="M65.27,61.24l0,0a.08.08,0,0,1,0,0Z"/><path class="cls-3" d="M51.51,68.62,51,68.46a43,43,0,0,1,2.94-7.12l1.76.1a39.36,39.36,0,0,0-2.77,6.22A1.25,1.25,0,0,0,51.51,68.62Z"/><path class="cls-3" d="M84,50.24l-.19.1a1.67,1.67,0,0,1-2-.75l-.22-.43a1.66,1.66,0,0,1,.66-2.2,1.63,1.63,0,0,1,2.2.66l.22.43A1.65,1.65,0,0,1,84,50.24Z"/><path class="cls-3" d="M65.28,60.18c0,.07,0,.08,0,0h0A.06.06,0,0,0,65.28,60.18Z"/><path class="cls-3" d="M69.61,57.68a1.43,1.43,0,0,1-.51.22,1.85,1.85,0,0,0,.37-.45Z"/><path class="cls-3" d="M69.61,57.68l-.14-.23A1.55,1.55,0,0,0,69,55.27l-1-.61a182.08,182.08,0,0,1,14.71-16.2,1.6,1.6,0,0,0,0,1.45l1,2.18q-5.55,5.51-10.61,11.5l-.1.12C72,54.9,71,56.09,70,57.3A1.69,1.69,0,0,1,69.61,57.68Z"/><path class="cls-3" d="M69.1,57.9a1.47,1.47,0,0,1-1.83.14c-.68-.42-1.34-.85-2-1.28-.59-1.43,1.3-2.58,2.5-1.79l-.51.64C66.21,56.92,67.78,58.24,69.1,57.9Z"/><path class="cls-3" d="M69.47,57.45a1.85,1.85,0,0,1-.37.45c-1.32.34-2.88-1-1.85-2.29l.51-.64a1.7,1.7,0,0,1,.51.52C68.67,56.15,69.07,56.79,69.47,57.45Z"/><path class="cls-3" d="M27,79.38l2.42-.16c-.81.08-1.63.17-2.45.27Z"/><path class="cls-3" d="M26.93,79.49l-1.21.15a1.67,1.67,0,0,1-.85-.1l0,0L27,79.38Z"/><path class="cls-3" d="M27,79.38l-2.07.14a1.71,1.71,0,0,0,.53-.68l-.09.34.39-1.13h1.6C27.19,78.49,27.08,78.94,27,79.38Z"/><path class="cls-3" d="M43.06,70.52a3.72,3.72,0,0,1-1.34.79,2.48,2.48,0,0,1-2.79-3.95A4.13,4.13,0,0,1,42.13,66a1.29,1.29,0,0,1,1,.4,1.68,1.68,0,0,0-.48.13l-2.82,1.2a1.64,1.64,0,0,0-.66,2.2,1.66,1.66,0,0,0,2.2.66l2.82-1.2C43.72,69.67,43.45,70.16,43.06,70.52Z"/><path class="cls-3" d="M69,55.27a1.55,1.55,0,0,1,.51,2.19c-.39-.66-.8-1.31-1.21-2a1.7,1.7,0,0,0-.51-.52l.25-.31Z"/><path class="cls-3" d="M44.87,67.23a1.64,1.64,0,0,1-.66,2.2l-.62-1.15a1.64,1.64,0,0,0-.45-1.84A1.56,1.56,0,0,1,44.87,67.23Z"/><path class="cls-3" d="M44.21,69.43l-2.82,1.2a1.66,1.66,0,0,1-2.2-.66,1.64,1.64,0,0,1,.66-2.2l2.82-1.2a4.13,4.13,0,0,0-1.24.94L41,68c-.21.17-.25.23-.14.16l-.12.07c-.13,0-.1,0,.09,0,.36,0,.6.19.74.64,0,.1,0,.19,0,.28l-.14.23h0s.53-.1.55-.1a1.81,1.81,0,0,0,1.56-1Z"/><path class="cls-3" d="M28.79,77.64l-1.4.15a.12.12,0,0,1,0-.06Z"/><path class="cls-3" d="M24.87,79.54a1.82,1.82,0,0,1-.94.38,1.29,1.29,0,0,1-.14-.32l1-.07Z"/><path class="cls-3" d="M24.89,79.52l0,0h0Z"/><path class="cls-3" d="M25.38,78.05h.18a1.72,1.72,0,0,1,0,.27,4.63,4.63,0,0,0-.12.5v0a1.71,1.71,0,0,1-.53.68h0a1.79,1.79,0,0,1-1-1.09,1.89,1.89,0,0,1,.08-.27A.86.86,0,0,1,24,78l1.54-.11a1.19,1.19,0,0,1,0,.17Z"/><path class="cls-3" d="M24.84,79.53l-1,.07a1.6,1.6,0,0,1,0-.88c0-.09,0-.19.08-.28A1.79,1.79,0,0,0,24.84,79.53Z"/><path class="cls-3" d="M25.72,78.05l-.39,1.13.09-.34v0a1.46,1.46,0,0,0,.12-.5,2.73,2.73,0,0,1,.07-.27Z"/><path class="cls-3" d="M23.79,79.6a1.29,1.29,0,0,0,.14.32,1.34,1.34,0,0,1-1.38-.87l-.13-.29A1.64,1.64,0,0,1,23.74,78h0a1.88,1.88,0,0,0,.09.44c0,.1-.05.19-.08.28A1.6,1.6,0,0,0,23.79,79.6Z"/><path class="cls-3" d="M27.32,78h-1.6l0,0,1.65-.21A2.28,2.28,0,0,0,27.32,78Z"/><path class="cls-3" d="M58.82,59.43a1.57,1.57,0,0,1-1.28,2.09C57.94,60.81,58.37,60.11,58.82,59.43Z"/><path class="cls-3" d="M27.38,77.8,25.74,78l.05-.16,1.6-.11A.12.12,0,0,0,27.38,77.8Z"/><path class="cls-3" d="M57.54,61.52h-.28l-.82,0,.24-.68a1.75,1.75,0,0,0,1.82-2,1.51,1.51,0,0,1,.32.6C58.37,60.11,57.94,60.81,57.54,61.52Z"/><path class="cls-3" d="M27.4,77.74l-1.6.11.53-1.54c.5-.07,1-.13,1.52-.17C27.68,76.68,27.53,77.21,27.4,77.74Z"/><path class="cls-3" d="M25.56,78.33a1.46,1.46,0,0,1-.12.5A4.63,4.63,0,0,1,25.56,78.33Z"/><path class="cls-3" d="M43.58,68.28a1.81,1.81,0,0,1-1.56,1s-.54.11-.55.1h0l.14-.23c0-.09,0-.19,0-.28-.14-.44-.38-.65-.74-.64-.19,0-.22,0-.09,0l.12-.07c-.11.06-.07,0,.14-.16l.43-.48a4.13,4.13,0,0,1,1.24-.94Z"/><path class="cls-3" d="M25.62,78.05a2.73,2.73,0,0,0-.07.27,1.72,1.72,0,0,0,0-.27Z"/><path class="cls-3" d="M56.68,60.8l-.24.68-.74,0c.14-.27.29-.52.44-.78A1.22,1.22,0,0,0,56.68,60.8Z"/><path class="cls-3" d="M25.74,78l0,0h-.1a.1.1,0,0,1,0,0Z"/><path class="cls-3" d="M25.79,77.84l-.05.16h-.1a1,1,0,0,1,0-.16Z"/><path class="cls-3" d="M25.62,78.05h-.07s0,0,0,0h.08A.1.1,0,0,0,25.62,78.05Z"/><path class="cls-3" d="M25.64,78h-.08a1.19,1.19,0,0,0,0-.17h.16A1,1,0,0,0,25.64,78Z"/><path class="cls-3" d="M25.56,78.05h-.18l.17,0S25.55,78,25.56,78.05Z"/><path class="cls-3" d="M43.58,68.28l-.92-1.7a1.68,1.68,0,0,1,.48-.13,1.64,1.64,0,0,1,.45,1.84Z"/><path class="cls-3" d="M26.32,76.31l-.53,1.54h-.11c.13-.5.26-1,.39-1.51Z"/><path class="cls-3" d="M58.5,58.82a1.75,1.75,0,0,1-1.82,2l.33-.91.53-1.47v0a0,0,0,0,1,0,0v-.08A1.45,1.45,0,0,1,58.5,58.82Z"/><path class="cls-3" d="M25.68,77.85h-.16a1.7,1.7,0,0,0-.11-.36l-.45-1h0l1.08-.13C25.94,76.84,25.81,77.35,25.68,77.85Z"/><path class="cls-3" d="M25.52,77.86,24,78c.1-.42.21-.84.33-1.26a1.54,1.54,0,0,1,.65-.24l.45,1A1.7,1.7,0,0,1,25.52,77.86Z"/><path class="cls-3" d="M68,54.66l-.25.31c-1.2-.78-3.08.37-2.5,1.79q-5.18-3.36-10-7.19a50.53,50.53,0,0,1-1.07-5l.2.14A127.72,127.72,0,0,0,68,54.66Z"/><path class="cls-3" d="M55.7,61.44l-1.76-.1c.27-.53.56-1.06.86-1.58l.65,0,.06.14a1.47,1.47,0,0,0,.63.71C56,60.91,55.84,61.17,55.7,61.44Z"/><path class="cls-3" d="M57,59.89l-.33.91a1.22,1.22,0,0,1-.54-.15c.15-.27.31-.53.47-.79Z"/><path class="cls-3" d="M23.93,78.16a1.89,1.89,0,0,0-.08.27,1.88,1.88,0,0,1-.09-.44h.08C23.87,78,23.9,78.11,23.93,78.16Z"/><path class="cls-3" d="M58.94,59.23l-.12.19a1.51,1.51,0,0,0-.32-.6,1.52,1.52,0,0,0-.13-.43c-.24-.52-.46-1-.68-1.57A1.57,1.57,0,0,1,58.94,59.23Z"/><path class="cls-3" d="M23.93,78.16c0-.06-.06-.12-.08-.18H24A.86.86,0,0,0,23.93,78.16Z"/><path class="cls-3" d="M56.61,59.87c-.16.26-.32.52-.47.79a1.47,1.47,0,0,1-.63-.71l-.06-.14Z"/><path class="cls-3" d="M24,78h-.13l-.08-.2a1.31,1.31,0,0,1,.55-1.06C24.19,77.14,24.08,77.56,24,78Z"/><path class="cls-3" d="M22.42,78.76q-3.61-8.15-7.22-16.31a1.59,1.59,0,0,0,.53-.57c.19-.32.37-.65.55-1Q20,69.34,23.76,77.78a1,1,0,0,0,0,.21h0A1.64,1.64,0,0,0,22.42,78.76Z"/><path class="cls-3" d="M23.85,78h-.08a1,1,0,0,1,0-.21Z"/><path class="cls-3" d="M27.84,76.14c-.51,0-1,.11-1.52.17l5.55-16.25,1.56.09A132.59,132.59,0,0,0,27.84,76.14Z"/><path class="cls-3" d="M57.54,58.42,57,59.89l-.41,0,.4-.65C57.18,58.94,57.35,58.68,57.54,58.42Z"/><path class="cls-3" d="M23.76,77.78Q20,69.34,16.29,60.9c.34-.59.66-1.19,1-1.8l7.33,16.57c-.1.35-.2.7-.28,1A1.31,1.31,0,0,0,23.76,77.78Z"/><path class="cls-3" d="M31.87,60.06,26.32,76.31l-.25,0a128.21,128.21,0,0,1,5.64-16.29Z"/><path class="cls-3" d="M53.94,61.34,33.43,60.15c.2-.51.43-1,.64-1.52l0-.07,20.7,1.2C54.5,60.28,54.21,60.81,53.94,61.34Z"/><path class="cls-3" d="M57,59.21l-.4.65-1.16-.07c-.1-.21-.2-.43-.29-.65q.28-.48.59-1l.76,0c.14.32.28.63.43.94Z"/><path class="cls-3" d="M26.07,76.34,25,76.47h0l-.36-.81a134.59,134.59,0,0,1,5.57-16.08,1.55,1.55,0,0,0,1,.43l.54,0A128.21,128.21,0,0,0,26.07,76.34Z"/><path class="cls-3" d="M58.37,58.4a1.52,1.52,0,0,1,.13.43,1.45,1.45,0,0,0-.94-.51l-.18,0-.67,0-.26-1a1.47,1.47,0,0,1,1.24-.39C57.9,57.35,58.13,57.87,58.37,58.4Z"/><path class="cls-3" d="M57,59.21l-.07,0-.23-.92.67,0,.18,0v.08a0,0,0,0,0,0,0v0C57.35,58.68,57.18,58.94,57,59.21Z"/><path class="cls-3" d="M24.59,75.67l.36.81a1.54,1.54,0,0,0-.65.24C24.4,76.37,24.49,76,24.59,75.67Z"/><path class="cls-3" d="M56.94,59.17c-.15-.31-.28-.62-.43-.94h.19Z"/><path class="cls-3" d="M55.45,59.8l-.65,0c.12-.2.24-.41.36-.61C55.25,59.37,55.35,59.59,55.45,59.8Z"/><path class="cls-3" d="M55.16,59.15c-.13.2-.25.41-.36.61l-20.7-1.2a1.26,1.26,0,0,0-.58-1.66l21.21,1.22C54.86,58.47,55,58.81,55.16,59.15Z"/><path class="cls-3" d="M55.75,58.19q-.31.48-.59,1c-.15-.34-.3-.67-.43-1Z"/><path class="cls-2" d="M24.59,75.67,17.26,59.1A75.12,75.12,0,0,0,23.45,43l5.46,14.91a1.7,1.7,0,0,0,.79.93,1.54,1.54,0,0,0,.45.81A134.59,134.59,0,0,0,24.59,75.67Zm-2-6.43a1.65,1.65,0,0,0,2.3,0,2.54,2.54,0,0,0,.44-3,1.64,1.64,0,0,0-2.2-.66,1.69,1.69,0,0,0-.81,1.78A1.57,1.57,0,0,0,22.59,69.24ZM23.46,61a1.65,1.65,0,0,0,2-1.09,2.52,2.52,0,0,0-1.62-3,2.64,2.64,0,0,0-1.26-.09,1.62,1.62,0,0,0-1,.74,1.62,1.62,0,0,0,.54,2.23l.25.12a1.47,1.47,0,0,0,.12.28A1.66,1.66,0,0,0,23.46,61Zm0-6.72a1.65,1.65,0,0,0,2-1.09l.37-1.68a1.66,1.66,0,0,0-1.09-2,1.64,1.64,0,0,0-2,1.09c-.12.56-.25,1.12-.37,1.69A1.66,1.66,0,0,0,23.48,54.23Z"/><path class="cls-3" d="M56.71,58.25h-.19c-.11-.24-.21-.49-.32-.74a1.54,1.54,0,0,1,.25-.28Z"/><path class="cls-3" d="M56.51,58.23l-.76,0,.41-.64,0,0C56.3,57.74,56.4,58,56.51,58.23Z"/><path class="cls-3" d="M56.16,57.54l-.41.64-1-.06a59.08,59.08,0,0,1-3.52-11.84l.31-.06A1.51,1.51,0,0,0,52,47l1.11.91a54.26,54.26,0,0,0,3.07,9.61Z"/><path class="cls-3" d="M56.44,57.21a1.54,1.54,0,0,0-.25.28,54.26,54.26,0,0,1-3.07-9.61l1.19,1Z"/><path class="cls-3" d="M56.44,57.21l-2.13-8.37.93.74a55.11,55.11,0,0,0,2.45,7.24A1.47,1.47,0,0,0,56.44,57.21Z"/><path class="cls-3" d="M83.66,42.1l-1-2.18a1.6,1.6,0,0,1,0-1.45l.19-.19c.66.28,1.31.58,2,.88a1.61,1.61,0,0,0,1.08.13l.18.41C85.3,40.48,84.48,41.28,83.66,42.1Z"/><path class="cls-3" d="M68.61,49.93a2.46,2.46,0,0,1-3.53-2.75,1.85,1.85,0,0,1,.23-.51,2.24,2.24,0,0,0,.49,2.21,2.31,2.31,0,0,0,2.84.39,2.36,2.36,0,0,0,.51-.44h0a1.52,1.52,0,0,0,.31-.36A1.81,1.81,0,0,1,68.61,49.93Z"/><path class="cls-3" d="M68.64,49.27a2.31,2.31,0,0,1-2.84-.39,2.24,2.24,0,0,1-.49-2.21,0,0,0,0,0,0,0c.92-1.45,3.46-1.56,4.22.16a1.83,1.83,0,0,1,.17.83,2,2,0,0,1-.24.68v-.1a1.62,1.62,0,0,0-2.35-1.81l-.07.05.26-.1.25,0a.93.93,0,0,1,.65.31,1,1,0,0,1,.19.32,1.43,1.43,0,0,0-1.31.09c-.14.09.08,0,.17,0h.13a.46.46,0,0,1,.28,0h0a1,1,0,0,0,.21.09h0l.07.06a1.11,1.11,0,0,0,.17.23,1.39,1.39,0,0,0,.08.2h0a.8.8,0,0,0,0,.09.78.78,0,0,1,0,.26,1,1,0,0,1-1.42.14L66.74,48l0,0a.83.83,0,0,1-.17-.31l0-.1c0-.27,0-.32,0-.17a1.63,1.63,0,0,0,.39,1.11l0,0c0-.09-.21-.31-.14-.13a1.63,1.63,0,0,0,2.2.66,1.77,1.77,0,0,0,.27-.2A2.36,2.36,0,0,1,68.64,49.27Z"/><path class="cls-3" d="M68.88,49a1.63,1.63,0,0,1-2.2-.66c-.07-.18.09,0,.14.13s0,0,0,0,0,0,0,0l0,0h0l.05.07,0,0h0a1.59,1.59,0,0,0,1,.43,1.64,1.64,0,0,0,1.17-.45l.15-.19a1.42,1.42,0,0,1-.22.35h0A1.77,1.77,0,0,1,68.88,49Z"/><path class="cls-3" d="M86.14,39.69,86,39.28a1.85,1.85,0,0,0,1.21-.91,1.52,1.52,0,0,1-.46.77Z"/><path class="cls-3" d="M67.75,48.67c.07-.06.17-.15.18-.13a1.28,1.28,0,0,0,.26-.43,1,1,0,0,0,0-.16l0,0,.06-.07h0a.83.83,0,0,0,.11-.42,1.11,1.11,0,0,0-.07-.41,1.79,1.79,0,0,1,.89.74,1.48,1.48,0,0,1,.18.49l0,.09-.06.16h0l-.15.19a1.64,1.64,0,0,1-1.17.45,1.59,1.59,0,0,1-1-.43h0a1.05,1.05,0,0,1,.19.08l.15,0h.2s-.07,0,0,0l.08,0h-.06A.72.72,0,0,1,67.75,48.67Z"/><path class="cls-3" d="M69.46,48.46a1.52,1.52,0,0,1-.31.36,1.42,1.42,0,0,0,.22-.35h0a.61.61,0,0,0,.09-.14s0,.09,0,.14Z"/><path class="cls-3" d="M69.47,48.46s0-.09,0-.14a2,2,0,0,0,.24-.68A1.51,1.51,0,0,1,69.47,48.46Z"/><path class="cls-3" d="M69.46,48.32a.61.61,0,0,1-.09.14l.06-.16,0-.09Z"/><path class="cls-3" d="M87.16,38.37a1.85,1.85,0,0,1-1.21.91l-.41-.91a1.4,1.4,0,0,0-2-.67l.95-.9A1.65,1.65,0,0,1,87.16,38.37Z"/><path class="cls-3" d="M85.54,38.37l.41.91a1.61,1.61,0,0,1-1.08-.13c-.65-.3-1.3-.6-2-.88l.59-.58A1.4,1.4,0,0,1,85.54,38.37Z"/><path class="cls-3" d="M69.45,48.22a1.48,1.48,0,0,0-.18-.49,1.79,1.79,0,0,0-.89-.74h0a1,1,0,0,0-.19-.32.93.93,0,0,0-.65-.31l-.25,0-.26.1.07-.05a1.62,1.62,0,0,1,2.35,1.81Z"/><path class="cls-3" d="M69.72,47.53l0,.11a1.83,1.83,0,0,0-.17-.83c-.76-1.72-3.3-1.61-4.22-.16a2.19,2.19,0,0,1,.27-.56,2.24,2.24,0,0,1,3-.74A2.29,2.29,0,0,1,69.72,47.53Z"/><path class="cls-3" d="M67.75,48.67a.72.72,0,0,0-.21.09h-.2l-.15,0a1.05,1.05,0,0,0-.19-.08h0s-.08-.08-.13-.12h0a1.63,1.63,0,0,1-.39-1.11c0-.15,0-.1,0,.17v0s0,0,0,0,0,0,0,0l0,.1a.83.83,0,0,0,.17.31l0,0,.08.06a1,1,0,0,0,1.42-.14,1,1,0,0,1,0,.16,1.28,1.28,0,0,1-.26.43S67.83,48.61,67.75,48.67Z"/><path class="cls-3" d="M67.6,48.75l-.08,0s0,0,0,0Z"/><path class="cls-3" d="M67.41,48.79h0Z"/><circle class="cls-3" cx="67" cy="48.67" transform="translate(1.23 98.99) rotate(-73.41)"/><path class="cls-3" d="M67,48.67h0Z"/><path class="cls-3" d="M67,48.67h0Z"/><path class="cls-3" d="M67,48.66h0l0,0-.05-.07C66.92,48.58,67,48.63,67,48.66Z"/><path class="cls-3" d="M68,47.22a0,0,0,0,0,0,0s0,0,0,0A.12.12,0,0,0,68,47.22Zm-.77-.2h0c-.09,0-.32.14-.17,0A1.43,1.43,0,0,1,68.37,47h0a1.11,1.11,0,0,1,.07.41.83.83,0,0,1-.11.42,0,0,0,0,1,0,0h0l-.06.07,0,0a.78.78,0,0,0,0-.26.8.8,0,0,1,0-.09s0,0,0,0,0-.05,0,0a1.39,1.39,0,0,1-.08-.2s0,0,0,0v0a.08.08,0,0,0,0,.05,1.11,1.11,0,0,1-.17-.23l-.07-.06h0a1,1,0,0,1-.21-.09h.08l-.07,0s0,0,0,0h0a.46.46,0,0,0-.28,0Z"/><path class="cls-3" d="M68.32,47.84h0Z"/><path class="cls-3" d="M68.33,47.83h0a0,0,0,0,0,0,0Z"/><path class="cls-3" d="M66.81,48.5s0,0,0,0S66.78,48.49,66.81,48.5Z"/><path class="cls-3" d="M87.16,38.37a1.65,1.65,0,0,0-2.71-1.58l-.95.9a1.87,1.87,0,0,0-.65.55,87.09,87.09,0,0,0-18-5.56c-.86-.18-1.72-.33-2.59-.47h0c.52-.61,1.06-1.2,1.61-1.79a1.53,1.53,0,0,0,.45-1.13,90.72,90.72,0,0,1,22.2,7.08A1.33,1.33,0,0,1,87.16,38.37Z"/><path class="cls-3" d="M68.21,47.58s0,0,0,0h0C68.2,47.53,68.2,47.53,68.21,47.58Z"/><path class="cls-3" d="M68.13,47.36s0,0,0,0a.08.08,0,0,1,0-.05Z"/><path class="cls-6" d="M82.72,38.46A182.08,182.08,0,0,0,68,54.66a127.72,127.72,0,0,1-13.63-9.95l-.2-.14c-.07-.37-.13-.74-.18-1.11a1.49,1.49,0,0,0,.66-.62,71.48,71.48,0,0,1,6-8.68l1.23,1a2.33,2.33,0,0,0,1.45,3.65,3.29,3.29,0,0,0,3.13-1.2,1.77,1.77,0,0,0,.28-.39A1.39,1.39,0,0,0,66.9,37a1.65,1.65,0,0,0-.55-2.23,5.53,5.53,0,0,0-1.72-.69l.26-1.37a87.09,87.09,0,0,1,18,5.56A1.47,1.47,0,0,0,82.72,38.46ZM65.93,49.68a2.37,2.37,0,0,0,2.67.25,1.81,1.81,0,0,0,.85-1.47h0a1.51,1.51,0,0,0,.23-.81l0-.11a2.29,2.29,0,0,0-1.18-2.18,2.24,2.24,0,0,0-3,.74,2.19,2.19,0,0,0-.27.56,0,0,0,0,1,0,0,1.85,1.85,0,0,0-.23.51A2.37,2.37,0,0,0,65.93,49.68Z"/><path class="cls-3" d="M68,47.2a0,0,0,0,1,0,0,.12.12,0,0,1,0,0S68,47.19,68,47.2Z"/><path class="cls-3" d="M67.89,47.11h0Z"/><path class="cls-3" d="M67.75,47h-.09s0,0,0,0Z"/><path class="cls-3" d="M66.51,47.59s0,0,0,0,0,0,0,0Z"/><path class="cls-3" d="M82.91,38.28l-.19.19a1.47,1.47,0,0,1,.14-.21Z"/><path class="cls-3" d="M83.51,37.7l-.59.58-.06,0A1.87,1.87,0,0,1,83.51,37.7Z"/><path class="cls-3" d="M24.89,69.28a1.65,1.65,0,0,1-2.3,0,1.57,1.57,0,0,1-.28-1.81,1.65,1.65,0,0,0,.15.42c.08.15.06.1-.05-.17a2,2,0,0,0,0-.24h0a.79.79,0,0,1,.09-.28h0a.73.73,0,0,0,.09-.11l-.06.07,0,0h0a2,2,0,0,0-.17.3,1.69,1.69,0,0,1,.81-1.78,1.64,1.64,0,0,1,2.2.66A2.54,2.54,0,0,1,24.89,69.28Z"/><path class="cls-3" d="M49.15,52.77a1.64,1.64,0,0,1-.85,1.29l-1.68.86a1.62,1.62,0,0,1-2.16-2.27,4.49,4.49,0,0,1,2.9-2.23,1.65,1.65,0,0,1,1.95,1.21,1.45,1.45,0,0,1-.17,1.14,1.45,1.45,0,0,0-.19-.91,1.66,1.66,0,0,0-2.2-.66l-1.68.86,2.17,2.27c0-.05.22-.33.21-.35a1.15,1.15,0,0,1,.15-.14,2.59,2.59,0,0,0,.22-.16l.13-.07.14,0A1.71,1.71,0,0,0,49.15,52.77Z"/><path class="cls-3" d="M22.41,67.68c.12.27.14.32.05.17a1.65,1.65,0,0,1-.15-.42,2,2,0,0,1,.17-.3h0a.79.79,0,0,0-.09.28h0s0,0,0,.08a.36.36,0,0,1,0-.07A2,2,0,0,1,22.41,67.68Z"/><path class="cls-3" d="M47.61,53.84a1.15,1.15,0,0,0-.15.14s-.19.3-.21.35l-2.17-2.27,1.68-.86a1.66,1.66,0,0,1,2.2.66,1.45,1.45,0,0,1,.19.91,1.71,1.71,0,0,1-1,.81l-.14,0-.14,0,.14,0-.13.07A2.59,2.59,0,0,1,47.61,53.84Z"/><path class="cls-3" d="M22.4,67.44a.36.36,0,0,0,0,.07s0-.06,0-.08Z"/><path class="cls-3" d="M48,53.62l-.14,0Z"/><path class="cls-3" d="M55.24,49.58l-.93-.74-1.15-4.52a1.62,1.62,0,0,1,1,.25A50.53,50.53,0,0,0,55.24,49.58Z"/><path class="cls-3" d="M22.49,67.13h0l0,0,.06-.07A.73.73,0,0,1,22.49,67.13Z"/><path class="cls-3" d="M33.43,60.15l-1.56-.09.55-1.6,1.69.1,0,.07C33.86,59.14,33.64,59.64,33.43,60.15Z"/><path class="cls-3" d="M54.31,48.84l-1.19-1c-.25-1.11-.46-2.24-.64-3.37a1.56,1.56,0,0,1,.67-.19Z"/><path class="cls-3" d="M32.41,58.46l-.55,1.6h-.15c.22-.54.44-1.07.68-1.59Z"/><path class="cls-3" d="M31.72,60.05l-.54,0a1.55,1.55,0,0,1-1-.43c.08-.21.17-.41.26-.6a1.71,1.71,0,0,0,1.5-.55l.48,0C32.16,59,31.93,59.51,31.72,60.05Z"/><path class="cls-3" d="M34.1,58.56l-1.69-.1.1-.29-.12.29-.48,0a1.26,1.26,0,0,0,.17-1.31L32,56.81l1.56.09A1.26,1.26,0,0,1,34.1,58.56Z"/><path class="cls-3" d="M53.12,47.88,52,47a1.51,1.51,0,0,1-.5-.74,1.59,1.59,0,0,1,1-1.72C52.66,45.64,52.88,46.77,53.12,47.88Z"/><path class="cls-3" d="M32.52,58.17l-.1.29h0Z"/><path class="cls-3" d="M30.42,59c-.09.19-.18.4-.26.6a1.54,1.54,0,0,1-.45-.81A1.72,1.72,0,0,0,30.42,59Z"/><path class="cls-3" d="M31.91,58.44a1.71,1.71,0,0,1-1.5.55c.18-.43.36-.85.54-1.28a1.67,1.67,0,0,1,.89-.9H32l.12.31A1.26,1.26,0,0,1,31.91,58.44Z"/><path class="cls-3" d="M31,57.71c-.18.42-.37.85-.54,1.28a1.72,1.72,0,0,1-.71-.2A1.69,1.69,0,0,1,30.32,57a1.51,1.51,0,0,1,1-.24l.57,0A1.67,1.67,0,0,0,31,57.71Z"/><path class="cls-3" d="M33.52,56.9,32,56.81a.11.11,0,0,0,0,0A2,2,0,0,1,33.52,56.9Z"/><path class="cls-3" d="M32,56.81h-.11l.09,0A.11.11,0,0,1,32,56.81Z"/><path class="cls-3" d="M51.51,46.23l-.31.06q-.51-2.7-.77-5.46l1,.29a1.71,1.71,0,0,0,.38.07,1.53,1.53,0,0,0,.44,2.05q.08.64.18,1.28A1.59,1.59,0,0,0,51.51,46.23Z"/><path class="cls-3" d="M29.71,58.79a1.7,1.7,0,0,1-.79-.93L23.45,43c.24-.94.47-1.89.67-2.85L30.32,57A1.69,1.69,0,0,0,29.71,58.79Z"/><path class="cls-3" d="M32,56.77l-.09,0h0l-.57,0a1.51,1.51,0,0,0-1,.24L24.12,40.1c0-.11.05-.23.08-.35a.86.86,0,0,0,0-.15c.45-.09.9-.16,1.36-.22Z"/><path class="cls-3" d="M54,43.46c.05.37.11.74.18,1.11a1.62,1.62,0,0,0-1-.25l-.2-.76A1.46,1.46,0,0,0,54,43.46Z"/><path class="cls-3" d="M22.68,59.89s0,0,0,0-.08-.09-.14-.13h0a.48.48,0,0,0-.1-.12h0c0-.09-.05-.16-.07-.19h0s0,0,0,0a0,0,0,0,0,0,0h0s0-.06,0-.09,0-.23,0-.36a.83.83,0,0,0,0,.36,1.54,1.54,0,0,0,.06.6l-.25-.12a1.62,1.62,0,0,1,.48-3,2.64,2.64,0,0,1,1.26.09,2.52,2.52,0,0,1,1.62,3,1.62,1.62,0,0,1-3,.31,1.47,1.47,0,0,1-.12-.28,1.72,1.72,0,0,0,.56.1.9.9,0,0,0,.4,0,2.7,2.7,0,0,1-.4,0h-.05Z"/><path class="cls-3" d="M64.11,37.26l.14,0,.05,0h0l.36.19a1.69,1.69,0,0,0,2.06-.31,1.77,1.77,0,0,1-.28.39,3.29,3.29,0,0,1-3.13,1.2,2.33,2.33,0,0,1-1.45-3.65,2.83,2.83,0,0,1,1.64-1.09,2.58,2.58,0,0,1,1.11,0,5.53,5.53,0,0,1,1.72.69A1.65,1.65,0,0,1,66.9,37a1.39,1.39,0,0,1-.17.24,1.57,1.57,0,0,0-.23-1.91,1.65,1.65,0,0,0-2.3-.05l-.24.25c-.15.12-.18.15-.1.1h0l-.13.08a.29.29,0,0,1,.16,0,.9.9,0,0,1,.52,1.48h0a.43.43,0,0,1-.16.09h0l-.11,0h0Z"/><path class="cls-3" d="M36.63,52.31a2.21,2.21,0,0,1-1.23,2,2.25,2.25,0,0,1-2.44-.2,2.17,2.17,0,0,1-.67-2.44,2.27,2.27,0,0,1,2.24-1.55,1.7,1.7,0,0,1,1.31.78,1.61,1.61,0,0,0-.79-.24,1.65,1.65,0,0,0-1.68,1.57c0,.16,0,.09.06-.22a2.32,2.32,0,0,0,.13-.26h0l.11-.14.18-.14a.84.84,0,0,0,.27-.1h.26a.71.71,0,0,1,.34.1,1.09,1.09,0,0,1,.64.75c0,.1,0,.19,0,.28s0,.23-.05.26a.64.64,0,0,0-.07.17h0l-.12.16a1.05,1.05,0,0,1-.52.27c-.3,0-.37,0-.21,0a1.6,1.6,0,0,0,1.42-2.47,1.86,1.86,0,0,1,.33.26A1.74,1.74,0,0,1,36.63,52.31Z"/><path class="cls-3" d="M64.34,37.34h0Zm.11-.22a.9.9,0,0,0-.52-1.48.29.29,0,0,0-.16,0l.13-.08h0c-.08.05-.05,0,.1-.1l.24-.25a1.65,1.65,0,0,1,2.3.05,1.57,1.57,0,0,1,.23,1.91,1.69,1.69,0,0,1-2.06.31l-.36-.19h0l-.05,0-.14,0h.15a.43.43,0,0,0,.16-.09h0Z"/><path class="cls-3" d="M53,43.56l.2.76a1.56,1.56,0,0,0-.67.19q-.1-.63-.18-1.28A1.88,1.88,0,0,0,53,43.56Z"/><path class="cls-3" d="M54.65,42.84a1.49,1.49,0,0,1-.66.62q-.28-1.91-.42-3.85a1.24,1.24,0,0,0-.05-.3,1.6,1.6,0,0,0-.16-.57A72,72,0,0,1,60.82,29l.78.71c-.69.85-.64,2.26.71,2.49q-.84,1-1.64,2A71.48,71.48,0,0,0,54.65,42.84Z"/><path class="cls-3" d="M22.41,59.61v0a0,0,0,0,1,0,0,.48.48,0,0,1,.1.12s-.06,0,0,0,.06,0,0,0,.15.11.14.13h0l.2.07h.05a1.72,1.72,0,0,1-.56-.1,1.54,1.54,0,0,1-.06-.6s0,.06,0,.09h0a0,0,0,0,1,0,0s0,0,0,0a0,0,0,0,0,0,0s0,0,0,0,0,.1.07.19Z"/><path class="cls-3" d="M41.62,49.43a1.6,1.6,0,0,1-1.46,1.14,1.46,1.46,0,0,0,.38-.29,1.65,1.65,0,0,0,0-2.3l-1-.88c.08.66.15,1.32.22,2l-.11.14h0l-.07.05-.06,0h0l-.09,0-.09,0h-.11s-.27,0-.34-.07a.41.41,0,0,1-.21-.12l0,0a.49.49,0,0,0-.13-.19l-.05-.16h0c0-.08,0-.13,0-.16h0a0,0,0,0,0,0,0,0,0,0,0,0,0,0,.06.06,0,0,0,0,.06h0a.14.14,0,0,0,0,0,1.62,1.62,0,0,0,1.12,1.78,1.76,1.76,0,0,0,.57,0,1.75,1.75,0,0,1-1.92-.34l-1-.88a1.64,1.64,0,0,1-.21-2,2.53,2.53,0,0,1,4.58,2Z"/><path class="cls-3" d="M22.89,60h0Z"/><path class="cls-3" d="M54,43.46a1.46,1.46,0,0,1-1,.1l-.62-2.42a1.72,1.72,0,0,0,1.17-1.82,1.24,1.24,0,0,1,.05.3Q53.71,41.55,54,43.46Z"/><path class="cls-3" d="M39.72,49.21h0l.11-.14c-.07-.65-.15-1.31-.22-2l1,.88a1.65,1.65,0,0,1,0,2.3,1.46,1.46,0,0,1-.38.29,1.76,1.76,0,0,1-.57,0,1.62,1.62,0,0,1-1.12-1.78.14.14,0,0,1,0,0,0,0,0,0,0,0,0s0,0,0,0h0s0,.08,0,.16,0,0,0,.08,0,0,0-.06l.05.16a.49.49,0,0,1,.13.19l0,0a.41.41,0,0,0,.21.12c.07,0,.33.06.34.07h.11l.09,0,.09,0c-.12.1.12,0,0,0l.06,0,.07-.05,0,0Zm-1.06,0h0Z"/><path class="cls-3" d="M33.71,51.55c-.05.05-.07.07,0,0l-.11.14h0a2.32,2.32,0,0,1-.13.26c0,.31-.05.38-.06.22a1.65,1.65,0,0,1,1.68-1.57,1.61,1.61,0,0,1,.79.24,1.6,1.6,0,0,1-1.42,2.47c-.16,0-.09,0,.21,0a1.05,1.05,0,0,0,.52-.27l.12-.16h0l0,0,0,0a.64.64,0,0,1,.07-.17s0,0,0,0h0s0-.12.05-.26,0-.18,0-.28a1.09,1.09,0,0,0-.64-.75.71.71,0,0,0-.34-.1h-.26a.84.84,0,0,1-.27.1l-.18.14Z"/><path class="cls-3" d="M52.35,41.14,53,43.56a1.88,1.88,0,0,1-.66-.33c-.09-.68-.17-1.36-.23-2A1.23,1.23,0,0,0,52.35,41.14Z"/><path class="cls-3" d="M22.68,59.89h0S22.68,59.89,22.68,59.89Z"/><path class="cls-3" d="M64.34,37.34h0Z"/><path class="cls-3" d="M22.53,59.76c.05.07.07.12,0,0s-.05-.07,0,0h0Z"/><path class="cls-3" d="M64.25,37.24h-.11Z"/><path class="cls-3" d="M35.29,52.88h0Z"/><path class="cls-3" d="M64.16,37.26h0Z"/><path class="cls-3" d="M35.31,52.85l0,0h0Z"/><path class="cls-3" d="M64.15,37.26h0Z"/><path class="cls-3" d="M35.37,52.7s0,0,0,0Z"/><path class="cls-3" d="M22.42,59.63v0h0A0,0,0,0,0,22.42,59.63Z"/><path class="cls-3" d="M22.34,59.43a0,0,0,0,1,0,0h0S22.34,59.43,22.34,59.43Z"/><path class="cls-3" d="M52.31,43.23a1.53,1.53,0,0,1-.44-2.05h.22C52.14,41.87,52.21,42.55,52.31,43.23Z"/><path class="cls-3" d="M47.29,44.76a2.17,2.17,0,0,1-2.13,1.48,2.12,2.12,0,0,1-2-1.6,2.18,2.18,0,0,1,3.25-2.27,1.73,1.73,0,0,1,.74,1.14,1.58,1.58,0,0,0-1-.77,1.64,1.64,0,0,0-1.92.87,1.22,1.22,0,0,1,.61-.54.45.45,0,0,1,.27-.07h.11l.24,0,.26.11.45.47a1.09,1.09,0,0,1,.13.79,1.11,1.11,0,0,1-.24.53L46,45a0,0,0,0,0,0,0l-.2.14-.28.1h0a.74.74,0,0,1-.55-.07c-.31-.13-.4-.14-.26-.05A1.64,1.64,0,0,0,47,44.61a1.66,1.66,0,0,0,.2-1.09A1.49,1.49,0,0,1,47.29,44.76Z"/><path class="cls-3" d="M39.56,49.33c.11,0-.12.1,0,0Z"/><path class="cls-3" d="M39.66,49.27l0,0h0Z"/><path class="cls-3" d="M39.38,49.41h0Z"/><path class="cls-3" d="M15.2,62.45l-.73-1.64c.34-.58.67-1.17,1-1.77.27.62.54,1.24.82,1.86-.18.33-.36.66-.55,1A1.59,1.59,0,0,1,15.2,62.45Z"/><path class="cls-3" d="M45.54,45.27l.28-.1L46,45a0,0,0,0,1,0,0l.09-.11a1.11,1.11,0,0,0,.24-.53,1.09,1.09,0,0,0-.13-.79l-.45-.47L45.5,43l-.24,0h0c-.06,0-.08,0,0,0h-.06a.45.45,0,0,0-.27.07,1.22,1.22,0,0,0-.61.54,1.64,1.64,0,0,1,1.92-.87,1.58,1.58,0,0,1,1,.77,1.66,1.66,0,0,1-.2,1.09,1.64,1.64,0,0,1-2.23.54c-.15-.09-.05-.07.26.05a.74.74,0,0,0,.55.07Z"/><path class="cls-3" d="M38.67,49.19h0Z"/><path class="cls-3" d="M33.69,51.58s0,0,0,0Z"/><path class="cls-3" d="M38.5,48.84s0,0,0,.06,0-.07,0-.08h0Z"/><path class="cls-3" d="M16.29,60.9c-.28-.62-.55-1.23-.82-1.86.33-.6.65-1.21,1-1.82.27.63.55,1.25.83,1.88C16.95,59.71,16.62,60.31,16.29,60.9Z"/><path class="cls-3" d="M38.47,48.75a.14.14,0,0,1,0,0A.14.14,0,0,0,38.47,48.75Z"/><path class="cls-3" d="M38.48,48.69a0,0,0,0,1,0,0h0Z"/><path class="cls-3" d="M38.48,48.69h0a.06.06,0,0,1,0-.06,0,0,0,0,0,0,0h0S38.48,48.68,38.48,48.69Z"/><path class="cls-3" d="M38.49,48.67h0Z"/><path class="cls-3" d="M53.52,39.31a1.72,1.72,0,0,1-1.17,1.82l-.14-.54c.27-.46.55-.91.83-1.36a1.44,1.44,0,0,1,.27.32l0-.08a1.35,1.35,0,0,0-.25-.34l.2-.32A1.52,1.52,0,0,1,53.52,39.31Z"/><path class="cls-3" d="M38.48,48.65a0,0,0,0,1,0,0,0,0,0,0,1,0,0A0,0,0,0,1,38.48,48.65Z"/><path class="cls-3" d="M52.21,40.6l.14.54a1.23,1.23,0,0,1-.27,0c0-.1,0-.21,0-.32A2.92,2.92,0,0,1,52.21,40.6Z"/><path class="cls-3" d="M52,40.87c0,.11,0,.21,0,.32h-.22v0Z"/><path class="cls-3" d="M51.88,41.15v0a1.71,1.71,0,0,1-.38-.07l-1-.29c0-.25-.05-.5-.07-.75h.27a1.55,1.55,0,0,1,0-.39l-.27-.08a1.36,1.36,0,0,1,.05-.13l1.5.07c0,.44.06.88.1,1.31Z"/><path class="cls-3" d="M52.21,40.6a2.92,2.92,0,0,0-.17.27c0-.43-.07-.87-.1-1.31Z"/><path class="cls-6" d="M64.9,32.69l-.26,1.37a2.58,2.58,0,0,0-1.11,0,2.83,2.83,0,0,0-1.64,1.09l-1.23-1q.8-1,1.64-2h0C63.18,32.35,64,32.51,64.9,32.69Z"/><path class="cls-3" d="M52.21,40.6l-.27-1-1.31-.38a1.78,1.78,0,0,1,2.4.06C52.76,39.69,52.48,40.14,52.21,40.6Z"/><path class="cls-3" d="M14.35,61l.1-.27a.14.14,0,0,1,0,0C14.44,60.89,14.39,61,14.35,61Z"/><path class="cls-3" d="M14.47,60.81a.14.14,0,0,0,0,0l.82-2.15.19.43C15.15,59.64,14.82,60.24,14.47,60.81Z"/><path class="cls-3" d="M15.27,58.62l-.82,2.15L13.66,59q.85-1.55,1.61-3.13a1.33,1.33,0,0,1,.82.65Z"/><path class="cls-3" d="M17.26,59.1c-.28-.63-.56-1.25-.83-1.88a70.78,70.78,0,0,0,6-17c.34.92.67,1.83,1,2.75A75.12,75.12,0,0,1,17.26,59.1Z"/><path class="cls-3" d="M53.36,39.48l0,.08a1.44,1.44,0,0,0-.27-.32l.06-.1A1.35,1.35,0,0,1,53.36,39.48Z"/><path class="cls-3" d="M50.37,40.07c0,.25,0,.5.07.75-1.48-.41-3-.76-4.48-1Z"/><path class="cls-3" d="M53.52,39.31a1.52,1.52,0,0,0-.21-.49l0-.08A1.6,1.6,0,0,1,53.52,39.31Z"/><path class="cls-3" d="M53.11,39.14l-.06.1a1.78,1.78,0,0,0-2.4-.06l-.3-.08a1.23,1.23,0,0,1,.47-.81l1.61.45A1.65,1.65,0,0,1,53.11,39.14Z"/><path class="cls-3" d="M53.31,38.82l-.2.32a1.65,1.65,0,0,0-.7-.4l-1.61-.45A1.83,1.83,0,0,1,53.31,38.82Z"/><path class="cls-3" d="M51.95,39.56l-1.5-.07a1.19,1.19,0,0,1,.2-.31Z"/><path class="cls-3" d="M45.29,43h-.07s0,0,0,0Z"/><path class="cls-3" d="M50.64,40.09h-.27a1.68,1.68,0,0,1,0-.27,1.3,1.3,0,0,1,0-.18l.27.08A1.55,1.55,0,0,0,50.64,40.09Z"/><path class="cls-3" d="M15.47,59l-.19-.43.82-2.13.09.18.25.56C16.12,57.83,15.8,58.44,15.47,59Z"/><path class="cls-3" d="M50.37,40.07,46,39.78c-1.81-.36-3.64-.62-5.46-.8l8.07.4c.6.13,1.19.29,1.78.45a.1.1,0,0,1,0,0A1.68,1.68,0,0,0,50.37,40.07Z"/><path class="cls-3" d="M50.35,39.8a.1.1,0,0,0,0,0c-.59-.16-1.18-.31-1.78-.45l1.21.06.55.15A1,1,0,0,0,50.35,39.8Z"/><path class="cls-3" d="M25.5,53.14a1.62,1.62,0,1,1-3.12-.92c.12-.57.25-1.13.37-1.69a1.64,1.64,0,0,1,2-1.09,1.66,1.66,0,0,1,1.09,2Z"/><path class="cls-3" d="M50.35,39.8a1,1,0,0,1,0-.2l.06,0A1.3,1.3,0,0,0,50.35,39.8Z"/><path class="cls-3" d="M50.39,39.62l-.06,0v-.1a0,0,0,0,1,0,0h.12A1.36,1.36,0,0,0,50.39,39.62Z"/><path class="cls-3" d="M50.33,39.6l-.55-.15.55,0a0,0,0,0,0,0,0Z"/><path class="cls-3" d="M50.44,39.49h-.12a1.23,1.23,0,0,1,0-.38l.3.08A1.19,1.19,0,0,0,50.44,39.49Z"/><path class="cls-3" d="M50.32,39.48l-.55,0A60.84,60.84,0,0,0,25,37.93l-.08-.12a1.7,1.7,0,0,0-1-.72,63.37,63.37,0,0,1,26.88,1.2,1.39,1.39,0,0,0-.48,1.18Z"/><path class="cls-3" d="M49.77,39.45l-1.21-.06A60.09,60.09,0,0,0,26.69,38.3l-1.54-.08a.06.06,0,0,0,0,0,2.09,2.09,0,0,0-.12-.26A60.84,60.84,0,0,1,49.77,39.45Z"/><path class="cls-3" d="M16.43,57.22l-.25-.56-.09-.18L22.37,40c0,.07,0,.14.07.2A70.78,70.78,0,0,1,16.43,57.22Z"/><path class="cls-3" d="M48.56,39.39,40.49,39a56.86,56.86,0,0,0-5.84-.29H34.6l-7.91-.4A60.09,60.09,0,0,1,48.56,39.39Z"/><path class="cls-3" d="M63.91,30.42c-.55.58-1.08,1.18-1.61,1.79-1.35-.23-1.4-1.64-.71-2.49a1.7,1.7,0,0,1,1.64-.62l1.13.2A1.53,1.53,0,0,1,63.91,30.42Z"/><path class="cls-3" d="M22.37,40,16.09,56.48a1.33,1.33,0,0,0-.82-.65,72.47,72.47,0,0,0,5.81-17,1.42,1.42,0,0,1,.55-.9,1.67,1.67,0,0,0,0,.45,1.57,1.57,0,0,0,0,.29l.1-.06a1.82,1.82,0,0,0,.34.59C22.17,39.46,22.27,39.73,22.37,40Z"/><path class="cls-3" d="M46,39.78l-5.39-.35a58.91,58.91,0,0,0-6-.39l-3.7-.24q1.86-.12,3.73-.12h.05l5.84.29C42.32,39.17,44.15,39.43,46,39.78Z"/><path class="cls-3" d="M35.92,43.48a2.73,2.73,0,0,1-1.38,2.39,2.79,2.79,0,0,1-3.73-1.16,1.62,1.62,0,0,1,0-1.62,3.59,3.59,0,0,1,1.88-1.48,1.55,1.55,0,0,0-.24,1.51s0,0,0,0a1.23,1.23,0,0,0,.18.49c.11.18,0,0,0-.08a.39.39,0,0,1,0-.06s0,0,0,0a0,0,0,0,1,0,0l.25.38.62-.76.11.15,0,1.53h0a0,0,0,0,1,0,0l0,0,0,0h0l.05,0s0,0,.08,0,0,0,.15,0H34a1.6,1.6,0,0,0,1.58-.57A1.74,1.74,0,0,0,35.92,43.48Z"/><path class="cls-3" d="M64.36,29.29l-1.13-.2a1.7,1.7,0,0,0-1.64.62L60.82,29c.27-.32.56-.63.84-.93C62.76,26.9,64.33,28,64.36,29.29Z"/><path class="cls-3" d="M33.69,44.71l-.05,0,.05-.08-.06.07,0-1.53c.05.05.07.07,0-.06,0,0,0,0,0,.06l-.11-.15h0l0,0,1.26-1.54a3.91,3.91,0,0,0-1.53,0l0,0a1.66,1.66,0,0,1,2.2.66,2.64,2.64,0,0,1,.37,1.37,0,0,0,0,0,0,0,1.74,1.74,0,0,1-.3.58,1.6,1.6,0,0,1-1.58.57h-.21l-.07,0C33.72,44.71,33.68,44.74,33.69,44.71Z"/><path class="cls-3" d="M34,44.63h0Z"/><path class="cls-3" d="M34,44.61h0Z"/><path class="cls-3" d="M33.95,44.62h0Z"/><path class="cls-3" d="M33.92,44.63c-.11,0-.24.11-.15,0l.07,0h.08Z"/><path class="cls-3" d="M33.63,44.78l0,0,0,0s0,0,0,0Z"/><polygon class="cls-3" points="33.63 44.77 33.63 44.78 33.63 44.77 33.63 44.77"/><path class="cls-3" d="M33.63,44.77h0s0,0,0,0a0,0,0,0,0,0,0h0l.06-.07-.05.08Z"/><path class="cls-3" d="M33.84,44.63h0Z"/><path class="cls-3" d="M35.79,42.28a1.42,1.42,0,0,1,.13,1.19,2.64,2.64,0,0,0-.37-1.37,1.66,1.66,0,0,0-2.2-.66l0,0a2.44,2.44,0,0,0-.56.14,1.58,1.58,0,0,1,2.72.17Z"/><path class="cls-3" d="M33.55,43.07l-.62.76-.25-.38h0a.06.06,0,0,0,0,0l.09-.19a0,0,0,0,1,0,0h0A.54.54,0,0,1,33,43a.89.89,0,0,1,.29-.07h.05l.08,0,.05,0,.07.05v0Z"/><path class="cls-3" d="M33.67,43.16c.07.13,0,.11,0,.06S33.67,43.18,33.67,43.16Z"/><path class="cls-3" d="M32.68,43.55c0,.11.12.27,0,.08a1.23,1.23,0,0,1-.18-.49,1,1,0,0,0,.1.18l.07.1h0a.16.16,0,0,0,0,.06A.39.39,0,0,0,32.68,43.55Z"/><path class="cls-3" d="M33.57,43l0,0v0L33.47,43h0l.05,0Z"/><path class="cls-3" d="M34.83,41.5,33.57,43l0,0-.05,0h0l-.05,0-.08,0h-.05A.89.89,0,0,0,33,43a.54.54,0,0,0-.22.18h0s0,0,0,0a.06.06,0,0,0,0,0l0,0-.09.19a.06.06,0,0,1,0,0,.11.11,0,0,0,0,0v0l-.07-.1a1,1,0,0,1-.1-.18s0,0,0,0a1.75,1.75,0,0,1,.8-1.65A3.91,3.91,0,0,1,34.83,41.5Z"/><path class="cls-3" d="M32.68,43.47s0,0,0,0a.16.16,0,0,1,0-.06h0A0,0,0,0,0,32.68,43.47Z"/><path class="cls-3" d="M32.68,43.44h0v0A.11.11,0,0,1,32.68,43.44Z"/><path class="cls-3" d="M33.34,42.94h0Z"/><path class="cls-3" d="M33.32,42.94h0Z"/><path class="cls-3" d="M32.77,43.21l0,0a.06.06,0,0,1,0,0s0,0,0,0h0A0,0,0,0,0,32.77,43.21Z"/><path class="cls-3" d="M40.49,39l-5.84-.29A56.86,56.86,0,0,1,40.49,39Z"/><path class="cls-3" d="M33.29,41.47a1.75,1.75,0,0,0-.8,1.65,1.55,1.55,0,0,1,.24-1.51A2.44,2.44,0,0,1,33.29,41.47Z"/><path class="cls-3" d="M26.69,38.3l7.91.4q-1.86,0-3.73.12l-5.35-.35Z"/><path class="cls-3" d="M23.45,43c-.34-.92-.67-1.83-1-2.75,0-.21.09-.41.13-.62a1.59,1.59,0,0,0,1,.12l.36-.06c.06.15.11.3.17.46C23.92,41.06,23.7,42,23.45,43Z"/><path class="cls-3" d="M25.52,38.46l5.35.35q-2.65.16-5.3.57c-.11-.3-.21-.59-.32-.87Z"/><path class="cls-3" d="M25.25,38.5c.11.29.22.58.32.87-.45.06-.91.14-1.36.22a1.61,1.61,0,0,0-.56-1.46l1,.05a1,1,0,0,1,.18.19v0h0l.09.13Z"/><path class="cls-3" d="M24.12,40.1c-.05-.16-.11-.3-.17-.46l.27,0a.86.86,0,0,1,0,.15C24.18,39.87,24.16,40,24.12,40.1Z"/><path class="cls-3" d="M25.15,38.22l1.54.08-1.17.17-.28,0C25.21,38.37,25.18,38.29,25.15,38.22Z"/><path class="cls-3" d="M24.22,39.6l-.27,0-.36.06a1.59,1.59,0,0,1-1-.12c0-.09,0-.19.06-.29l-.1.28a1.39,1.39,0,0,1-.47-.38l-.1-.26a1.43,1.43,0,0,1-.09-.39l.18-.06a1.54,1.54,0,0,1,1.06-.65,1.85,1.85,0,0,1,.44.25l-.34.06.44,0A1.61,1.61,0,0,1,24.22,39.6Z"/><path class="cls-3" d="M22.45,40.2c0-.07-.05-.14-.07-.2l.17-.43,0,0C22.54,39.79,22.5,40,22.45,40.2Z"/><path class="cls-3" d="M25.24,38.45l.28,0-.27,0Z"/><path class="cls-3" d="M25.25,38.5l-.31,0-.09-.13.38,0Z"/><path class="cls-3" d="M25.24,38.45l-.38,0,0,0c0-.06-.05-.13-.08-.18l.42,0C25.18,38.29,25.21,38.37,25.24,38.45Z"/><path class="cls-3" d="M22.54,39.57l-.17.43c-.1-.27-.2-.54-.3-.81A1.39,1.39,0,0,0,22.54,39.57Z"/><path class="cls-3" d="M25.15,38.22l-.42,0a.74.74,0,0,0-.12-.21l.41-.06a2.09,2.09,0,0,1,.12.26A.06.06,0,0,1,25.15,38.22Z"/><path class="cls-3" d="M24.74,38.2c0,.06.06.12.08.18a1,1,0,0,0-.18-.19Z"/><path class="cls-3" d="M22.58,39.58l0,0,.1-.28C22.62,39.39,22.6,39.49,22.58,39.58Z"/><path class="cls-3" d="M24.74,38.2h-.1a1.63,1.63,0,0,0-.4-.25l.71-.13.08.12-.41.06A.74.74,0,0,1,24.74,38.2Z"/><path class="cls-3" d="M24.64,38.2l-1-.05-.1-.08.67-.12A1.63,1.63,0,0,1,24.64,38.2Z"/><path class="cls-3" d="M24.95,37.81l-.71.13a1.83,1.83,0,0,0-1.12-.13,1.67,1.67,0,0,0-1.06-.09,1,1,0,0,1,.09-.13,1.56,1.56,0,0,1,.71-.32l1.06-.18A1.7,1.7,0,0,1,24.95,37.81Z"/><path class="cls-3" d="M22,38.92l.1.26a1.82,1.82,0,0,1-.34-.59l.15-.07A1.43,1.43,0,0,0,22,38.92Z"/><path class="cls-3" d="M24.23,37.94l-.67.12a1.85,1.85,0,0,0-.44-.25A1.83,1.83,0,0,1,24.23,37.94Z"/><path class="cls-3" d="M23.66,38.15l-.44,0,.34-.06Z"/><path class="cls-3" d="M22.06,38.47l-.18.06a1.18,1.18,0,0,1,.17-.8,1.67,1.67,0,0,1,1.06.09A1.54,1.54,0,0,0,22.06,38.47Z"/><path class="cls-3" d="M21.74,38.6l-.1.06a1.57,1.57,0,0,1,0-.29A1.3,1.3,0,0,0,21.74,38.6Z"/><path class="cls-3" d="M21.88,38.53l-.15.07a1.3,1.3,0,0,1-.06-.23,1.27,1.27,0,0,1,.31-.62l.06,0A1.18,1.18,0,0,0,21.88,38.53Z"/><path class="cls-3" d="M23.92,37.1l-1.06.18a1.56,1.56,0,0,0-.71.32A1.79,1.79,0,0,1,23.92,37.1Z"/><path class="cls-3" d="M21.68,38.37a1.67,1.67,0,0,1,0-.45,1.16,1.16,0,0,1,.36-.17A1.27,1.27,0,0,0,21.68,38.37Z"/><path class="cls-3" d="M22.15,37.6a1,1,0,0,0-.09.13l-.06,0A1.09,1.09,0,0,1,22.15,37.6Z"/></g></g></svg>