<svg xmlns="http://www.w3.org/2000/svg" viewBox="0 0 103 103"><defs><style>.cls-1{fill:#29272a;stroke:#fedd37;stroke-miterlimit:10;stroke-width:3px;}.cls-2{fill:#414042;}.cls-3{fill:#b72025;}</style></defs><title>Asset 1</title><g id="Layer_2" data-name="Layer 2"><g id="Layer_1-2" data-name="Layer 1"><rect class="cls-1" x="1.5" y="1.5" width="100" height="100"/><rect class="cls-2" x="98.93" y="77.65" height="0.5"/><path class="cls-3" d="M67.08,29.53a7.88,7.88,0,0,1-3,6.1,26.09,26.09,0,0,1-5.72,3.46q-2.83,1.33-3.46,2.73a2.22,2.22,0,0,0-.06.64,6.4,6.4,0,0,0,1.27,2.84,6.49,6.49,0,0,1,1.27,3.35q0,4.38-5.69,6.32a30.22,30.22,0,0,1-9.4,1.27H40.62l9.75-27.51H38.94L27.47,61.33H44a50.49,50.49,0,0,0,9.58-.85L43.46,89.19H60a44,44,0,0,0,15.25-2.41q9.15-3.4,9.15-10.48a15.6,15.6,0,0,0-2.45-7.66,47,47,0,0,0,9-5.4q4.92-4.07,4.92-8.74,0-5.62-4.48-8-3.65-2-11-2c0-.2-7.34-.09-12.71.09a21,21,0,0,0-1.76-3.81,47,47,0,0,0,9-5.4q4.92-4.07,4.92-8.74,0-5.62-4.48-8-3.65-2-11-2H5.16l17.29,8H59.61Q67.08,24.64,67.08,29.53Zm8.53,23q7.46,0,7.46,4.89a7.88,7.88,0,0,1-3,6.1A26.09,26.09,0,0,1,74.31,67q-2.83,1.33-3.46,2.73a2.21,2.21,0,0,0-.06.64,6.4,6.4,0,0,0,1.27,2.84,6.49,6.49,0,0,1,1.27,3.35q0,4.38-5.69,6.32a30.22,30.22,0,0,1-9.4,1.27H56.61L65.68,55l.68-2.18a.63.63,0,0,0-.11-.36h1.24C74.27,52.52,75.61,52.67,75.61,52.5Z"/></g></g></svg>