<svg xmlns="http://www.w3.org/2000/svg" viewBox="0 0 103 103"><defs><style>.cls-1{fill:#29272a;stroke:#fedd37;stroke-miterlimit:10;stroke-width:3px;}.cls-2{fill:#204c24;}.cls-3{fill:#b72025;}.cls-4{fill:#19381b;}.cls-5{fill:#0b4c26;}</style></defs><title>Asset 1</title><g id="Layer_2" data-name="Layer 2"><g id="Layer_1-2" data-name="Layer 1"><rect class="cls-1" x="1.5" y="1.5" width="100" height="100"/><polygon class="cls-2" points="63.82 60.04 63.59 64.2 70.8 59.99 69.32 58.97 68.12 57.77 67.47 46.58 65.15 38.31 57.29 25.32 55.26 27.08 59.79 33.88 62.43 39.93 63.35 46.12 63.91 50.56 63.82 60.04"/><path class="cls-2" d="M39.35,60.12c-1.38-.83-2.64,3.28-2.64,3.28l9.55.64-1.84-1.51-.26-1.71,6.06-9.58,3-8.18,1.29-15.37-2.68.23-.34,8.29-1.43,6.55-2.9,5.65-2.16,4S40.73,61,39.35,60.12Z"/><path class="cls-3" d="M17.74,77.17l1.82,4.78a1.55,1.55,0,0,0,.35.55L24,86.62a1.55,1.55,0,0,0,.51.34l7,2.89a1.55,1.55,0,0,0,.78.11l7.37-.9a1.55,1.55,0,0,0,.71-.28l6.95-4.94a1.55,1.55,0,0,0,.39-.4l3.77-5.59a1.55,1.55,0,0,0,.26-.76l.43-6.24a1.55,1.55,0,0,0-.41-1.17l-5-5.4a1.55,1.55,0,0,0-1-.49l-5.29-.4a1.55,1.55,0,0,1-1.08-2.55h0a1.55,1.55,0,0,0,0-2l-1.28-1.49a1.55,1.55,0,0,0-.34-.29l-2-1.28a1.55,1.55,0,0,0-.31-.15L34,55.1a1.55,1.55,0,0,0-.53-.09H30.34a1.55,1.55,0,0,0-.46.07l-2.21.69a1.55,1.55,0,0,0-.43.21l-3,2.12a1.55,1.55,0,0,0-.21.17L20.3,62a1.55,1.55,0,0,0-.31.45L17.5,67.87a1.55,1.55,0,0,0-.1.29l-.56,2.39a1.55,1.55,0,0,0,0,.58l.85,5.71A1.55,1.55,0,0,0,17.74,77.17Z"/><path class="cls-3" d="M54.55,85.91l4.09,3a1.64,1.64,0,0,0,.62.28l5.67,1.25a1.64,1.64,0,0,0,.64,0L73,89.16a1.64,1.64,0,0,0,.75-.35l5.69-4.7a1.64,1.64,0,0,0,.47-.65l3.18-7.87a1.64,1.64,0,0,0,.12-.57l.17-6.7a1.64,1.64,0,0,0-.2-.83L80.2,62a1.64,1.64,0,0,0-1-.79l-6.88-1.92a1.64,1.64,0,0,0-1.22.14l-4.84,2.63a1.64,1.64,0,0,1-2.41-1.53h0a1.64,1.64,0,0,0-1.06-1.62l-1.72-.64a1.64,1.64,0,0,0-.57-.1H58.2a1.64,1.64,0,0,0-.36,0l-1.44.32a1.64,1.64,0,0,0-.52.22l-2.64,1.68a1.64,1.64,0,0,0-.37.33l-1.47,1.75a1.64,1.64,0,0,0-.26.43l-1.4,3.39a1.64,1.64,0,0,0-.09.27l-1.12,5.1a1.64,1.64,0,0,0,0,.58l.83,5.9a1.64,1.64,0,0,0,.08.31l.81,2.3a1.64,1.64,0,0,0,.31.53l3.77,4.33A1.64,1.64,0,0,0,54.55,85.91Z"/><polygon class="cls-4" points="20.97 39.47 38.64 39.63 42.97 38.3 47.47 36.47 52.97 30.8 55.31 26.97 49.64 24.14 46.64 22.97 40.14 23.3 35.64 24.47 30.31 27.97 23.14 35.63 20.97 39.47"/><polygon class="cls-5" points="17.83 23.8 34.11 30.66 38.62 31.07 43.48 31.08 50.72 27.93 54.34 25.26 50.17 20.49 47.83 18.27 41.69 16.12 37.09 15.49 30.82 16.7 21.29 21.08 17.83 23.8"/><polygon class="cls-2" points="85.76 30.94 70.25 22.47 65.8 21.6 60.97 21.1 53.45 23.5 49.58 25.79 53.25 30.95 55.34 33.4 61.23 36.17 65.75 37.26 72.11 36.68 82.04 33.3 85.76 30.94"/></g></g></svg>