<svg xmlns="http://www.w3.org/2000/svg" viewBox="0 0 103 103"><defs><style>.cls-1{fill:#29272a;stroke:#fedd37;stroke-width:3px;}.cls-1,.cls-3{stroke-miterlimit:10;}.cls-2{fill:#333131;}.cls-3{fill:none;stroke:#c1bcbc;}</style></defs><title>Asset 2</title><g id="Layer_2" data-name="Layer 2"><g id="Layer_1-2" data-name="Layer 1"><rect class="cls-1" x="1.5" y="1.5" width="100" height="100"/><path class="cls-2" d="M78.35,41.6a10.35,10.35,0,1,1,0,20.71H76.78a25.69,25.69,0,0,0,1.38-4.07h.19a6.29,6.29,0,1,0,0-12.58H62.9V41.6H78.35Z"/><path class="cls-2" d="M78.35,45.67a6.29,6.29,0,1,1,0,12.58h-.19a26.08,26.08,0,0,0,0-12.58Z"/><path class="cls-2" d="M78.92,52a26,26,0,0,1-.76,6.24,25.69,25.69,0,0,1-1.38,4.07A26.46,26.46,0,0,1,62.9,76.07v-4.5a22.37,22.37,0,0,0,9.37-9.27,21.49,21.49,0,0,0,1.67-4.07,21.89,21.89,0,0,0,0-12.58h4.22A25.92,25.92,0,0,1,78.92,52Z"/><path class="cls-2" d="M76.74,41.6H72.22a22.38,22.38,0,0,0-9.32-9.17,22.1,22.1,0,0,0-4.07-1.64,22.61,22.61,0,0,0-12.58,0v-4.2a26.74,26.74,0,0,1,12.58,0,26.15,26.15,0,0,1,4.07,1.36A26.47,26.47,0,0,1,76.74,41.6Z"/><path class="cls-2" d="M74.85,52a21.72,21.72,0,0,1-.91,6.24h-11V45.67h11A21.77,21.77,0,0,1,74.85,52Z"/><path class="cls-2" d="M62.9,58.24h11a21.49,21.49,0,0,1-1.67,4.07h-26V58.24H62.9Z"/><path class="cls-2" d="M62.9,62.31h9.37a22.37,22.37,0,0,1-9.37,9.27Z"/><path class="cls-2" d="M72.22,41.6H62.9V32.43A22.38,22.38,0,0,1,72.22,41.6Z"/><path class="cls-2" d="M62.9,76.07v2.17a10.35,10.35,0,0,1-20.71,0V76.12a26.29,26.29,0,0,0,4.07,1.34v.79a6.29,6.29,0,0,0,12.58,0V62.31H62.9V76.07Z"/><path class="cls-2" d="M62.9,41.6V58.24H58.84V30.79a22.1,22.1,0,0,1,4.07,1.64Z"/><path class="cls-2" d="M62.9,25.48v2.45a26.15,26.15,0,0,0-4.07-1.36v-1.1a6.29,6.29,0,0,0-12.58,0V41.6H42.19V25.48a10.35,10.35,0,0,1,20.71,0Z"/><path class="cls-2" d="M58.84,77.43v.81a6.29,6.29,0,0,1-12.58,0v-.79a26.74,26.74,0,0,0,12.58,0Z"/><path class="cls-2" d="M58.84,73.22v4.21a26.74,26.74,0,0,1-12.58,0A26.45,26.45,0,0,1,28.21,62.31h4.51a22.36,22.36,0,0,0,9.47,9.32,22.08,22.08,0,0,0,4.07,1.62,22.61,22.61,0,0,0,12.58,0Z"/><path class="cls-2" d="M58.84,62.31V73.22a22.61,22.61,0,0,1-12.58,0V62.31Z"/><path class="cls-2" d="M58.84,41.6v4.07H31.08a21.57,21.57,0,0,1,1.69-4.07H58.84Z"/><rect class="cls-2" x="46.26" y="45.67" width="12.58" height="12.58"/><path class="cls-2" d="M58.84,30.79V41.6H46.26V30.76a22.61,22.61,0,0,1,12.58,0Z"/><path class="cls-2" d="M58.84,25.48v1.1a26.74,26.74,0,0,0-12.58,0V25.48a6.29,6.29,0,0,1,12.58,0Z"/><path class="cls-2" d="M46.26,58.24v15a22.08,22.08,0,0,1-4.07-1.62v-26h4.07Z"/><path class="cls-2" d="M42.19,58.24v4.07H25.59a10.35,10.35,0,1,1,0-20.71h2.66a25.93,25.93,0,0,0-1.39,4.07H25.59a6.29,6.29,0,1,0,0,12.58H42.19Z"/><path class="cls-2" d="M42.19,62.31v9.32a22.36,22.36,0,0,1-9.47-9.32Z"/><path class="cls-2" d="M42.19,45.67V58.24H31a21.89,21.89,0,0,1,0-12.58Z"/><path class="cls-2" d="M42.19,32.38V41.6H32.77A22.37,22.37,0,0,1,42.19,32.38Z"/><path class="cls-2" d="M42.19,27.89v4.49a22.37,22.37,0,0,0-9.42,9.22A21.88,21.88,0,0,0,31,58.24H26.83A25.93,25.93,0,0,1,28.25,41.6,26.46,26.46,0,0,1,42.19,27.89Z"/><path class="cls-2" d="M25.59,45.67h1.27a26.08,26.08,0,0,0,0,12.58H25.59a6.29,6.29,0,1,1,0-12.58Z"/><line class="cls-3" x1="62.9" y1="58.24" x2="73.94" y2="58.24"/><line class="cls-3" x1="46.26" y1="58.24" x2="58.84" y2="58.24"/><line class="cls-3" x1="58.84" y1="62.31" x2="46.26" y2="62.31"/><line class="cls-3" x1="72.27" y1="62.31" x2="62.9" y2="62.31"/><line class="cls-3" x1="46.26" y1="41.6" x2="58.84" y2="41.6"/><line class="cls-3" x1="32.77" y1="41.6" x2="42.19" y2="41.6"/><line class="cls-3" x1="42.19" y1="45.67" x2="31.08" y2="45.67"/><line class="cls-3" x1="58.84" y1="45.67" x2="46.26" y2="45.67"/><line class="cls-3" x1="31.05" y1="58.24" x2="42.19" y2="58.24"/><path class="cls-3" d="M26.86,45.67H25.59a6.29,6.29,0,1,0,0,12.58h1.24"/><path class="cls-3" d="M28.21,62.31H25.59a10.35,10.35,0,1,1,0-20.71h2.66"/><line class="cls-3" x1="42.19" y1="62.31" x2="32.72" y2="62.31"/><line class="cls-3" x1="62.9" y1="41.6" x2="72.22" y2="41.6"/><line class="cls-3" x1="73.92" y1="45.67" x2="62.9" y2="45.67"/><path class="cls-3" d="M78.16,58.24h.19a6.29,6.29,0,1,0,0-12.58h-.21"/><path class="cls-3" d="M76.74,41.6h1.6a10.35,10.35,0,1,1,0,20.71H76.78"/><polyline class="cls-3" points="42.2 71.63 42.2 62.31 42.2 58.24 42.2 45.67 46.26 45.67 46.26 58.24 46.26 62.31 46.26 73.25"/><polyline class="cls-3" points="62.9 32.43 62.9 41.6 62.9 45.67 62.9 58.24 58.84 58.24 58.84 45.67 58.84 41.6 58.84 30.79"/><polyline class="cls-3" points="58.84 73.22 58.84 62.31 62.9 62.31 62.9 71.58"/><path class="cls-3" d="M46.26,77.45v.79a6.29,6.29,0,0,0,12.58,0v-.81"/><path class="cls-3" d="M62.9,76.07v2.17a10.35,10.35,0,0,1-20.71,0V76.12"/><polyline class="cls-3" points="46.26 30.76 46.26 41.6 42.2 41.6 42.2 32.38"/><path class="cls-3" d="M58.84,26.58v-1.1a6.29,6.29,0,0,0-12.58,0v1.07"/><path class="cls-3" d="M42.19,27.89V25.48a10.35,10.35,0,0,1,20.71,0v2.45"/><path class="cls-3" d="M42.19,27.89v4.49a22.37,22.37,0,0,0-9.42,9.22A21.88,21.88,0,0,0,31,58.24H26.83A25.93,25.93,0,0,1,28.25,41.6,26.46,26.46,0,0,1,42.19,27.89Z"/><path class="cls-3" d="M58.84,73.22v4.21a26.74,26.74,0,0,1-12.58,0A26.45,26.45,0,0,1,28.21,62.31h4.51a22.36,22.36,0,0,0,9.47,9.32,22.08,22.08,0,0,0,4.07,1.62,22.61,22.61,0,0,0,12.58,0Z"/><path class="cls-3" d="M78.14,45.67a25.88,25.88,0,0,1-1.35,16.64A26.46,26.46,0,0,1,62.9,76.07v-4.5a22.37,22.37,0,0,0,9.37-9.27,21.49,21.49,0,0,0,1.67-4.07,21.89,21.89,0,0,0,0-12.58Z"/><path class="cls-3" d="M76.74,41.6H72.22a22.38,22.38,0,0,0-9.32-9.17,22.1,22.1,0,0,0-4.07-1.64,22.61,22.61,0,0,0-12.58,0v-4.2a26.74,26.74,0,0,1,12.58,0,26.15,26.15,0,0,1,4.07,1.36A26.47,26.47,0,0,1,76.74,41.6Z"/></g></g></svg>